<?xml version="1.0" encoding="UTF-8"?><svg xmlns="http://www.w3.org/2000/svg" xmlns:xlink="http://www.w3.org/1999/xlink" viewBox="0 0 1115 474.14"><defs><style>.h{stroke-width:2.2px;}.h,.i,.j,.k,.l{fill:none;stroke:#fff;stroke-linecap:round;stroke-miterlimit:10;}.h,.i,.j,.l{opacity:.23;}.i{stroke-width:2.22px;}.j{stroke-width:2.22px;}.k{opacity:.35;stroke-width:3.82px;}.m{fill:#ff9d00;}.n{fill:#fff;}.o{fill:url(#d);}.o,.p,.q,.r,.s{mix-blend-mode:overlay;opacity:.52;}.p{fill:url(#f);}.q{fill:url(#e);}.r{fill:url(#c);}.s{fill:url(#b);}.l{stroke-width:2.11px;}.t{isolation:isolate;}</style><linearGradient id="b" x1="762.34" y1="235.05" x2="1129.01" y2="235.05" gradientTransform="matrix(1, 0, 0, 1, 0, 0)" gradientUnits="userSpaceOnUse"><stop offset="0" stop-color="aqua"/><stop offset=".8" stop-color="aqua" stop-opacity=".03"/></linearGradient><linearGradient id="c" x1="763.8" y1="177.42" x2="768.67" y2="440.35" gradientTransform="matrix(1, 0, 0, 1, 0, 0)" gradientUnits="userSpaceOnUse"><stop offset="0" stop-color="aqua" stop-opacity=".03"/><stop offset="1" stop-color="aqua"/></linearGradient><linearGradient id="d" x1="533.73" y1="272.81" x2="769.72" y2="272.81" gradientTransform="matrix(1, 0, 0, 1, 0, 0)" gradientUnits="userSpaceOnUse"><stop offset="0" stop-color="aqua" stop-opacity=".03"/><stop offset="1" stop-color="aqua"/></linearGradient><linearGradient id="e" x1="294.97" y1="272.66" x2="543.27" y2="272.66" xlink:href="#d"/><linearGradient id="f" x1="-14.01" y1="273.98" x2="304.51" y2="273.98" xlink:href="#d"/></defs><g class="t"><g id="a"><g><g><path class="s" d="M767.1,428.87c-1.18,0-2.37-.44-3.29-1.32-1.9-1.82-1.97-4.84-.15-6.74L1120.79,42.71c1.82-1.9,4.84-1.97,6.74-.15,1.9,1.82,1.97,4.84,.15,6.74l-357.13,378.1c-.94,.98-2.19,1.47-3.45,1.47Z"/><path class="r" d="M767.1,428.87c-2.62,0-4.75-2.11-4.77-4.73l-2.16-253.17c-.02-2.63,2.09-4.79,4.73-4.81h.04c2.62,0,4.75,2.11,4.77,4.73l2.16,253.17c.02,2.63-2.09,4.79-4.73,4.81h-.04Z"/><path class="o" d="M538.5,379.46c-1.31,0-2.61-.53-3.55-1.58-1.76-1.96-1.6-4.97,.36-6.74l226.45-203.76c1.96-1.76,4.97-1.6,6.74,.36,1.76,1.96,1.6,4.97-.36,6.74l-226.45,203.76c-.91,.82-2.05,1.22-3.19,1.22Z"/><path class="q" d="M538.5,379.46c-1.1,0-2.2-.38-3.1-1.14l-238.76-204.05c-2-1.71-2.24-4.72-.53-6.72,1.71-2,4.72-2.24,6.72-.53l238.76,204.05c2,1.71,2.24,4.72,.53,6.72-.94,1.1-2.28,1.67-3.63,1.67Z"/><path class="p" d="M-9.23,382.09c-1.5,0-2.99-.71-3.91-2.04-1.51-2.16-.98-5.13,1.18-6.64L297.01,166.73c2.16-1.51,5.13-.98,6.64,1.18,1.51,2.16,.98,5.13-1.18,6.64L-6.5,381.23c-.83,.58-1.78,.86-2.73,.86Z"/><g><circle class="k" cx="299.74" cy="170.64" r="10.17"/><circle class="h" cx="299.74" cy="170.64" r="40.67"/></g><g><circle class="k" cx="538.5" cy="374.76" r="10.17"/><circle class="j" cx="538.5" cy="374.76" r="40.91"/></g><circle class="k" cx="767.1" cy="424.01" r="10.17"/><circle class="l" cx="767.1" cy="424.01" r="38.89"/><g><circle class="k" cx="764.95" cy="170.94" r="10.17"/><circle class="i" cx="764.95" cy="170.94" r="40.97"/></g></g><g><g><path class="m" d="M121.02,408.52c1.41,.25,2.82,.31,4.3,.31,1.96,.06,7.98,0,10.56-.06-1.04,1.84-2.15,5.71-2.46,7.98h-8.9c-8.04,0-14.55-1.96-19.21-8.84-1.47,3.81-3.5,7.06-6.14,9.64-1.1-1.35-3.87-3.74-5.83-5.15v5.28h-8.29v-24.56c-1.23,1.23-2.39,2.33-3.62,3.32-.8-1.9-3.13-6.44-4.54-8.41,4.91-3.62,10-9.33,12.95-15.1l7.8,2.88c-1.23,2.39-2.7,4.79-4.3,7.18v27.99c4.85-4.91,6.63-12.95,7.18-22.28l8.59,.68c-.25,2.89-.55,5.65-1.04,8.29,1.23,3.25,2.76,5.59,4.66,7.24v-20.01h3.13c-1.53-1.17-3.31-2.39-4.48-3.07,5.89-4.73,8.96-12.95,10.13-22.53l8.35,1.04c-.55,3.74-1.35,7.24-2.33,10.5,3.25,3.01,7,6.69,8.9,9.27l-5.83,5.89c-1.29-2.09-3.68-4.85-6.14-7.49-1.23,2.39-2.64,4.54-4.17,6.38h.74v7.67h10.99v7.43h-10.99v8.53Zm-24.25-46.1c-3.99,5.46-9.76,11.54-14.85,15.35-1.1-1.78-3.25-4.91-4.6-6.51,4.24-3.01,9.15-8.1,11.6-11.97l7.86,3.13Zm16.02,17.62c-.92-.98-2.52-2.27-4.24-3.56-1.9,4.05-4.3,7.49-7.12,10.19-1.23-1.59-4.42-4.73-6.26-6.08,5.4-4.67,8.59-12.52,10.01-21.3l8.41,1.35c-.55,3.01-1.29,5.89-2.15,8.65,1.96,1.29,4.05,2.76,5.28,3.81l-3.93,6.94Z"/><path class="m" d="M154.74,390.22c-2.52-1.78-7.98-4.73-11.6-6.63l4.79-6.63c3.38,1.53,9.02,4.18,11.79,5.83l-4.97,7.43Zm8.84,7.49c-3.25,6.44-6.94,13.07-10.68,19.21l-7.55-6.02c3.25-4.54,7.92-11.97,11.66-19.15l6.57,5.96Zm-5.71-24c-2.33-1.9-7.55-5.03-10.93-7.18l5.22-6.32c3.25,1.84,8.53,4.67,11.17,6.44l-5.46,7.06Zm41.5,34.74c0,4.05-.74,6.32-3.31,7.67s-6.02,1.47-10.62,1.47c-.31-2.39-1.47-6.08-2.58-8.35,2.39,.18,5.65,.18,6.57,.18,.92-.06,1.23-.31,1.23-1.11v-6.63c-5.52,1.53-11.23,3.01-15.9,4.18l-2.09-5.89c-.18,6.38-.92,13.69-3.68,18.23-1.47-1.41-5.16-3.93-7.06-4.85,2.52-4.54,2.64-11.23,2.64-16.94v-20.13h13.01v-17.06h9.02v17.06h12.77v32.17Zm-31.24-32.78c-.68-3.07-2.95-7.8-5.22-11.36l7.55-3.32c2.33,3.32,4.85,7.8,5.77,10.93l-8.1,3.75Zm22.53,18.97v-10.31h-17.92v14.24c3.32-.62,7.67-1.6,12.22-2.64-2.76-1.72-7.98-3.99-11.97-5.16l3.68-5.34c4.11,1.04,9.64,3.13,12.52,4.85l-3.68,5.53,5.16-1.17Zm10.99-31.12c-1.9,4.42-3.99,8.72-5.71,11.6l-7.8-2.82c1.66-3.13,3.74-7.98,4.79-11.79l8.72,3.01Z"/><path class="m" d="M255.24,408.09c4.36,1.59,8.47,3.25,11.36,4.54l-6.38,5.28c-3.93-2.09-10.74-5.16-17.19-7.43l2.39-2.39h-14l4.73,2.15c-5.1,3.13-13.07,6.02-19.4,7.61-1.47-1.78-4.54-4.91-6.45-6.38,4.97-.74,10.31-1.96,14.36-3.38h-6.32v-17.68c-1.29,.25-2.64,.43-4.05,.62-.74-1.9-2.82-5.28-4.24-6.88,7-.68,11.29-1.84,13.93-3.5h-9.45c.8-3.38,1.53-8.16,1.96-12.15h11.42v-1.84h-13.44v-5.03h13.44v-2.33h8.04v2.33h5.4v-2.33h8.41v2.33h12.71v11.91h-12.71v2.09h16.7s-.06,1.35-.06,2.15c-.25,4.18-.61,6.51-1.72,7.8-.98,1.1-2.52,1.59-3.87,1.72l-.68,.06v20.75h-4.91Zm-31.98-32.47h4.42c.12-.68,.18-1.35,.25-2.09h-4.36l-.31,2.09Zm3.75,13.32v1.72h24.06v-1.72h-24.06Zm0,6.26v1.72h24.06v-1.72h-24.06Zm0,6.26v1.78h24.06v-1.78h-24.06Zm7.67-20.81c-.55,1.23-1.23,2.39-2.21,3.44h8.9v-3.44h-6.69Zm6.69-7.12h-5.4c0,.74-.06,1.41-.12,2.09h5.52v-2.09Zm-5.4-5.03h5.4v-1.84h-5.4v1.84Zm13.81-1.84v1.84h4.66v-1.84h-4.66Zm0,14v3.44h4.3c-.25-.74-.49-1.41-.8-1.96,1.29,.18,2.27,.24,2.95,.18,.49,0,.86,0,1.23-.43,.12-.24,.25-.61,.37-1.23h-8.04Z"/><path class="m" d="M331.44,364.26c-1.53,3.56-3.74,7.43-5.77,10.01,2.33,.37,4.97,.55,7.86,.61-1.72,1.66-3.81,4.91-4.79,7.12-6.75-.8-11.97-2.58-15.78-5.71-2.46,2.39-7.3,4.48-16.57,5.46h29.83v25.17h-7.37c5.03,2.03,10.25,4.36,13.5,6.01l-7.98,4.67c-3.38-2.09-9.51-5.28-15.28-7.61l3.93-3.07h-16.27l5.59,2.52c-5.09,3.44-13.14,6.63-19.46,8.41-1.6-1.78-4.66-4.97-6.63-6.51,5.46-.92,11.42-2.58,15.59-4.42h-7.55v-25.17h10.74c-.43-1.04-1.23-2.39-2.15-3.68h-16.57v-6.69h19.09v3.56c10.25-.86,11.79-2.88,11.79-4.73v-1.11h-2.21c-1.29,1.84-2.7,3.44-4.11,4.73-1.47-1.29-4.73-3.44-6.57-4.48,3.31-2.52,5.89-6.51,7.24-10.56l7.73,1.78c-.25,.74-.55,1.47-.86,2.21h15.59l1.29-.37,6.14,1.84Zm-37.44,4.11h-16.33v-6.38h16.33v6.38Zm23.2,18.54h-24.31v1.72h24.31v-1.72Zm-24.31,8.29h24.31v-1.72h-24.31v1.72Zm0,6.63h24.31v-1.78h-24.31v1.78Zm22.41-32.72v1.29c2.09,1.84,5.28,3.01,9.39,3.75l-6.02-2.27c.49-.8,1.1-1.72,1.66-2.76h-5.03Z"/><path class="m" d="M393.46,401.21v16.33h-8.35v-14.79l-16.08,2.88-.8-5.03-5.95,6.63c-.68-2.21-1.78-5.03-2.95-7.74v18.11h-8.23v-17.13c-1.41,4.73-3.44,9.21-6.14,11.97-.68-3.13-2.52-7.79-3.87-10.8,2.64-2.89,4.97-7.86,5.83-12.09l4.17,1.47v-3.07h-8.96v-8.29h8.96v-20.38h8.23v17.37c1.17-3.99,2.33-9.82,2.88-14l7.43,1.47c-1.6,5.09-3.38,10.93-4.85,14.61l-5.46-1.41v2.33h8.53v8.29h-8.53v3.31l1.96-1.47c1.29,1.53,5.52,8.1,6.81,10.31l-.43-2.82,17.43-3.13v-34.93h8.35v33.45l5.77-1.04,1.29,8.29-7.06,1.29Zm-49.17-21.97c-.06-3.93-1.1-10.07-2.52-14.67l6.14-1.53c1.6,4.6,2.76,10.56,2.95,14.55l-6.57,1.66Zm27.81-2.09c3.5,1.9,8.16,4.91,10.37,7.18l-4.48,7.12c-2.03-2.33-6.57-5.71-10.07-7.92l4.18-6.38Zm7.92-1.04c-1.84-2.39-6.14-5.77-9.52-8.04l4.3-6.02c3.38,2.03,7.8,5.1,9.82,7.37l-4.6,6.69Z"/><path class="m" d="M447.43,392.62l-7.92,6.81c-3.62-4.42-8.78-9.7-13.01-13.44l7.8-6.69c4.3,3.56,10.44,9.88,13.14,13.32Z"/><path class="m" d="M527.8,365.06v51.5h-9.82v-4.85h-30.75v4.85h-9.33v-51.5h49.91Zm-9.82,37.44v-28.36h-30.75v28.36h30.75Z"/><path class="m" d="M540.52,361.68h21.61v8.04h-7.3c-.8,3.74-1.84,7.55-3.01,11.24h9.45v29.28h-9.94v4.42h-7.24v-17.68c-.68,.92-1.35,1.84-2.09,2.64-.25-2.39-1.72-8.22-2.88-10.86,3.56-4.73,5.95-11.6,7.43-19.03h-6.02v-8.04Zm13.5,27.01h-2.7v13.81h2.7v-13.81Zm43.58,17.99h-9.64v10.93h-8.53v-10.93h-16.94v-7.61h5.89c-1.47-1.29-3.38-2.64-4.73-3.5,2.88-1.66,5.09-3.62,6.81-5.65h-6.02v-25.66h8.53c.37-1.72,.68-3.44,.8-4.91l10.5,.74c-.61,1.47-1.23,2.88-1.9,4.17h13.44v25.66h-15.59c-1.72,3.25-4.18,6.44-7.67,9.15h6.87v-7.43h8.53v7.43h9.64v7.61Zm-25.11-32.78h3.38v-2.76h-3.38v2.76Zm1.84,9.15c.37-.98,.62-1.9,.8-2.82h-2.64v2.82h1.84Zm13.01-2.82h-3.93c-.18,.92-.37,1.84-.61,2.82h4.54v-2.82Zm0-9.09h-3.44v2.76h3.44v-2.76Z"/><path class="m" d="M660.12,377.95c-.92,8.96-2.46,16.51-5.22,22.84,2.39,4.17,5.46,7.55,9.45,9.88-1.66,1.35-3.87,4.11-4.91,6.01-3.44-2.27-6.26-5.22-8.53-8.65-2.82,3.93-6.38,7.18-10.93,9.88-.43-1.04-1.41-2.7-2.45-4.17l-4.3,3.56c-2.15-1.35-4.97-2.82-8.1-4.3-4.17,1.72-9.76,3.13-17.25,4.05-.55-1.66-2.03-4.17-3.19-5.65,4.79-.55,8.65-1.23,11.79-2.03-2.46-.92-4.91-1.72-7.24-2.39,.86-.98,1.72-2.15,2.58-3.38l-4.6,.25-.61-5.77c2.64-.06,5.77-.18,9.15-.37,.68-1.04,1.29-2.15,1.84-3.25h-8.59v-11.73h10.8v-1.29h-9.15v-6.32h-4.97v-6.2h4.97v-6.14h9.15v-3.5h6.57v3.5h9.58v6.14h4.3v6.2h-4.3v6.32h-9.58v1.29h10.87v3.99c3.68-6.75,5.46-17,6.32-27.5l7.36,.98c-.37,3.38-.8,6.75-1.35,10.01h14.43v7.73h-3.87Zm-43.89,11.36h3.56v-1.35h-3.56v1.35Zm1.66-21.12v1.23h1.9v-1.23h-1.9Zm1.9,7.8v-1.35h-1.9v1.35h1.9Zm-.31,28.18c1.72,.61,3.56,1.29,5.34,1.96,1.78-1.1,2.95-2.27,3.62-3.44l-8.29,.49-.68,.98Zm16.64-1.84c-.55,2.21-1.84,4.6-4.36,6.75,1.53,.68,3.01,1.35,4.36,2.03,4.85-2.64,8.35-6.2,10.86-10.68-1.29-3.13-2.33-6.57-3.19-10.25-.55,1.23-1.17,2.39-1.84,3.44-.92-1.29-3.13-3.68-4.73-5.1v5.96h-11.97c-.49,.98-1.04,1.96-1.6,2.94l5.95-.31v-1.66h6.88v1.35l1.35-.06-.06,5.46-1.66,.12Zm-9.76-34.13v1.23h1.9v-1.23h-1.9Zm1.9,7.8v-1.35h-1.9v1.35h1.9Zm-1.9,11.97v1.35h3.19v-1.35h-3.19Zm21.79-10.01c.61,4.48,1.47,8.72,2.58,12.65,.98-3.8,1.6-8.04,2.03-12.65h-4.6Z"/><path class="m" d="M685.73,394.34v14.3c0,3.8-.55,6.01-2.64,7.36-2.03,1.35-4.85,1.66-8.78,1.66-.24-2.21-1.17-5.77-2.21-8.1,1.97,.12,3.99,.12,4.73,.12s.98-.24,.98-1.04v-12.09l-4.91,1.29-1.84-8.53c1.97-.37,4.24-.86,6.75-1.47v-9.15h-5.59v-8.16h5.59v-11.23h7.92v11.23h4.24v8.16h-4.24v7.24l3.93-.98,1.11,7.98-5.03,1.41Zm44.38,4.79c-1.66,.92-3.5,1.78-5.34,2.52,1.29,3.56,3.38,6.87,6.02,8.78-1.53,1.23-3.74,3.68-4.79,5.4-3.01-2.64-5.09-7.24-6.38-12.15l-1.66,.61c1.53,4.67,.49,9.33-1.6,11.29-1.53,1.66-3.13,2.15-5.28,2.21-.98,0-2.09,0-3.13-.06-.06-1.53-.49-3.8-1.41-5.52-2.7,1.35-5.59,2.52-8.17,3.31-.61-1.17-1.78-3.01-2.76-4.17-.8,2.27-1.78,4.36-3.07,6.2-1.35-1.29-4.73-3.62-6.51-4.42,4.6-6.75,4.97-16.63,4.97-24.25v-18.78h13.14v-10.56h8.53v2.58h13.81v6.02h-13.81v1.96h10.19l1.17-.18,5.46,.98c-.74,3.8-1.96,8.1-3.07,10.86l-6.57-1.35c.37-1.11,.74-2.58,1.04-4.18h-9.45v1.53l7.37-.61,.49,4.6-7.79,.74c.18,.68,.55,.98,1.72,.98h6.08c1.6,0,4.48-.12,5.65-.43,.12,1.84,.24,3.44,.49,5.1-1.17,.37-3.62,.43-5.65,.43h-8.29c-4.48,0-6.26-1.35-6.88-3.93l-4.97,.49-.68-6.26,5.34-.43v-2.21h-5.71v12.71c0,2.7-.06,5.77-.37,8.96,3.25-.68,6.88-1.78,9.94-3.07h-8.72v-5.52h29.89v5.52h-12.52c-1.1,.8-2.33,1.6-3.68,2.33,.98,.86,1.84,1.78,2.58,2.76,3.44-1.35,7.37-3.25,9.88-4.73l4.48,3.93Zm-18.72,5.09c-.12-.24-.24-.55-.43-.86-3.25,1.9-7.55,3.81-11.11,4.91-.49-1.11-1.53-2.76-2.46-3.81-.43,2.27-.92,4.42-1.66,6.51,5.46-1.23,12.03-3.93,15.65-6.75Zm-13.14-6.2c-.18,1.96-.43,4.05-.8,6.08,3.68-.8,8.16-2.27,11.11-3.81-.25-.24-.43-.43-.68-.61-2.46,.98-4.97,1.78-7.37,2.39-.49-1.04-1.53-3.01-2.27-4.05Zm13.44,12.89c.25-.37,.49-1.04,.55-1.96-1.47,.98-3.13,1.96-4.91,2.82,.92,.06,1.66,.12,2.33,.12,.86,0,1.53-.18,2.03-.98Z"/><path class="m" d="M773.47,392.56c-.98,7.06-3.87,11.91-12.95,14.85,3.38,.61,7.24,.74,11.42,.74,6.32,0,18.17-.68,25.17-1.84-1.04,2.46-2.58,6.94-2.7,9.39-5.22,.37-15.71,.74-22.9,.74-8.04,0-13.2-.61-17.68-2.95-2.58-1.35-4.67-3.07-5.89-3.07-1.47,0-3.87,4.11-5.4,7.18l-5.77-8.78c1.9-2.03,4.11-3.68,6.14-4.79,1.9-2.76,3.44-6.2,4.42-9.64h-8.53c1.47-3.56,3.13-8.35,4.6-13.08h-5.22v-7.92h16.27c-1.35,4.3-2.88,9.09-4.42,13.38h.25l1.29-.25,5.16,2.09c-.86,5.4-2.39,10.8-4.6,15.35,.74,.43,1.66,.98,2.7,1.53,1.23,.68,2.7,1.23,4.24,1.6-.86-1.9-2.64-4.54-4.11-5.89,7.24-1.78,9.52-4.42,10.38-8.65h-5.34v-4.6c-.43,.18-.92,.31-1.35,.49-1.17-1.9-3.44-4.79-5.16-6.26,4.73-1.17,9.51-3.13,13.07-5.52h-10.86v-6.51h15.59v-2.15c-4.05,.25-8.04,.37-11.79,.37-.18-1.66-1.04-4.42-1.78-5.95,10.56-.24,22.59-1.04,29.89-2.52l5.28,5.71c-3.93,.8-8.41,1.41-13.14,1.84v2.7h15.47v6.51h-11.05c3.44,2.03,8.04,3.68,12.59,4.54-1.72,1.53-3.99,4.48-5.16,6.44-4.3-1.35-8.41-3.74-11.85-6.57v4.17h-8.47v-3.99c-2.21,1.84-4.67,3.5-7.24,4.85h20.75c-.25,1.35-.49,2.82-.8,4.24h10.44s-.12,1.78-.24,2.7c-.43,6.69-1.17,10.07-2.64,11.6-1.29,1.35-2.95,1.84-4.85,2.03-1.66,.18-4.48,.25-7.49,.12-.12-2.03-.98-4.73-2.03-6.51,2.33,.18,4.6,.25,5.65,.25,.92,0,1.47-.06,1.97-.55,.43-.43,.8-1.47,1.1-3.56h-10.8c.37-1.17,.68-2.46,.98-3.87h-2.58Zm-28.85-20.07c-.98-2.82-3.07-7.49-4.42-10.93l7.73-2.82c1.47,3.38,3.5,7.61,4.67,10.37l-7.98,3.38Z"/><path class="m" d="M824.25,399.93c-.86-1.41-2.15-3.13-3.44-4.85v22.47h-8.72v-21.3c-2.03,1.78-4.11,3.32-6.2,4.6-.49-2.58-2.15-7.55-3.19-9.33,5.71-3.01,11.11-8.29,14.73-14.12h-12.83v-7.98h9.45c-1.1-1.9-2.52-4.05-3.81-5.77l6.81-4.18c2.09,2.33,4.3,5.53,5.34,7.8l-3.25,2.15h3.13l1.53-.31,4.67,3.38c-1.66,4.48-3.99,8.78-6.75,12.77,2.52,2.09,6.81,6.14,7.98,7.24l-5.46,7.43Zm30.08,9.7c.8,0,.98-.74,1.17-6.63,1.47,1.35,5.03,2.7,7.24,3.25-.74,8.72-2.82,11.05-7.43,11.05h-3.5c-6.14,0-7.37-2.52-7.37-9.58v-10.86h-2.45c-.74,10-3.07,16.88-15.41,20.75-.74-1.96-2.76-4.97-4.36-6.44,10.01-2.7,11.29-7.18,11.85-14.3h-3.13v-35.24h27.68v35.24h-5.95v10.8c0,1.78,.06,1.97,.68,1.97h.98Zm-15.28-38.3h11.05v-2.7h-11.05v2.7Zm0,9.27h11.05v-2.76h-11.05v2.76Zm0,9.27h11.05v-2.76h-11.05v2.76Z"/><path class="m" d="M880.8,390.22c-2.52-1.78-7.98-4.73-11.6-6.63l4.79-6.63c3.38,1.53,9.02,4.18,11.79,5.83l-4.97,7.43Zm8.84,7.49c-3.25,6.44-6.94,13.07-10.68,19.21l-7.55-6.02c3.25-4.54,7.92-11.97,11.66-19.15l6.57,5.96Zm-5.71-24c-2.33-1.9-7.55-5.03-10.93-7.18l5.22-6.32c3.25,1.84,8.53,4.67,11.17,6.44l-5.46,7.06Zm41.5,34.74c0,4.05-.74,6.32-3.32,7.67s-6.01,1.47-10.62,1.47c-.31-2.39-1.47-6.08-2.58-8.35,2.39,.18,5.65,.18,6.57,.18,.92-.06,1.23-.31,1.23-1.11v-6.63c-5.53,1.53-11.23,3.01-15.9,4.18l-2.09-5.89c-.18,6.38-.92,13.69-3.68,18.23-1.47-1.41-5.16-3.93-7.06-4.85,2.52-4.54,2.64-11.23,2.64-16.94v-20.13h13.01v-17.06h9.02v17.06h12.77v32.17Zm-31.24-32.78c-.68-3.07-2.95-7.8-5.22-11.36l7.55-3.32c2.33,3.32,4.85,7.8,5.77,10.93l-8.1,3.75Zm22.53,18.97v-10.31h-17.92v14.24c3.32-.62,7.67-1.6,12.21-2.64-2.76-1.72-7.98-3.99-11.97-5.16l3.68-5.34c4.11,1.04,9.64,3.13,12.52,4.85l-3.68,5.53,5.16-1.17Zm10.99-31.12c-1.9,4.42-3.99,8.72-5.71,11.6l-7.79-2.82c1.66-3.13,3.74-7.98,4.79-11.79l8.72,3.01Z"/><path class="m" d="M981.31,408.09c4.36,1.59,8.47,3.25,11.36,4.54l-6.38,5.28c-3.93-2.09-10.74-5.16-17.19-7.43l2.39-2.39h-14l4.73,2.15c-5.09,3.13-13.07,6.02-19.4,7.61-1.47-1.78-4.54-4.91-6.45-6.38,4.97-.74,10.31-1.96,14.36-3.38h-6.32v-17.68c-1.29,.25-2.64,.43-4.05,.62-.74-1.9-2.82-5.28-4.24-6.88,7-.68,11.29-1.84,13.93-3.5h-9.45c.8-3.38,1.53-8.16,1.96-12.15h11.42v-1.84h-13.44v-5.03h13.44v-2.33h8.04v2.33h5.4v-2.33h8.41v2.33h12.71v11.91h-12.71v2.09h16.7s-.06,1.35-.06,2.15c-.25,4.18-.62,6.51-1.72,7.8-.98,1.1-2.52,1.59-3.87,1.72l-.68,.06v20.75h-4.91Zm-31.98-32.47h4.42c.12-.68,.18-1.35,.24-2.09h-4.36l-.31,2.09Zm3.75,13.32v1.72h24.06v-1.72h-24.06Zm0,6.26v1.72h24.06v-1.72h-24.06Zm0,6.26v1.78h24.06v-1.78h-24.06Zm7.67-20.81c-.55,1.23-1.23,2.39-2.21,3.44h8.9v-3.44h-6.69Zm6.69-7.12h-5.4c0,.74-.06,1.41-.12,2.09h5.52v-2.09Zm-5.4-5.03h5.4v-1.84h-5.4v1.84Zm13.81-1.84v1.84h4.67v-1.84h-4.67Zm0,14v3.44h4.3c-.24-.74-.49-1.41-.8-1.96,1.29,.18,2.27,.24,2.95,.18,.49,0,.86,0,1.23-.43,.12-.24,.25-.61,.37-1.23h-8.04Z"/><path class="m" d="M1037,385.07c-1.84,1.41-3.81,2.76-5.77,4.05h20.62v28.3h-9.33v-1.47h-19.03v1.72h-8.9v-19.52c-2.76,1.23-5.65,2.33-8.47,3.38-1.04-1.9-3.68-5.59-5.28-7.37,7.49-2.27,14.67-5.34,21.24-9.08h-19.03v-7.8h19.03v-4.3h-13.75v-7.67h13.75v-6.01h8.84v6.01h12.28v3.19c2.21-2.39,4.17-4.97,5.95-7.61l7.67,3.93c-3.13,4.48-6.69,8.65-10.68,12.46h12.46v7.8h-21.61Zm5.53,11.29h-19.03v2.76h19.03v-2.76Zm0,12.15v-2.76h-19.03v2.76h19.03Zm-11.6-31.24h2.82c1.78-1.35,3.44-2.82,5.03-4.3h-7.86v4.3Z"/></g><g><path class="n" d="M172.05,225.72c-4.35,7.5-9.75,15.3-15.6,22.8v78.75h-21.9v-54.15c-3.3,3-6.45,6-9.6,8.55-3-4.65-10.35-14.55-14.7-19.05,15.15-10.5,31.5-27.9,41.1-44.85l20.7,7.95Zm-5.25-32.25c-11.4,14.85-28.05,30.9-42.9,41.1-2.7-4.95-8.25-13.65-12-18,12.45-7.8,26.85-21.45,33.9-31.8l21,8.7Zm86.7,61.95h-19.65v47.4c0,11.1-1.95,17.1-9.45,20.4-7.2,3.3-17.25,3.6-30,3.6-.75-6.45-3.6-16.05-6.45-22.35,7.35,.45,17.25,.45,19.95,.45s3.6-.6,3.6-2.7v-46.8h-41.1v-20.7h83.1v20.7Zm-3.75-41.7h-73.05v-20.7h73.05v20.7Z"/><path class="n" d="M403.04,304.91c0,9.45-1.65,15.15-7.8,18.3-6,3.3-14.1,3.6-25.05,3.6-.6-5.7-3.3-14.7-5.85-20.1,5.85,.45,13.2,.45,15.45,.3,2.1,0,2.85-.6,2.85-2.55v-14.25c-11.4,3.15-22.95,6-32.55,8.4l-3.45-9.75c-.75,14.25-2.85,29.7-8.85,39.75-3.6-3.45-12.6-9.6-17.25-11.85,1.05-1.8,1.8-3.75,2.55-5.7-18.6,4.35-37.95,8.7-53.25,12.15l-4.35-19.65c6.15-.75,13.65-1.8,22.2-3v-34.2h-19.65v-18.3h19.65v-7.95h-10.35v-2.7c-1.5,1.5-3.15,3-4.65,4.35-1.2-4.95-6-17.25-9-22.65,10.5-8.55,21-21.9,27.15-35.7l18.75,6.75c-.75,1.5-1.5,3.15-2.25,4.8,8.1,6.45,17.55,14.1,22.5,19.05l-12.15,16.8c-.9-1.05-1.95-2.25-3.15-3.45v12.75h-8.1v7.95h15v18.3h-15v25.8c1.8-6.6,3.6-16.2,4.35-22.95l16.05,3.75c-2.85,8.1-5.4,16.8-7.5,22.8l3.15-.45,1.05,14.55c3.3-10.35,3.45-23.25,3.45-34.5v-49.2h27.75v-41.25h20.85v41.25h27.45v78.75Zm-121.04-34.5c2.25,7.8,4.5,18,5.55,24.6l-14.7,4.2c-.6-6.9-2.7-17.25-4.65-25.2l13.8-3.6Zm27.15-48.3c-3.6-3.3-7.5-6.9-11.4-10.35-2.25,3.6-4.65,7.05-7.05,10.35h18.45Zm-2.7,75.6l9.9-1.5-9.9-2.7v4.2Zm27.75-72.9c-1.5-7.5-6.6-19.05-11.7-27.75l17.4-8.25c5.55,8.25,11.1,19.2,13.05,26.85l-18.75,9.15Zm12.75,20.1v15.15l7.8-11.25c9.15,2.1,21.45,6.75,27.9,10.5v-14.4h-35.7Zm0,35.55c9.75-1.95,22.65-4.8,35.7-7.8v-13.05l-9.45,14.25c-5.55-3.9-16.95-8.85-26.25-11.85v18.45Zm61.35-85.8c-4.35,10.8-9.15,21.3-13.05,28.5l-18.3-6.6c3.75-7.65,8.55-19.65,10.95-28.8l20.4,6.9Z"/><path class="n" d="M551.69,230.37c-2.4,21.6-6.45,39.6-13.35,54.45,6.3,10.8,14.25,19.65,24.75,25.5-4.35,3.6-10.65,11.4-13.5,16.8-9.15-6.15-16.5-14.25-22.2-24-7.95,10.2-18.15,18.3-31.35,24.9-.9-2.25-3-6-5.4-9.45l-4.65,4.2c-4.8-2.7-10.8-5.4-17.4-8.1-9.75,5.1-23.85,9.6-43.65,12.45-1.35-4.05-5.25-10.35-8.25-13.8,12.9-1.65,22.8-3.9,30.6-6.45-4.2-1.35-8.4-2.55-12.6-3.75l-7.5-1.8c2.55-3.15,5.4-6.75,8.1-10.65h-14.25v-14.25h23.4c.9-1.65,1.95-3.3,2.85-4.95h-20.25v-28.05h25.95v-3.15h-23.85v-16.2h-10.65v-15.15h10.65v-15.6h23.85v-8.55h16.05v8.55h25.5v15.6h7.65v15.15h-7.65v16.2h-25.5v3.15h27v4.5c7.65-16.95,13.05-40.5,16.5-63.3l17.85,3.3c-1.35,7.8-3,15.75-4.8,23.55h35.4v18.9h-9.3Zm-106.95,29.4h8.25v-4.65h-8.25v4.65Zm.3-53.25v3.6h7.95v-3.6h-7.95Zm7.95,20.4v-4.05h-7.95v4.05h7.95Zm-.15,66.45c4.35,1.2,8.7,2.55,13.05,4.05,2.55-2.25,4.35-4.5,5.55-6.75h-16.65l-1.95,2.7Zm36.6-2.7c-1.05,4.2-3,8.7-6.6,12.9,3.9,1.5,7.5,3,10.95,4.5,10.65-6,18.75-13.95,24.75-23.7-3-7.95-5.4-16.65-7.5-25.95-1.5,3.75-3.15,7.35-4.95,10.65-2.1-2.7-6.45-7.2-10.05-10.65v13.05h-30.15c-.75,1.65-1.65,3.3-2.55,4.95h10.35v-3.3h16.8v3.3h10.95v14.25h-12Zm-20.4-84.15v3.6h8.55v-3.6h-8.55Zm8.55,20.4v-4.05h-8.55v4.05h8.55Zm-8.55,28.2v4.65h8.25v-4.65h-8.25Zm52.5-24.75c1.65,10.65,3.75,21,6.75,30.6,2.4-9.15,4.05-19.35,5.1-30.6h-11.85Z"/><path class="n" d="M605.85,270.41v34.95c0,9.3-1.35,14.7-6.45,18-4.95,3.3-11.85,4.05-21.45,4.05-.6-5.4-2.85-14.1-5.4-19.8,4.8,.3,9.75,.3,11.55,.3s2.4-.6,2.4-2.55v-29.55l-12,3.15-4.5-20.85c4.8-.9,10.35-2.1,16.5-3.6v-22.35h-13.65v-19.95h13.65v-27.45h19.35v27.45h10.35v19.95h-10.35v17.7l9.6-2.4,2.7,19.5-12.3,3.45Zm108.45,11.7c-4.05,2.25-8.55,4.35-13.05,6.15,3.15,8.7,8.25,16.8,14.7,21.45-3.75,3-9.15,9-11.7,13.2-7.35-6.45-12.45-17.7-15.6-29.7l-4.05,1.5c3.75,11.4,1.2,22.8-3.9,27.6-3.75,4.05-7.65,5.25-12.9,5.4-2.4,0-5.1,0-7.65-.15-.15-3.75-1.2-9.3-3.45-13.5-6.6,3.3-13.65,6.15-19.95,8.1-1.5-2.85-4.35-7.35-6.75-10.2-1.95,5.55-4.35,10.65-7.5,15.15-3.3-3.15-11.55-8.85-15.9-10.8,11.25-16.5,12.15-40.65,12.15-59.25v-45.9h32.1v-25.8h20.85v6.3h33.75v14.7h-33.75v4.8h24.9l2.85-.45,13.35,2.4c-1.8,9.3-4.8,19.8-7.5,26.55l-16.05-3.3c.9-2.7,1.8-6.3,2.55-10.2h-23.1v3.75l18-1.5,1.2,11.25-19.05,1.8c.45,1.65,1.35,2.4,4.2,2.4h14.85c3.9,0,10.95-.3,13.8-1.05,.3,4.5,.6,8.4,1.2,12.45-2.85,.9-8.85,1.05-13.8,1.05h-20.25c-10.95,0-15.3-3.3-16.8-9.6l-12.15,1.2-1.65-15.3,13.05-1.05v-5.4h-13.95v31.05c0,6.6-.15,14.1-.9,21.9,7.95-1.65,16.8-4.35,24.3-7.5h-21.3v-13.5h73.05v13.5h-30.6c-2.7,1.95-5.7,3.9-9,5.7,2.4,2.1,4.5,4.35,6.3,6.75,8.4-3.3,18-7.95,24.15-11.55l10.95,9.6Zm-45.75,12.45c-.3-.6-.6-1.35-1.05-2.1-7.95,4.65-18.45,9.3-27.15,12-1.2-2.7-3.75-6.75-6-9.3-1.05,5.55-2.25,10.8-4.05,15.9,13.35-3,29.4-9.6,38.25-16.5Zm-32.1-15.15c-.45,4.8-1.05,9.9-1.95,14.85,9-1.95,19.95-5.55,27.15-9.3-.6-.6-1.05-1.05-1.65-1.5-6,2.4-12.15,4.35-18,5.85-1.2-2.55-3.75-7.35-5.55-9.9Zm32.85,31.5c.6-.9,1.2-2.55,1.35-4.8-3.6,2.4-7.65,4.8-12,6.9,2.25,.15,4.05,.3,5.7,.3,2.1,0,3.75-.45,4.95-2.4Z"/><path class="n" d="M825.45,187.02c6.6,21,21.45,42,43.65,52.8-4.65,4.65-12,14.25-15.45,20.4-3.15-1.95-6.3-4.2-9.15-6.45-1.35,40.8-3,57.75-7.95,63.9-4.35,5.7-8.85,7.35-15,8.4-5.25,.9-13.65,.9-22.2,.75-.3-6.45-3.3-15.9-7.2-22.05,7.5,.6,14.55,.75,18.3,.75,2.55,0,4.2-.45,6-2.25,2.7-3,4.05-15.45,5.1-43.2h-24.6c-3.6,28.35-13.5,53.4-53.1,68.4-2.7-6.15-9-15.45-14.25-20.25,32.85-10.8,40.65-28.35,43.5-48.15h-22.5v-9.45c-3.3,3.6-6.75,7.05-10.2,10.05-3.9-4.35-13.2-12.6-18.3-16.35,16.5-11.85,29.7-32.25,36.45-54.3l23.1,5.55c-5.25,15.75-12.9,30.75-21.9,43.35h69.45c-8.4-9.9-15.15-20.85-19.95-31.8h-22.2v-20.1h38.4Z"/><path class="n" d="M927,283.31c-1.8-4.2-4.35-9.6-7.2-15v58.95h-20.85v-50.85c-3.75,10.2-8.25,19.35-13.2,26.1-1.95-6.15-6.75-15-10.05-20.55,9-11.4,16.8-29.85,20.85-46.35h-16.5v-20.55h18.9v-30.3h20.85v30.3h19.8v20.55h-19.8v4.35c5.7,7.05,16.8,22.35,19.35,26.25l-12.15,17.1Zm93.15-27.75h-17.85v71.55h-21.6v-71.55h-15.6c-.75,23.25-4.5,52.35-17.25,71.25-3.9-3.3-13.05-8.85-18.15-10.8,13.95-20.1,15-49.65,15-71.1v-43.5c18.15-3.45,37.2-9,49.5-15.15l18.3,17.25c-14.1,6-31.05,10.35-47.25,13.5v18h54.9v20.55Z"/></g></g></g></g><g id="g"/></g></svg>