<?xml version="1.0" encoding="UTF-8"?><svg xmlns="http://www.w3.org/2000/svg" xmlns:xlink="http://www.w3.org/1999/xlink" viewBox="0 0 1240 459"><defs><style>.cls-1,.cls-2{fill:none;}.cls-3{clip-path:url(#clippath);}.cls-4{fill:#eaeaea;}.cls-5{fill:#ffd400;}.cls-6{fill:url(#_命名漸層_44-2);stroke:url(#_命名漸層_17-2);}.cls-6,.cls-7{mix-blend-mode:overlay;opacity:.52;stroke-miterlimit:10;stroke-width:.62px;}.cls-8{clip-path:url(#clippath-1);}.cls-7{fill:url(#_命名漸層_44);stroke:url(#_命名漸層_17);}.cls-9{isolation:isolate;}.cls-2{stroke:#eaeaea;}</style><linearGradient id="_命名漸層_44" x1="281.49" y1="234.5" x2="471.77" y2="234.5" gradientTransform="translate(445.56 -203.78) rotate(67.03)" gradientUnits="userSpaceOnUse"><stop offset="0" stop-color="aqua" stop-opacity=".03"/><stop offset="1" stop-color="aqua"/></linearGradient><linearGradient id="_命名漸層_17" x1="281.08" y1="234.5" x2="472.18" y2="234.5" gradientTransform="translate(445.56 -203.78) rotate(67.03)" gradientUnits="userSpaceOnUse"><stop offset="0" stop-color="#fff"/><stop offset="1" stop-color="aqua"/></linearGradient><linearGradient id="_命名漸層_44-2" x1="711.55" y1="229.5" x2="901.83" y2="229.5" gradientTransform="translate(703.17 -602.78) rotate(67.03)" xlink:href="#_命名漸層_44"/><linearGradient id="_命名漸層_17-2" x1="711.14" y1="229.5" x2="902.23" y2="229.5" gradientTransform="translate(703.17 -602.78) rotate(67.03)" xlink:href="#_命名漸層_17"/><clipPath id="clippath"><polygon class="cls-1" points="467.18 14.5 336.93 321.77 306.61 184.06 306.61 14.5 467.18 14.5"/></clipPath><clipPath id="clippath-1"><polygon class="cls-1" points="894.08 14.5 763.83 321.77 733.5 184.06 733.5 14.5 894.08 14.5"/></clipPath></defs><g class="cls-9"><g id="_層_1"><rect class="cls-1" x="1314.54" y="-365.39" width="2502.11" height="3293.04" transform="translate(3846.73 -1284.47) rotate(90)"/><rect class="cls-7" x="138.74" y="232.01" width="475.79" height="4.99" transform="translate(13.74 489.75) rotate(-67.03)"/><rect class="cls-6" x="568.79" y="227.01" width="475.79" height="4.98" transform="translate(280.57 882.66) rotate(-67.03)"/><g><path class="cls-5" d="M92.32,135.4c-1.04,1.8-2.34,3.67-3.74,5.47v18.9h-5.26v-12.99c-.79,.72-1.55,1.44-2.3,2.05-.72-1.12-2.48-3.49-3.53-4.57,3.64-2.52,7.56-6.7,9.86-10.76l4.97,1.91Zm-1.26-7.74c-2.74,3.56-6.73,7.42-10.29,9.86-.65-1.19-1.98-3.28-2.88-4.32,2.99-1.87,6.44-5.15,8.14-7.63l5.04,2.09Zm20.81,14.87h-4.72v11.37c0,2.66-.47,4.1-2.27,4.9-1.73,.79-4.14,.86-7.2,.86-.18-1.55-.86-3.85-1.55-5.36,1.76,.11,4.14,.11,4.79,.11s.86-.14,.86-.65v-11.23h-9.86v-4.97h19.94v4.97Zm-.9-10.01h-17.53v-4.97h17.53v4.97Z"/><path class="cls-5" d="M147.04,154.41c0,2.27-.4,3.64-1.87,4.39-1.44,.79-3.38,.86-6.01,.86-.14-1.37-.79-3.53-1.4-4.82,1.4,.11,3.17,.11,3.71,.07,.5,0,.68-.14,.68-.61v-3.42c-2.74,.76-5.51,1.44-7.81,2.02l-.83-2.34c-.18,3.42-.68,7.13-2.12,9.54-.86-.83-3.02-2.3-4.14-2.84,.25-.43,.43-.9,.61-1.37-4.46,1.04-9.11,2.09-12.78,2.92l-1.04-4.72c1.48-.18,3.28-.43,5.33-.72v-8.21h-4.72v-4.39h4.72v-1.91h-2.48v-.65c-.36,.36-.76,.72-1.12,1.04-.29-1.19-1.44-4.14-2.16-5.44,2.52-2.05,5.04-5.26,6.52-8.57l4.5,1.62c-.18,.36-.36,.76-.54,1.15,1.94,1.55,4.21,3.38,5.4,4.57l-2.92,4.03c-.22-.25-.47-.54-.76-.83v3.06h-1.94v1.91h3.6v4.39h-3.6v6.19c.43-1.58,.86-3.89,1.04-5.51l3.85,.9c-.68,1.94-1.3,4.03-1.8,5.47l.76-.11,.25,3.49c.79-2.48,.83-5.58,.83-8.28v-11.81h6.66v-9.9h5v9.9h6.59v18.9Zm-29.05-8.28c.54,1.87,1.08,4.32,1.33,5.9l-3.53,1.01c-.14-1.66-.65-4.14-1.12-6.05l3.31-.86Zm6.52-11.59c-.86-.79-1.8-1.66-2.74-2.48-.54,.86-1.12,1.69-1.69,2.48h4.43Zm-.65,18.14l2.38-.36-2.38-.65v1.01Zm6.66-17.49c-.36-1.8-1.58-4.57-2.81-6.66l4.18-1.98c1.33,1.98,2.66,4.61,3.13,6.44l-4.5,2.2Zm3.06,4.82v3.64l1.87-2.7c2.2,.5,5.15,1.62,6.7,2.52v-3.46h-8.57Zm0,8.53c2.34-.47,5.44-1.15,8.57-1.87v-3.13l-2.27,3.42c-1.33-.94-4.07-2.12-6.3-2.84v4.43Zm14.72-20.59c-1.04,2.59-2.2,5.11-3.13,6.84l-4.39-1.58c.9-1.84,2.05-4.72,2.63-6.91l4.9,1.66Z"/><path class="cls-5" d="M182,136.52c-.58,5.18-1.55,9.5-3.2,13.07,1.51,2.59,3.42,4.72,5.94,6.12-1.04,.86-2.56,2.74-3.24,4.03-2.2-1.48-3.96-3.42-5.33-5.76-1.91,2.45-4.36,4.39-7.52,5.98-.22-.54-.72-1.44-1.3-2.27l-1.12,1.01c-1.15-.65-2.59-1.3-4.18-1.94-2.34,1.22-5.72,2.3-10.47,2.99-.32-.97-1.26-2.48-1.98-3.31,3.1-.4,5.47-.94,7.34-1.55-1.01-.32-2.02-.61-3.02-.9l-1.8-.43c.61-.76,1.3-1.62,1.94-2.56h-3.42v-3.42h5.62c.22-.4,.47-.79,.68-1.19h-4.86v-6.73h6.23v-.76h-5.72v-3.89h-2.56v-3.64h2.56v-3.74h5.72v-2.05h3.85v2.05h6.12v3.74h1.84v3.64h-1.84v3.89h-6.12v.76h6.48v1.08c1.84-4.07,3.13-9.72,3.96-15.19l4.28,.79c-.32,1.87-.72,3.78-1.15,5.65h8.5v4.54h-2.23Zm-25.66,7.06h1.98v-1.12h-1.98v1.12Zm.07-12.78v.86h1.91v-.86h-1.91Zm1.91,4.9v-.97h-1.91v.97h1.91Zm-.04,15.95c1.04,.29,2.09,.61,3.13,.97,.61-.54,1.04-1.08,1.33-1.62h-4l-.47,.65Zm8.78-.65c-.25,1.01-.72,2.09-1.58,3.1,.94,.36,1.8,.72,2.63,1.08,2.56-1.44,4.5-3.35,5.94-5.69-.72-1.91-1.3-4-1.8-6.23-.36,.9-.76,1.76-1.19,2.56-.5-.65-1.55-1.73-2.41-2.56v3.13h-7.24c-.18,.4-.4,.79-.61,1.19h2.48v-.79h4.03v.79h2.63v3.42h-2.88Zm-4.9-20.19v.86h2.05v-.86h-2.05Zm2.05,4.9v-.97h-2.05v.97h2.05Zm-2.05,6.77v1.12h1.98v-1.12h-1.98Zm12.6-5.94c.4,2.56,.9,5.04,1.62,7.34,.58-2.2,.97-4.64,1.22-7.34h-2.84Z"/><path class="cls-5" d="M194.28,146.13v8.39c0,2.23-.32,3.53-1.55,4.32-1.19,.79-2.84,.97-5.15,.97-.14-1.3-.68-3.38-1.3-4.75,1.15,.07,2.34,.07,2.77,.07s.58-.14,.58-.61v-7.09l-2.88,.76-1.08-5c1.15-.22,2.48-.5,3.96-.86v-5.36h-3.28v-4.79h3.28v-6.59h4.64v6.59h2.48v4.79h-2.48v4.25l2.3-.58,.65,4.68-2.95,.83Zm26.02,2.81c-.97,.54-2.05,1.04-3.13,1.48,.76,2.09,1.98,4.03,3.53,5.15-.9,.72-2.2,2.16-2.81,3.17-1.76-1.55-2.99-4.25-3.74-7.13l-.97,.36c.9,2.74,.29,5.47-.94,6.62-.9,.97-1.84,1.26-3.1,1.3-.58,0-1.22,0-1.84-.04-.04-.9-.29-2.23-.83-3.24-1.58,.79-3.28,1.48-4.79,1.94-.36-.68-1.04-1.76-1.62-2.45-.47,1.33-1.04,2.56-1.8,3.64-.79-.76-2.77-2.12-3.82-2.59,2.7-3.96,2.92-9.75,2.92-14.22v-11.01h7.7v-6.19h5v1.51h8.1v3.53h-8.1v1.15h5.98l.68-.11,3.2,.58c-.43,2.23-1.15,4.75-1.8,6.37l-3.85-.79c.22-.65,.43-1.51,.61-2.45h-5.54v.9l4.32-.36,.29,2.7-4.57,.43c.11,.4,.32,.58,1.01,.58h3.56c.94,0,2.63-.07,3.31-.25,.07,1.08,.14,2.02,.29,2.99-.68,.22-2.12,.25-3.31,.25h-4.86c-2.63,0-3.67-.79-4.03-2.3l-2.92,.29-.4-3.67,3.13-.25v-1.3h-3.35v7.45c0,1.58-.04,3.38-.22,5.26,1.91-.4,4.03-1.04,5.83-1.8h-5.11v-3.24h17.53v3.24h-7.34c-.65,.47-1.37,.94-2.16,1.37,.58,.5,1.08,1.04,1.51,1.62,2.02-.79,4.32-1.91,5.8-2.77l2.63,2.3Zm-10.98,2.99c-.07-.14-.14-.32-.25-.5-1.91,1.12-4.43,2.23-6.52,2.88-.29-.65-.9-1.62-1.44-2.23-.25,1.33-.54,2.59-.97,3.82,3.2-.72,7.06-2.3,9.18-3.96Zm-7.7-3.64c-.11,1.15-.25,2.38-.47,3.56,2.16-.47,4.79-1.33,6.52-2.23-.14-.14-.25-.25-.4-.36-1.44,.58-2.92,1.04-4.32,1.4-.29-.61-.9-1.76-1.33-2.38Zm7.88,7.56c.14-.22,.29-.61,.32-1.15-.86,.58-1.84,1.15-2.88,1.66,.54,.04,.97,.07,1.37,.07,.5,0,.9-.11,1.19-.58Z"/><path class="cls-5" d="M254.75,126.51v33.26h-4.97v-1.69h-21.42v1.69h-4.72v-33.26h31.1Zm-4.97,27.68v-23.79h-21.42v23.79h21.42Zm-2.52-7.38h1.94v2.7h-4.36v1.66c0,1.58-.32,2.09-1.44,2.41-1.08,.36-2.56,.36-4.5,.36-.18-.9-.61-1.84-.97-2.56,.76,.04,1.87,.04,2.2,.04s.47-.11,.47-.43v-1.48h-5.11c.72,.83,1.48,1.87,1.84,2.59l-3.46,1.66c-.36-.86-1.26-2.23-2.05-3.2l2.27-1.04h-5.33v-2.7h11.84v-.72c-4.07,.14-7.96,.25-11.09,.29l-.14-2.63c2.09,0,4.68,.04,7.49,.04v-.83h-6.84v-7.45h6.84v-.79h-7.59v-2.74h7.59v-1.08h4.21v1.08h7.67v2.74h-7.67v.79h6.91v7.45h-1.22c1.01,.79,1.91,1.73,2.48,2.41l-1.98,1.44Zm-13.32-8.53h2.92v-.79h-2.92v.79Zm2.92,2.7v-.83h-2.92v.83h2.92Zm4.21-3.49v.79h2.81v-.79h-2.81Zm0,2.66v.83h2.81v-.83h-2.81Zm0,2.81v.83l1.98-.04-.07-.04,1.15-.76h-3.06Zm3.78,3.85h1.33c-.25-.29-.5-.58-.79-.86l-.54,.04v.83Z"/><path class="cls-5" d="M271.39,128.85c-.86,3.17-1.98,7.23-2.92,10.01,1.98,2.66,2.34,5.04,2.34,7.06,0,2.52-.5,4.03-1.73,4.9-.61,.43-1.33,.68-2.16,.83-.61,.07-1.44,.11-2.3,.11-.04-.9-.22-2.16-.58-3.24v11.3h-4.54v-32.68h7.74l.72-.18,3.42,1.91Zm-7.34,18.5h.76c.36,0,.68-.07,.94-.29,.36-.29,.5-.86,.5-1.84,0-1.51-.36-3.64-2.09-5.83,.54-2.12,1.19-5.18,1.66-7.63h-1.76v15.59Zm28.11-7.63c-1.22,.76-2.59,1.55-3.92,2.23,1.12,3.38,3.06,7.09,4.97,9.36-1.04,.76-2.56,2.3-3.31,3.35-1.73-2.3-3.46-5.76-4.75-9.21,1.04,5.04,.29,9.97-1.44,11.81-1.26,1.62-2.63,2.12-4.68,2.16-.83,0-1.91,0-2.95-.07-.07-1.33-.43-3.24-1.26-4.61,1.26,.14,2.45,.18,3.31,.18s1.37-.18,1.84-1.12c.4-.54,.72-1.66,.83-3.13-2.59,1.84-5.69,3.49-8.35,4.5-.72-1.15-1.94-2.7-3.06-3.64,3.92-1.01,8.57-3.35,11.09-5.69l-.32-1.4c-1.98,1.51-4.46,3.02-6.44,4-.61-1.08-1.76-2.74-2.74-3.64,2.56-.79,5.87-2.45,7.7-3.96-.29-.5-.58-.97-.94-1.44-1.73,1.15-3.56,2.16-5.29,2.95-.61-.94-2.05-2.81-2.95-3.67,2.27-.79,4.57-1.87,6.55-3.17h-5.11v-4.46h4.97c-.83-1.08-1.94-2.23-2.99-3.13l3.82-2.34c1.66,1.22,3.38,2.95,4.25,4.28l-1.73,1.19h2.77c1.08-1.51,2.34-3.71,2.99-5.4l5,1.4c-.9,1.44-1.84,2.84-2.7,4h4.54v4.46h-9.32c-.43,.47-.9,.9-1.4,1.33,.83,.97,1.55,2.05,2.12,3.17,2.05-1.15,4.25-2.56,5.72-3.78l3.2,3.49Z"/></g><g><path class="cls-5" d="M498.28,128.78c-.9,2.3-2.27,5.18-3.28,7.16h1.48v4.93h-5.33c0,1.19-.04,2.45-.14,3.67h6.7v4.82h-7.42c-1.04,4.25-3.13,8.17-7.34,10.73-.79-1.12-2.7-2.99-3.89-3.85,2.92-1.73,4.61-4.21,5.58-6.88h-6.08v-4.82h7.16c.11-1.26,.18-2.48,.18-3.67h-6.3v-4.93h2.41c-.5-1.84-1.76-4.68-2.81-6.84l4.28-1.62c.83,1.55,1.73,3.42,2.41,5.04v-6.77h5.26v7.31c.9-1.73,1.8-3.85,2.45-5.65l4.68,1.37Zm-16.2,7.16h3.82v-1.62l-3.82,1.62Zm11.63,0c-.79-.4-1.76-.83-2.56-1.15v1.15h2.56Zm9.9,14.65h-5.08v-20.59h5.08v20.59Zm7.27-24.23v27.28c0,2.92-.54,4.32-2.2,5.18-1.69,.83-4.28,1.01-7.59,1.01-.22-1.51-1.04-3.96-1.8-5.44,2.27,.11,4.64,.11,5.44,.11,.68,0,.97-.22,.97-.9v-27.25h5.18Z"/><path class="cls-5" d="M526.22,135.62h-12.17v-4.07h5.11c-.72-1.3-1.76-2.88-2.7-4.07l4.43-1.73c1.33,1.51,2.74,3.53,3.42,4.93l-1.91,.86h3.82v4.07Zm-.43,9.93h-10.73v-3.89h10.73v3.89Zm16.7,8.75c2.05,.76,4.14,1.55,5.51,2.12l-2.59,3.35c-1.73-.86-4.68-2.16-7.24-3.13l1.62-2.34h-5.83l2.66,1.69c-1.98,1.51-5.4,3.06-8.21,3.78-.76-.83-2.12-2.16-3.17-2.95v1.04h-5.8v1.37h-4.03v-12.49h9.83v10.01c2.2-.54,4.57-1.48,6.26-2.45h-3.13v-10.98h18.03v10.98h-3.92Zm-26.92-13.71v-3.89h9.75v3.89h-9.75Zm5.54,10.19h-1.66v3.06h1.66v-3.06Zm13.39-20.66h-7.42v-3.13h7.42v-1.4h5.11v1.4h7.92v3.13h-7.92v.94h6.98v2.92h-18.32v-2.92h6.23v-.94Zm-7.34,4.61h20.23v7.92h-20.23v-7.92Zm4.03,5.51h1.91v-3.06h-1.91v3.06Zm1.8,6.44h8.6v-.79h-8.6v.79Zm0,2.56h8.6v-.83h-8.6v.83Zm0,2.56h8.6v-.86h-8.6v.86Zm5.11-11.55v-3.06h-1.94v3.06h1.94Zm5-3.06h-1.91v3.06h1.91v-3.06Z"/><path class="cls-5" d="M582.02,136.52c-.58,5.18-1.55,9.5-3.2,13.07,1.51,2.59,3.42,4.72,5.94,6.12-1.04,.86-2.56,2.74-3.24,4.03-2.2-1.48-3.96-3.42-5.33-5.76-1.91,2.45-4.36,4.39-7.52,5.98-.22-.54-.72-1.44-1.3-2.27l-1.12,1.01c-1.15-.65-2.59-1.3-4.18-1.94-2.34,1.22-5.72,2.3-10.47,2.99-.32-.97-1.26-2.48-1.98-3.31,3.1-.4,5.47-.94,7.34-1.55-1.01-.32-2.02-.61-3.02-.9l-1.8-.43c.61-.76,1.3-1.62,1.94-2.56h-3.42v-3.42h5.62c.22-.4,.47-.79,.68-1.19h-4.86v-6.73h6.23v-.76h-5.72v-3.89h-2.56v-3.64h2.56v-3.74h5.72v-2.05h3.85v2.05h6.12v3.74h1.84v3.64h-1.84v3.89h-6.12v.76h6.48v1.08c1.84-4.07,3.13-9.72,3.96-15.19l4.28,.79c-.32,1.87-.72,3.78-1.15,5.65h8.5v4.54h-2.23Zm-25.66,7.06h1.98v-1.12h-1.98v1.12Zm.07-12.78v.86h1.91v-.86h-1.91Zm1.91,4.9v-.97h-1.91v.97h1.91Zm-.04,15.95c1.04,.29,2.09,.61,3.13,.97,.61-.54,1.04-1.08,1.33-1.62h-4l-.47,.65Zm8.78-.65c-.25,1.01-.72,2.09-1.58,3.1,.94,.36,1.8,.72,2.63,1.08,2.56-1.44,4.5-3.35,5.94-5.69-.72-1.91-1.3-4-1.8-6.23-.36,.9-.76,1.76-1.19,2.56-.5-.65-1.55-1.73-2.41-2.56v3.13h-7.24c-.18,.4-.4,.79-.61,1.19h2.48v-.79h4.03v.79h2.63v3.42h-2.88Zm-4.9-20.19v.86h2.05v-.86h-2.05Zm2.05,4.9v-.97h-2.05v.97h2.05Zm-2.05,6.77v1.12h1.98v-1.12h-1.98Zm12.6-5.94c.4,2.56,.9,5.04,1.62,7.34,.58-2.2,.97-4.64,1.22-7.34h-2.84Z"/><path class="cls-5" d="M594.29,146.13v8.39c0,2.23-.32,3.53-1.55,4.32-1.19,.79-2.84,.97-5.15,.97-.14-1.3-.68-3.38-1.3-4.75,1.15,.07,2.34,.07,2.77,.07s.58-.14,.58-.61v-7.09l-2.88,.76-1.08-5c1.15-.22,2.48-.5,3.96-.86v-5.36h-3.28v-4.79h3.28v-6.59h4.64v6.59h2.48v4.79h-2.48v4.25l2.3-.58,.65,4.68-2.95,.83Zm26.02,2.81c-.97,.54-2.05,1.04-3.13,1.48,.76,2.09,1.98,4.03,3.53,5.15-.9,.72-2.2,2.16-2.81,3.17-1.76-1.55-2.99-4.25-3.74-7.13l-.97,.36c.9,2.74,.29,5.47-.94,6.62-.9,.97-1.84,1.26-3.1,1.3-.58,0-1.22,0-1.84-.04-.04-.9-.29-2.23-.83-3.24-1.58,.79-3.28,1.48-4.79,1.94-.36-.68-1.04-1.76-1.62-2.45-.47,1.33-1.04,2.56-1.8,3.64-.79-.76-2.77-2.12-3.82-2.59,2.7-3.96,2.92-9.75,2.92-14.22v-11.01h7.7v-6.19h5v1.51h8.1v3.53h-8.1v1.15h5.98l.68-.11,3.2,.58c-.43,2.23-1.15,4.75-1.8,6.37l-3.85-.79c.22-.65,.43-1.51,.61-2.45h-5.54v.9l4.32-.36,.29,2.7-4.57,.43c.11,.4,.32,.58,1.01,.58h3.56c.94,0,2.63-.07,3.31-.25,.07,1.08,.14,2.02,.29,2.99-.68,.22-2.12,.25-3.31,.25h-4.86c-2.63,0-3.67-.79-4.03-2.3l-2.92,.29-.4-3.67,3.13-.25v-1.3h-3.35v7.45c0,1.58-.04,3.38-.22,5.26,1.91-.4,4.03-1.04,5.83-1.8h-5.11v-3.24h17.53v3.24h-7.34c-.65,.47-1.37,.94-2.16,1.37,.58,.5,1.08,1.04,1.51,1.62,2.02-.79,4.32-1.91,5.8-2.77l2.63,2.3Zm-10.98,2.99c-.07-.14-.14-.32-.25-.5-1.91,1.12-4.43,2.23-6.52,2.88-.29-.65-.9-1.62-1.44-2.23-.25,1.33-.54,2.59-.97,3.82,3.2-.72,7.06-2.3,9.18-3.96Zm-7.7-3.64c-.11,1.15-.25,2.38-.47,3.56,2.16-.47,4.79-1.33,6.52-2.23-.14-.14-.25-.25-.4-.36-1.44,.58-2.92,1.04-4.32,1.4-.29-.61-.9-1.76-1.33-2.38Zm7.88,7.56c.14-.22,.29-.61,.32-1.15-.86,.58-1.84,1.15-2.88,1.66,.54,.04,.97,.07,1.37,.07,.5,0,.9-.11,1.19-.58Z"/><path class="cls-5" d="M635.05,145.52c-1.19,.32-2.38,.61-3.6,.94v7.7c0,2.38-.4,3.64-1.76,4.43-1.37,.79-3.24,.94-5.87,.94-.14-1.33-.79-3.42-1.4-4.75,1.26,.04,2.74,.04,3.2,.04,.5,0,.68-.18,.68-.68v-6.41l-3.06,.72-1.3-5c1.26-.22,2.74-.54,4.36-.86v-5.54h-3.89v-4.82h3.89v-6.62h5.15v6.62h3.31v4.82h-3.31v4.39l2.95-.68,.65,4.79Zm20.48-5.44c-1.3,5.08-3.46,9-6.41,12.09,2.23,1.37,4.82,2.45,7.81,3.13-1.12,1.04-2.59,3.17-3.31,4.5-3.38-.97-6.23-2.38-8.68-4.21-2.63,1.76-5.65,3.06-9.07,4.07-.54-1.37-1.76-3.6-2.77-4.72,2.99-.65,5.65-1.66,7.99-3.02-1.87-2.23-3.42-4.82-4.68-7.81l1.66-.47h-2.3v-4.72h6.77v-3.71h-7.34v-4.79h7.34v-4.86h5.18v4.86h7.77v4.79h-7.77v3.71h3.56l.86-.18,3.38,1.33Zm-14.04,3.56c.94,1.94,2.12,3.71,3.6,5.29,1.58-1.51,2.88-3.28,3.85-5.29h-7.45Z"/><path class="cls-5" d="M672.16,146.17l.47,5c-4.72,1.04-9.83,2.05-13.82,2.84l-1.15-5.4c1.44-.18,3.13-.47,4.97-.76v-12.63h-4.39v-5.18h13.32v5.18h-3.64v11.7l4.25-.76Zm9.47-13.28c-.36,2.09-.76,4.21-1.19,6.16h10.87l-.11,2.23c-.47,9.93-1.04,14.07-2.52,15.8-1.3,1.48-2.66,1.87-4.64,2.09-1.58,.18-4.25,.14-6.84,.07-.07-1.58-1.01-3.89-2.16-5.4,2.84,.22,5.76,.25,7.06,.25,.79,0,1.33-.07,1.87-.47,.9-.72,1.37-3.78,1.69-9.54h-11.99c.86-3.02,1.76-7.2,2.48-11.19h-3.96v-5.26h19.94v5.26h-10.51Z"/></g><g><path class="cls-2" d="M1178.61,100.71c-1.85-3.17-4.66-7.3-7.39-11.18-2.38,8.98-6.6,17.25-13.99,23.41-1.76-2.64-5.81-7.04-8.71-9.15,9.06-6.51,12.06-17.78,13.02-28.42h-11.44v-11.53h11.88v-9.24h-10.65v-11.18h10.65v-12.06h11.97v12.06h10.3v11.18h-10.3v9.24h11.44v11.53h-11.88l-.09,.62c3.78,3.7,11.79,13.2,13.82,15.58l-8.62,9.15Zm43.12,.62c1.14,0,1.41-1.14,1.67-9.94,2.2,1.94,7.3,3.87,10.38,4.66-1.06,12.85-3.96,16.19-10.74,16.19h-5.1c-8.89,0-10.65-3.61-10.65-13.64v-13.29h-2.73c-1.41,12.76-5.02,22.88-20.94,28.95-1.23-2.9-4.4-7.39-6.86-9.59,12.58-4.14,14.78-10.91,15.84-19.36h-4.75V33.39h40.04v51.92h-8.8v13.11c0,2.64,.09,2.9,1.06,2.9h1.58Zm-22.09-53.59h15.93v-3.08h-15.93v3.08Zm0,13.2h15.93v-3.17h-15.93v3.17Zm0,13.11h15.93v-3.17h-15.93v3.17Z"/><path class="cls-2" d="M1195.42,133.16h4.05v7.57h-4.05v8.71h-15.75v1.94h16.54v6.69h-16.54v1.85h19.54v7.83h-49.19v-7.83h18.3v-1.85h-14.52v-6.69h14.52v-1.94h-14.61v-6.6h14.61v-2.11h-18.83v-7.57h18.83v-1.85h-14.34v-6.6h14.34v-4.31h11.35v4.31h15.75v8.45Zm-45.85,59.31c12.76-.26,32.03-.79,49.81-1.41l-.35,9.33c-17.34,.79-35.99,1.41-48.66,1.76l-.79-9.68Zm46.46-22.97v20.59h-42.5v-20.59h42.5Zm-32.74,7.66h6.16v-2.11h-6.16v2.11Zm0,7.39h6.16v-2.11h-6.16v2.11Zm16.37-51.39h5.02v-1.85h-5.02v1.85Zm5.02,7.57h-5.02v2.11h5.02v-2.11Zm1.14,34.32h-5.81v2.11h5.81v-2.11Zm0,7.39h-5.81v2.11h5.81v-2.11Zm27.19-.79h-11.62v-50.33h11.62v50.33Zm17.16-59.31v67.41c0,6.34-1.14,9.68-4.66,11.7-3.52,2.02-8.8,2.46-15.75,2.46-.44-3.43-2.11-9.06-3.7-12.58,4.22,.18,8.62,.18,10.12,.18,1.41,0,1.94-.44,1.94-1.85V122.33h12.06Z"/></g><g><path class="cls-5" d="M935.72,135.37v3.53h11.66v11.95c0,2.41-.5,3.85-2.16,4.64-1.69,.79-3.78,.86-6.44,.86-.22-1.51-1.01-3.74-1.73-5.15,1.44,.11,3.56,.11,4.07,.11,.58,0,.79-.14,.79-.58v-6.73h-6.19v15.51h-5.47v-15.51h-5.65v12.27h-5.29v-17.39h10.94v-3.53h-13.75v-5.11h14.04c-.47-1.19-1.08-2.48-1.55-3.56l5.22-1.58c.83,1.58,1.91,3.67,2.52,5.15h13.17v5.11h-14.18Z"/><path class="cls-5" d="M972.08,144.29c-.22,.43-.47,.86-.72,1.26h14.25s-.04,1.15-.11,1.73c-.47,6.8-1.04,9.75-2.02,10.87-.76,.9-1.62,1.22-2.59,1.37-.86,.14-2.2,.18-3.71,.14-.07-1.04-.36-2.45-.86-3.49-1.08,1.48-2.27,2.81-3.49,3.74-.9-.97-2.41-2.16-3.71-2.88,2.59-1.58,4.9-4.43,6.44-7.42h-1.26c-1.94,3.28-5.26,6.77-8.28,8.67-.83-1.04-2.2-2.3-3.42-3.06,2.45-1.19,4.93-3.31,6.84-5.62h-1.26c-1.19,1.22-2.48,2.3-3.82,3.17-.58-.65-1.73-1.73-2.66-2.52-2.81,1.44-5.65,2.84-8.1,4.03l-1.91-5.29c1.15-.4,2.59-.94,4.18-1.55v-9.5h-3.31v-4.93h3.31v-6.91h4.86v6.91h3.02v4.93h-3.02v7.52l2.41-1.01,.79,3.13c1.12-.97,2.16-2.09,2.99-3.31h-3.53v-4.36h22.86v4.36h-14.18Zm11.73-5.36h-17.46v-12.53h17.46v12.53Zm-4.82-9h-8.03v1.08h8.03v-1.08Zm0,4.39h-8.03v1.08h8.03v-1.08Zm.97,15.3c-.79,2.02-1.94,4.14-3.28,6.05,.72,.04,1.3,.04,1.66,.04,.47,0,.76-.07,1.04-.43,.43-.47,.83-2.05,1.15-5.65h-.58Z"/><path class="cls-5" d="M1002.32,135.4c-1.04,1.8-2.34,3.67-3.74,5.47v18.9h-5.26v-12.99c-.79,.72-1.55,1.44-2.3,2.05-.72-1.12-2.48-3.49-3.53-4.57,3.64-2.52,7.56-6.7,9.86-10.76l4.97,1.91Zm-1.26-7.74c-2.74,3.56-6.73,7.42-10.29,9.86-.65-1.19-1.98-3.28-2.88-4.32,2.99-1.87,6.44-5.15,8.14-7.63l5.04,2.09Zm20.81,14.87h-4.72v11.37c0,2.66-.47,4.1-2.27,4.9-1.73,.79-4.14,.86-7.2,.86-.18-1.55-.86-3.85-1.55-5.36,1.76,.11,4.14,.11,4.79,.11s.86-.14,.86-.65v-11.23h-9.86v-4.97h19.94v4.97Zm-.9-10.01h-17.53v-4.97h17.53v4.97Z"/><path class="cls-5" d="M1057.04,154.41c0,2.27-.4,3.64-1.87,4.39-1.44,.79-3.38,.86-6.01,.86-.14-1.37-.79-3.53-1.4-4.82,1.4,.11,3.17,.11,3.71,.07,.5,0,.68-.14,.68-.61v-3.42c-2.74,.76-5.51,1.44-7.81,2.02l-.83-2.34c-.18,3.42-.68,7.13-2.12,9.54-.86-.83-3.02-2.3-4.14-2.84,.25-.43,.43-.9,.61-1.37-4.46,1.04-9.11,2.09-12.78,2.92l-1.04-4.72c1.48-.18,3.28-.43,5.33-.72v-8.21h-4.72v-4.39h4.72v-1.91h-2.48v-.65c-.36,.36-.76,.72-1.12,1.04-.29-1.19-1.44-4.14-2.16-5.44,2.52-2.05,5.04-5.26,6.51-8.57l4.5,1.62c-.18,.36-.36,.76-.54,1.15,1.94,1.55,4.21,3.38,5.4,4.57l-2.92,4.03c-.22-.25-.47-.54-.76-.83v3.06h-1.94v1.91h3.6v4.39h-3.6v6.19c.43-1.58,.86-3.89,1.04-5.51l3.85,.9c-.68,1.94-1.3,4.03-1.8,5.47l.76-.11,.25,3.49c.79-2.48,.83-5.58,.83-8.28v-11.81h6.66v-9.9h5v9.9h6.59v18.9Zm-29.05-8.28c.54,1.87,1.08,4.32,1.33,5.9l-3.53,1.01c-.14-1.66-.65-4.14-1.12-6.05l3.31-.86Zm6.52-11.59c-.86-.79-1.8-1.66-2.74-2.48-.54,.86-1.12,1.69-1.69,2.48h4.43Zm-.65,18.14l2.38-.36-2.38-.65v1.01Zm6.66-17.49c-.36-1.8-1.58-4.57-2.81-6.66l4.18-1.98c1.33,1.98,2.66,4.61,3.13,6.44l-4.5,2.2Zm3.06,4.82v3.64l1.87-2.7c2.2,.5,5.15,1.62,6.7,2.52v-3.46h-8.57Zm0,8.53c2.34-.47,5.44-1.15,8.57-1.87v-3.13l-2.27,3.42c-1.33-.94-4.07-2.12-6.3-2.84v4.43Zm14.72-20.59c-1.04,2.59-2.2,5.11-3.13,6.84l-4.39-1.58c.9-1.84,2.05-4.72,2.63-6.91l4.9,1.66Z"/><path class="cls-5" d="M1091.39,147.07c0,2.12-.43,3.17-1.91,3.78-1.12,.47-2.45,.61-3.92,.65,2.63,1.12,5.69,2.02,8.93,2.52-1.08,1.12-2.59,3.24-3.31,4.61-4.1-.97-7.81-2.92-10.69-5.08v6.23h-5.65v-6.33c-3.1,2.52-6.95,4.39-11.19,5.47-.68-1.3-2.16-3.31-3.24-4.39,6.01-1.04,11.37-3.46,14.43-6.66v-2.23h-5.79v6.01h-5.58v-10.4h11.37v-1.15h-13.53v-4.46h1.8c-.83-.97-2.16-2.34-2.95-3.02,2.05-1.8,4.03-4.61,5.11-7.38l4.61,1.37-.43,.97h7.13v3.67c1.58-1.62,2.88-3.82,3.64-6.01l4.75,1.22c-.14,.36-.29,.76-.43,1.12h9.4v3.89h-5.4c.76,.58,1.44,1.19,1.91,1.69l-2.88,2.48h5.54v4.46h-12.6v1.15h10.91v5.83Zm-24.12-15.59c-1.01,1.55-2.09,2.99-3.17,4.14h6.41c-.83-.94-2.02-2.05-2.99-2.88l1.4-1.26h-1.66Zm7.56,4.14v-1.76h3.38c-.86-.68-1.84-1.4-2.48-1.84,.22-.18,.4-.36,.58-.54h-3.89c.79,.65,1.48,1.37,1.94,1.91l-2.38,2.23h2.84Zm7.63-4.18c-.61,.97-1.3,1.87-1.98,2.66v1.51h5.98c-.86-.9-2.16-2.05-3.24-2.84l1.58-1.33h-2.34Zm-1.98,17.1c.94,.76,2.09,1.48,3.38,2.12-.4-1.12-.97-2.3-1.44-3.17,1.01,.11,2.56,.07,2.95,.07,.43,0,.61-.11,.61-.5v-1.44h-5.51v2.92Z"/><path class="cls-5" d="M1129.19,130.47c-1.3,3.64-3.24,6.77-5.62,9.43,2.16,1.55,4.68,2.81,7.49,3.6-.97,.9-2.3,2.66-3.1,4v12.31h-5.08v-1.08h-5.9v1.08h-4.86v-11.63l-.43,.18c-.32-.61-.83-1.4-1.37-2.12v6.7h-9.14v2.81h-3.74v-28.04h12.89v6.33c2.38-2.27,4.36-5.33,5.54-8.49l4.93,1.37c-.29,.68-.58,1.4-.94,2.09h5.04l.86-.22,3.42,1.69Zm-28,1.69v5.62h1.01v-5.62h-1.01Zm0,16.34h1.01v-6.48h-1.01v6.48Zm5.25-16.34h-1.12v5.62h1.12v-5.62Zm0,16.34v-6.48h-1.12v6.48h1.12Zm3.89-4.9c2.2-.97,4.32-2.23,6.19-3.74-.76-.9-1.44-1.8-2.05-2.74-.72,.79-1.48,1.51-2.2,2.16-.43-.5-1.19-1.3-1.94-2.05v6.37Zm13.86,2.66c-1.51-.86-2.92-1.87-4.18-2.95-1.33,1.12-2.74,2.09-4.21,2.95h8.39Zm-1.3,7.92v-3.38h-5.9v3.38h5.9Zm-5.47-20.91l-.11,.18c.68,1.08,1.55,2.2,2.56,3.24,.94-1.08,1.8-2.23,2.52-3.42h-4.97Z"/></g><g><path class="cls-4" d="M132.24,227.53c-1.98-1.15-2.75-1.57-4.13-2.27-2.14,1.34-4.42,2.05-8.29,2.59-.32-1.22-.58-1.82-1.15-2.94,2.72-.1,4.58-.45,6.21-1.12-2.02-.83-2.3-.93-4.45-1.66,1.06-1.15,1.41-1.63,2.02-2.46h-1.63c-1.12,0-1.82,.03-2.53,.13v-2.69c.7,.1,1.34,.13,2.53,.13h3.17c.22-.38,.42-.77,.7-1.34h-2.5c-1.44,0-1.98,.03-2.53,.1,.06-.58,.1-1.06,.1-1.86v-1.98c0-.77-.03-1.22-.1-1.86,.48,.1,.93,.1,2.5,.1h3.46v-1.28h-2.62c-1.44,0-2.21,.03-3.1,.1,.1-.8,.13-1.57,.13-2.72v-.61c-.64,0-1.15,.03-1.63,.13v-2.72c.54,.1,.8,.13,1.63,.13v-.51c0-1.18-.03-1.82-.13-2.88,.83,.1,1.57,.13,2.98,.13h2.75c-.03-.93-.06-1.38-.16-1.92h3.26c-.1,.61-.16,1.18-.16,1.92h2.82c1.44,0,2.14-.03,2.94-.13-.1,.83-.13,1.5-.13,2.72v.67c1.22,0,1.25,0,1.79-.1v2.66c-.51-.06-.86-.1-1.79-.13v.7c0,1.25,.03,1.82,.13,2.66-.77-.06-1.6-.1-2.91-.1h-2.85v1.28h3.33c1.6,0,1.98,0,2.62-.1-.03,.22-.03,.29-.06,.48,1.98-2.94,3.55-8.54,3.58-12.64l3.58,.54q-.13,.38-.74,3.65c-.06,.32-.13,.58-.19,.96h4.32c1.34,0,2.27-.06,3.01-.19v3.55c-.54-.1-.8-.1-1.7-.16-.26,3.14-.38,4.1-.8,6.02-.58,2.5-1.28,4.48-2.46,6.75,1.54,2.18,2.91,3.39,5.73,5.18-.99,1.02-1.57,1.86-2.21,3.26-3.3-2.69-3.87-3.26-5.47-5.38-1.63,2.14-3.33,3.71-5.95,5.57-.45-.86-.64-1.12-1.44-2.14l-1.47,1.79Zm-9.63-15.1v1.28h3.01v-1.28h-3.01Zm3.01-8.83v-1.15h-2.85v1.15h2.85Zm-2.85,3.23h2.85v-1.18h-2.85v1.18Zm2.94,12.83c-.35,.51-.51,.7-1.06,1.41,1.5,.45,1.66,.48,3.07,1.02,.86-.74,1.34-1.38,1.86-2.43h-3.87Zm7.14,0c-.83,1.82-1.28,2.5-2.27,3.58,.77,.35,1.06,.48,2.94,1.41q.1-.03,.32-.19c1.95-1.18,3.97-3.14,5.41-5.22-1.02-2.05-1.76-4.1-2.27-6.43-.35,.58-.54,.83-1.15,1.63-.51-.86-.8-1.25-1.41-1.95v1.63c0,.86,.03,1.31,.1,1.86-.64-.1-1.02-.1-2.69-.1h-3.9q-.32,.64-.7,1.34h6.56c1.28,0,1.82-.03,2.53-.13v2.69c-.74-.1-1.28-.13-2.53-.13h-.93Zm-1.31-17.21h-2.98v1.15h2.98v-1.15Zm-2.98,3.2v1.18h2.98v-1.18h-2.98Zm3.1,8.06v-1.28h-3.1v1.28h3.1Zm8.13-7.23c-.22,.7-.32,1.02-.64,1.89,.35,2.66,1.02,5.22,1.95,7.42,1.22-2.98,1.7-5.25,1.95-9.31h-3.26Z"/><path class="cls-4" d="M159.34,204.14c.8,0,1.44-.03,1.98-.13v3.49c-.45-.06-1.28-.1-1.95-.1h-.61v4.96c.83-.32,1.25-.45,2.43-.93v3.14c-1.18,.51-1.47,.64-2.43,.99v8.9c0,1.02-.26,1.86-.7,2.34-.58,.61-1.41,.8-3.33,.8-.67,0-1.12-.03-1.98-.1-.13-1.38-.22-1.92-.77-3.42,1.18,.13,2.05,.19,2.56,.19,.8,0,.96-.13,.96-.86v-6.72c-1.41,.45-2.53,.83-2.88,.99l-.9-3.55c.9-.1,1.95-.32,3.78-.77v-5.95h-1.12c-.7,0-1.34,.03-2.24,.16v-3.58c.8,.13,1.34,.16,2.27,.16h1.09v-2.5c0-1.6-.03-2.37-.19-3.3h3.62c-.13,.93-.16,1.66-.16,3.26v2.53h.58Zm5.89,1.63v2.02c0,4.9-.22,8.9-.64,11.71-.48,3.3-1.28,5.66-2.69,8.1-.9-1.34-1.5-2.02-2.5-2.72,.86-1.34,1.22-2.27,1.79-4.42,.8-3.2,.96-5.22,.96-13.15,0-1.98-.03-3.1-.16-4.29,.96,.13,1.79,.16,3.2,.16h3.49v-2.78c0-.93-.06-1.5-.19-2.18h3.58c-.1,.48-.13,.77-.16,1.54h4.26c1.34,0,1.98-.03,2.59-.19v2.69c-.74-.1-1.38-.13-2.62-.13h-4.22v1.06h4.16c1.7,0,2.5-.03,3.23-.16l1.63,1.79c-.16,.22-.26,.38-.74,1.25-.58,1.09-.96,1.7-1.34,2.27-.67-.54-1.5-.96-2.46-1.25,.42-.45,.61-.74,.9-1.31h-5.66v1.09l2.21-.16c.58-.03,1.28-.13,1.79-.26l.16,2.21c-.45,0-1.02,.03-1.89,.13l-2.27,.19v.16c0,.7,.16,.74,2.59,.74,1.86,0,2.46-.1,2.72-.38,.26-.29,.29-.42,.38-1.38q1.18,.61,2.82,.9c-.19,1.22-.48,1.82-1.06,2.24-.67,.45-1.57,.54-5.02,.54-4.67,0-5.28-.26-5.28-2.08v-.51l-1.06,.1q-1.41,.13-1.82,.22l-.16-2.34c.29,0,.77,.03,.93,.03s.35,0,1.06-.06l1.06-.06v-1.31h-3.55Zm3.39,9.18c-1.22,0-1.98,.03-2.72,.13v-2.72c.9,.13,1.63,.16,2.85,.16h8.77c1.28,0,2.02-.03,2.91-.16v2.72c-.64-.1-1.25-.13-2.85-.13h-1.28c.32,1.22,.54,1.92,1.06,3.04,.86-.8,1.25-1.28,1.86-2.24l2.14,1.79c-.8,.96-1.82,1.95-2.78,2.72,1.15,1.73,1.92,2.56,3.42,3.62-.93,.96-1.28,1.47-1.95,2.82-2.34-2.37-3.62-4.32-4.99-7.62-.58-1.41-.99-2.62-1.38-4.13h-.42c-.58,.51-.86,.74-1.5,1.22,2.14,2.14,3.42,5.12,3.42,7.87,0,1.25-.32,2.3-.86,2.88-.54,.61-1.57,.93-2.98,.93-.13,0-.83-.03-2.02-.06-.16-1.06-.29-1.6-.67-2.43-1.38,.7-2.14,1.06-3.52,1.63-.45-.99-.77-1.47-1.5-2.27,3.71-1.12,5.7-2.05,8.29-3.94-.16-.35-.19-.48-.38-.86-1.92,1.28-3.14,1.89-5.6,2.88-.29-.8-.64-1.38-1.25-2.11,2.21-.61,3.84-1.28,5.76-2.46-.26-.35-.35-.45-.61-.77-1.22,.7-2.05,1.09-3.42,1.6-.35-.8-.74-1.38-1.31-2.02,2.43-.64,3.46-1.09,5.02-2.08h-1.5Zm.35,10.24c.9,.1,1.41,.13,1.95,.13,1.25,0,1.57-.35,1.57-1.7,0-.29,0-.38-.03-.7-1.18,.9-2.18,1.57-3.49,2.27Z"/><path class="cls-4" d="M194.26,212.59c-1.09,0-1.89,.06-2.72,.16v-2.27c-1.54,1.57-2.34,2.27-4,3.55-.54-1.09-1.31-2.05-2.46-3.14,3.97-2.75,6.37-5.38,8.42-9.18,.77-1.41,1.12-2.27,1.28-3.23l3.84,1.38c-.32,.48-.48,.77-.86,1.63-1.18,2.53-3.07,5.38-5.15,7.78,.86,.06,1.02,.06,1.66,.06h11.78c.77,0,1.22,0,1.98-.03-2.24-2.53-3.9-5.06-5.28-8.03-.13-.32-.45-.96-.67-1.34l3.55-1.38c.22,.83,.54,1.5,1.25,2.78,2.11,3.84,4.86,6.72,8.86,9.28-1.34,1.57-1.6,1.92-2.43,3.46-1.76-1.31-2.56-1.98-3.97-3.36v1.09c0,6.62-.54,11.68-1.34,13.38-.7,1.41-1.86,1.86-4.7,1.86-.64,0-1.15-.03-3.3-.13-.16-1.41-.38-2.18-.96-3.74,1.54,.26,2.94,.42,3.87,.42,1.18,0,1.54-.13,1.82-.61,.48-.96,.99-5.18,.99-8.51v-1.86h-6.14c-.26,3.33-.96,5.66-2.5,8.19-1.76,2.94-4.35,5.15-8.13,7.04-.61-1.18-1.12-1.89-2.34-3.14,1.98-.74,3.3-1.54,4.96-2.94,2.24-1.92,3.65-4.38,4.19-7.3,.1-.54,.13-.93,.19-1.86h-1.7Z"/><path class="cls-4" d="M227.92,207.43c.77,1.86,2.05,3.62,3.87,5.44-.77,.9-1.25,1.63-1.82,2.94-1.22-1.79-1.79-2.75-2.4-4.06,.03,.74,.06,2.75,.06,4.74v7.97c0,1.5,.06,2.53,.19,3.49h-3.71c.16-.93,.22-2.02,.22-3.46v-6.5q0-1.95,.13-4.38c-1.06,2.78-1.98,4.54-3.62,7.04-.74-1.38-1.22-1.98-2.18-2.88,1.47-1.86,2.43-3.42,3.52-5.79,.61-1.31,1.47-3.52,1.76-4.54h-1.86c-.99,0-1.44,.03-2.14,.16v-3.52c.64,.13,1.18,.16,2.27,.16h2.08v-2.88c0-1.28-.06-2.08-.19-2.94h3.71c-.16,.86-.19,1.66-.19,2.94v2.88h1.86c.83,0,1.34-.03,2.02-.16v3.52c-.7-.13-1.22-.16-1.98-.16h-1.6Zm17.12,.9c1.63,0,2.69-.06,3.78-.19v3.74c-1.15-.13-2.24-.19-3.81-.19h-.9v12.38c0,1.47,.06,2.82,.19,3.87h-3.87c.13-1.12,.22-2.53,.22-3.87v-12.38h-4.58c-.32,8.03-1.5,12.29-4.54,16.22-.96-1.06-1.6-1.63-2.91-2.56,3.2-3.68,4.1-7.87,4.1-18.97,0-3.01-.06-4.26-.19-5.25,.35,.03,.54,.03,.67,.03,3.58,0,9.54-1.31,12.45-2.78l2.5,3.26q-.64,.16-3.14,.9c-2.69,.8-5.31,1.28-8.83,1.66v4.13h8.86Z"/><path class="cls-4" d="M131.06,252.72c0-.93-.1-1.86-.19-2.37h4.03c-.16,.7-.22,1.47-.22,2.34v1.6h9.06c1.73,0,2.88-.06,4.03-.22v3.65c-1.06-.16-1.95-.19-3.94-.19h-21.21c-1.5,0-2.72,.06-3.94,.19v-3.65c1.25,.16,2.4,.22,4.03,.22h8.35v-1.57Zm0,7.87c0-.83-.03-1.63-.13-2.34h3.84c-.1,.38-.13,1.15-.13,2.34v.38h7.42c1.44,0,2.18-.03,3.14-.13-.1,.86-.13,1.6-.13,2.75v9.44c0,2.88-.93,3.62-4.67,3.62-.74,0-1.34-.03-2.66-.13-.19-1.47-.29-1.92-.86-3.42,1.44,.22,2.46,.32,3.14,.32,1.31,0,1.6-.16,1.6-.99v-8.32h-6.98v11.87c0,1.57,.06,2.66,.22,3.94h-4.03c.16-1.31,.22-2.43,.22-3.9v-11.9h-6.34v9.18c0,1.76,.03,2.72,.19,3.78h-3.94c.13-1.22,.19-2.27,.19-3.74v-9.73c0-.99-.03-1.82-.13-2.75,1.02,.1,1.92,.13,3.3,.13h6.72v-.38Z"/><path class="cls-4" d="M165.01,270.03c-1.34,1.18-2.05,1.66-3.94,2.72-.38-.7-.54-.93-1.22-1.7-1.82,1.12-3.39,1.95-6.37,3.36-.03,.03-.19,.13-.42,.26-.06,.03-.19,.06-.32,.16l-.8-3.74c.86-.19,2.02-.61,3.62-1.28v-8.48h-.93c-.93,0-1.66,.03-2.5,.16v-3.42c.74,.13,1.47,.16,2.53,.16h.9v-3.97c0-1.63-.06-2.59-.19-3.55h3.71c-.16,1.02-.19,1.89-.19,3.58v3.94h.58c1.06,0,1.7-.03,2.27-.13v3.36c-.77-.1-1.38-.13-2.24-.13h-.61v6.88c.86-.45,1.12-.61,2.14-1.18v2.21c1.76-1.06,2.88-2.02,3.81-3.23h-.7c-1.34,0-2.21,.06-2.98,.16v-3.2c.74,.13,1.57,.16,3.01,.16h13.98c1.54,0,2.53-.06,3.33-.19v3.2c-.9-.1-1.92-.13-3.3-.13h-9.79c-.29,.51-.45,.74-.86,1.31h10.18c1.57,0,2.18-.03,3.1-.1-.06,.51-.1,.93-.13,1.89-.16,4.03-.64,7.26-1.31,8.7-.64,1.47-1.66,1.89-4.48,1.89-.86,0-1.44-.03-2.69-.1-.13-1.18-.38-2.02-.86-2.94-1.73,1.5-3.07,2.4-5.28,3.52-.7-1.06-1.22-1.6-2.3-2.43,2.82-1.22,4.16-2.02,5.82-3.46,1.31-1.12,2.34-2.43,3.33-4.26h-1.92c-1.95,2.98-4.7,5.15-8.86,7.01-.54-.99-1.02-1.54-2.05-2.43,3.65-1.34,5.76-2.66,7.42-4.58h-2.5Zm.96-8.26c-1.25,0-2.3,.03-2.94,.13,.1-.9,.13-1.82,.13-3.1v-4.67c0-1.38-.03-1.92-.13-2.91,.99,.13,1.73,.16,3.23,.16h9.31c1.6,0,2.5-.03,3.42-.16-.1,.9-.13,1.54-.13,3.17v4.42c0,1.41,.03,2.34,.13,3.07-.67-.06-1.63-.1-2.91-.1h-10.11Zm.48-6.24h9.06v-1.34h-9.06v1.34Zm0,3.65h9.06v-1.31h-9.06v1.31Zm9.76,10.85c-1.25,2.72-2.5,4.45-4.48,6.27,1.31,.19,2.37,.26,3.3,.26,1.18,0,1.54-.32,1.82-1.7,.22-1.12,.38-2.53,.54-4.83h-1.18Z"/><path class="cls-4" d="M190.13,270.19c0-1.34,0-1.54,.06-3.71-.83,.99-1.79,1.92-2.91,2.72-.48-1.44-.9-2.27-1.6-3.42,3.36-2.18,6.66-5.7,7.87-8.45l3.01,1.98c-.32,.35-.61,.74-1.06,1.41-.74,1.06-1.02,1.47-1.86,2.5v12.61c0,1.7,.06,2.98,.22,4.03h-3.97c.16-.99,.22-2.4,.22-4.06v-5.6Zm5.95-17.89q-.35,.38-.96,1.09c-2.08,2.5-4.35,4.48-7.36,6.4-.64-1.25-1.18-2.02-2.02-3.01,2.53-1.38,4.16-2.66,5.73-4.38,.7-.83,1.12-1.44,1.54-2.24l3.07,2.14Zm4.32,11.01c-1.47,0-2.94,.06-3.94,.19v-3.58c.96,.13,2.4,.19,3.94,.19h10.88c1.79,0,3.07-.06,3.9-.19v3.58c-1.06-.13-2.4-.19-3.81-.19h-1.38v12.74c0,2.75-.93,3.42-4.8,3.42-1.09,0-2.05-.03-3.55-.1-.19-1.41-.38-2.24-.93-3.58,1.7,.22,3.36,.35,4.35,.35,1.28,0,1.44-.06,1.44-.77v-12.06h-6.11Zm-2.66-11.52c.9,.13,2.08,.19,3.74,.19h8.64c1.6,0,2.69-.06,3.65-.19v3.55c-1.12-.13-2.3-.19-3.58-.19h-8.7c-1.34,0-2.69,.06-3.74,.19v-3.55Z"/><path class="cls-4" d="M227.86,263.02h1.44c1.25,0,1.92-.03,2.46-.16v3.23c-.74-.1-1.34-.13-2.46-.13h-1.44v8.64q1.28-.29,4.26-1.02v3.17c-4.03,1.06-5.25,1.34-9.73,2.24-.99,.19-1.12,.22-2.02,.48l-.54-3.68q.86,0,4.9-.58v-9.25h-1.89c-1.28,0-2.02,.06-2.85,.19v-3.33c.83,.13,1.57,.19,2.85,.19h1.89v-2.4h-.77c-.7,0-1.28,.03-1.79,.13v-1.41c-.51,.48-.77,.74-1.54,1.34-.42-1.41-.7-2.05-1.54-3.2,1.63-1.25,2.34-1.89,3.3-3.07,.99-1.25,1.54-2.14,2.34-3.94h3.49c.77,1.82,1.89,3.2,3.87,4.83-.8,1.06-1.18,1.66-1.66,2.66v2.75c-.7-.06-1.15-.1-1.95-.1h-.61v2.4Zm-6.4,11.36c-.38-2.66-.74-4.06-1.57-6.5l2.72-.74c.9,2.66,1.18,3.78,1.63,6.43l-2.78,.8Zm2.43-16.57h4.7c.61,0,.8,0,1.28-.03-1.31-1.28-2.4-2.69-3.36-4.51-.93,1.86-1.63,2.91-2.98,4.54h.35Zm4.38,14.59c.67-1.95,1.02-3.23,1.38-5.28l2.56,.74c-.48,2.34-.74,3.17-1.57,5.28l-2.37-.74Zm10.11-19.52c0-1.06-.06-1.76-.16-2.62h3.55c-.13,.9-.16,1.54-.16,2.66v6.27h2.88c.54,0,.7,0,1.25-.03-1.28-1.92-1.98-3.3-3.1-6.24l2.75-1.18c1.22,2.88,2.34,4.77,4.32,7.14-.93,.45-1.66,.93-2.53,1.66v16.06c0,1.12-.26,1.76-.8,2.21-.64,.51-1.44,.67-3.42,.67-.7,0-1.28,0-2.53-.06-.13-1.28-.29-2.05-.7-3.39,1.31,.22,2.21,.32,3.07,.32,.96,0,1.15-.13,1.15-.67v-2.98h-7.58v3.42c0,1.38,.06,2.66,.16,3.71h-3.58c.13-1.02,.19-2.14,.19-3.71v-14.69c0-.35,0-.54-.03-.93-.7-.64-1.41-1.02-2.43-1.47,1.12-1.31,1.57-1.92,2.27-3.2,.83-1.47,1.15-2.27,1.66-4.06l2.88,1.18c-.93,2.75-1.63,4.29-2.88,6.24h3.78v-6.3Zm5.57,9.41h-7.58v2.24h7.58v-2.24Zm-7.58,7.49h7.58v-2.37h-7.58v2.37Z"/><path class="cls-4" d="M120.56,310.38c2.24,1.34,3.52,2.27,5.7,4.16l-1.98,2.88c-2.27-2.24-3.58-3.26-5.7-4.48l1.98-2.56Zm5.73,11.01c-1.31,3.97-2.56,6.85-4.38,10.21l-3.14-2.62c1.57-1.82,3.2-5.25,4.58-9.63l2.94,2.05Zm-4.29-18.78c2.18,1.41,3.26,2.27,5.41,4.32l-2.18,2.78c-1.82-2.05-3.14-3.17-5.41-4.64l2.18-2.46Zm8.1,.38c1.47,1.98,2.3,3.42,3.49,6.05l-3.07,1.54c-1.15-2.75-1.7-3.71-3.46-6.08l3.04-1.5Zm5.09,2.34c0-1.31-.06-2.24-.19-3.17h3.78c-.13,.96-.19,1.82-.19,3.14v5.63h4.61c1.47,0,2.18-.03,2.98-.13-.1,.7-.13,1.89-.13,3.3v14.43c0,1.28-.32,2.08-1.02,2.53-.54,.35-1.41,.51-2.94,.51-.99,0-1.98-.03-3.65-.16-.13-1.25-.29-1.95-.74-3.33,1.63,.22,2.85,.32,3.68,.32,1.02,0,1.22-.13,1.22-.74v-2.66h-10.91v3.04c0,1.44,.06,2.82,.19,3.74h-3.78c.1-.96,.16-2.14,.16-3.71v-14.21c0-1.41-.03-2.4-.1-3.07,.74,.1,1.5,.13,2.98,.13h4.06v-5.6Zm7.39,8.67h-10.91v2.43h10.91v-2.43Zm-10.91,8h10.91v-2.56h-10.91v2.56Zm15.1-17.76c-1.34,3.04-2.08,4.45-3.39,6.43l-2.88-1.54c1.44-2.27,2.3-4.06,2.94-6.24l3.33,1.34Z"/><path class="cls-4" d="M178.42,311.24c1.41,0,1.98-.03,2.72-.1q-.1,.54-.29,2.18c-.38,2.69-.9,3.3-3.07,3.42v7.36c0,1.41,.03,2.56,.13,3.39-.67-.06-2.08-.1-3.39-.1h-1.54c2.3,1.18,4.86,1.79,8.74,2.08-.86,1.02-1.22,1.54-1.98,2.88-4.54-.74-6.78-1.54-10.43-3.65l1.76-1.31h-8.32l1.6,1.31c-3.46,2.05-5.47,2.78-10.11,3.68-.67-1.22-.96-1.63-1.95-2.78,3.84-.45,6.02-1.02,8.54-2.21h-1.5c-1.38,0-2.66,.03-3.39,.1,.06-.58,.13-1.82,.13-3.2v-5.95c-.86,.32-1.31,.45-2.56,.83l-.26-.58c-.42-1.02-.54-1.28-1.28-2.27,4.06-.86,5.63-1.44,7.33-2.75h-3.55c-.67,0-1.76,.03-2.66,.06,.93-1.89,1.57-3.84,1.86-5.82,.64,.06,1.41,.1,2.69,.1h4.19c.06-.77,.1-.77,.1-1.12h-5.18c-1.44,0-2.4,.03-3.07,.16v-2.78c.83,.13,1.57,.16,3.07,.16h5.28c0-.86-.03-1.38-.13-2.02h3.42c-.06,.38-.06,.54-.13,2.02h3.58c0-.99-.03-1.34-.16-2.02h3.49c-.13,.7-.16,1.09-.16,2.02h4.35c1.06,0,2.4-.06,3.14-.16-.1,.74-.13,1.22-.13,2.5v1.28c0,1.18,0,1.5,.1,2.27-1.02-.06-1.98-.1-3.14-.1h-4.32v1.12h6.5Zm-20.73-1.12c-.16,.58-.22,.74-.38,1.12h3.78c.16-.45,.22-.64,.38-1.12h-3.78Zm1.66,8.35h15.1v-1.12h-15.1v1.12Zm0,3.23h15.1v-1.18h-15.1v1.18Zm0,3.23h15.1v-1.18h-15.1v1.18Zm9.41-11.36h-5.5c-.45,.64-.74,.96-1.44,1.57h6.94v-1.57Zm-4.1-3.46c-.13,.48-.16,.64-.29,1.12h4.38v-1.12h-4.1Zm.42-3.33c0,.45-.03,.61-.06,1.12h3.74v-1.12h-3.68Zm6.85,1.12h4.03v-1.12h-4.03v1.12Zm3.3,7.23c-.1-.35-.13-.48-.32-.86,.67,.19,1.38,.29,1.79,.29,.64,0,.77-.13,.86-.99h-5.63v1.57h3.3Z"/><path class="cls-4" d="M187.31,310.22c2.21,1.22,3.62,2.24,5.57,4l-2.05,2.91c-2.08-2.08-3.42-3.1-5.6-4.35l2.08-2.56Zm5.38,11.29c-1.15,3.3-1.73,4.67-3.2,7.49-.19,.35-.42,.8-.67,1.34-.32,.58-.38,.7-.58,1.09l-2.94-2.66c1.38-1.47,3.04-4.86,4.61-9.41l2.78,2.14Zm-.83-12.25c-1.73-1.79-3.33-3.04-5.41-4.29l2.14-2.5c2.37,1.41,3.23,2.05,5.22,3.9,0-1.44-.03-2.08-.13-3.07,.9,.1,2.08,.13,3.94,.13h12.64c1.98,0,3.14-.03,3.87-.13-.1,.77-.16,2.43-.16,3.97v21.31c0,1.18-.35,1.98-1.09,2.43-.61,.38-1.5,.51-3.49,.51-.74,0-1.28,0-2.62-.06-.13-1.38-.29-2.11-.7-3.36,1.25,.13,2.37,.22,3.04,.22,1.12,0,1.47-.16,1.47-.61v-21.18h-13.47v20.67c0,2.59,.03,3.52,.19,4.54h-3.68c.13-1.12,.19-2.37,.19-4.64v-20.45l-1.95,2.59Zm17.47,2.88c-.67-.1-1.34-.13-2.69-.13h-5.7c-1.34,0-2.02,.03-2.69,.13v-3.2c.64,.1,1.22,.13,2.66,.13h5.76q2.08-.03,2.66-.13v3.2Zm-.8,10.37c0,1.12,.03,1.7,.1,2.24-.54-.06-1.12-.1-2.11-.1h-4.48v2.34h-3.1c.1-.67,.13-1.34,.13-2.72v-7.58c0-1.12,0-1.57-.1-2.27,.54,.06,.99,.1,2.02,.1h5.34c1.06,0,1.92-.03,2.3-.1-.06,.32-.1,1.38-.1,2.21v5.89Zm-6.56-.77h3.62v-4.38h-3.62v4.38Z"/><path class="cls-4" d="M224.56,314.47c.99,.77,1.18,.93,1.73,1.57,.64-.45,.86-.61,1.44-1.06-.54-.51-.77-.74-1.89-1.5l1.79-1.44c.86,.51,1.34,.86,1.89,1.31,.67-.67,.9-.96,1.6-1.95h-3.81c-2.14,1.98-3.39,2.85-6.43,4.38-.61-1.12-.86-1.5-1.66-2.4,2.85-1.25,4.06-1.98,5.6-3.33,1.25-1.09,1.76-1.7,2.4-2.78h-3.87v3.3h-3.49c.13-.77,.16-1.41,.16-2.78v-1.15c0-.93-.03-1.6-.13-2.43,1.12,.1,1.86,.13,3.52,.13h8.54c0-.86-.03-1.38-.16-2.14h3.94c-.13,.7-.19,1.22-.19,2.14h9.15c1.7,0,2.46-.03,3.46-.13-.1,.83-.13,1.44-.13,2.46v1.28c0,1.38,.03,1.98,.13,2.69h-2.72q-.35,.48-.83,1.22c-.99,1.6-1.63,2.34-3.07,3.68,2.05,1.44,3.81,2.21,7.07,3.07-.64,1.22-.96,2.14-1.25,3.39-.86-.35-1.12-.45-1.7-.7v2.85c-.83-.13-1.47-.16-2.85-.16h-6.85v4.8c0,2.34-.96,2.98-4.42,2.98-.19,0-.67,0-2.66-.1-.06-1.18-.32-2.08-.83-3.14,1.34,.19,2.34,.29,3.39,.29,.9,0,1.09-.16,1.09-.83v-4h-7.3c-1.38,0-2.08,.03-2.88,.16v-2.62c-.74,.29-.9,.38-1.86,.77-.32-1.09-.64-1.73-1.34-2.91,2.37-.8,3.36-1.18,5.06-2.08-.67-.74-1.09-1.15-1.76-1.63l2.11-1.18Zm4.8,11.58c-3.2,3.1-4.42,4.03-7.58,5.63-.7-1.22-1.25-1.92-2.21-2.78,3.55-1.54,4.77-2.37,6.91-4.61l2.88,1.76Zm13.47-4.9c1.09,0,1.57-.03,2.3-.1-2.3-1.02-3.78-1.92-5.73-3.42v1.76c-.83-.1-1.25-.13-2.69-.13h-5.31c-1.47,0-1.92,.03-2.75,.13v-1.57c-1.41,1.15-3.36,2.34-5.38,3.26,.58,.06,1.02,.06,1.95,.06h17.6Zm-7.71-13.25c.64,1.41,.96,1.98,1.92,3.26v-2.59c.64,.1,1.18,.13,2.62,.13h2.08c1.06,0,1.5-.03,1.95-.16l.99,1.06v-2.34h-16.38l1.86,.64c-.1,.13-.38,.48-.83,1.09h3.3l2.5-1.09Zm1.6,8.64h1.34c-1.44-1.28-2.72-2.78-3.87-4.51-1.34,1.86-2.34,2.98-4.03,4.51h6.56Zm2.66-5.34c-.96,0-1.57,.03-2.24,.13,.83,1.02,1.41,1.66,2.3,2.53,1.02-.96,1.57-1.57,2.37-2.66h-2.43Zm1.34,13.09c2.62,2.14,4.29,3.07,7.68,4.26-.99,1.18-1.28,1.6-2.02,3.1-3.71-1.76-5.15-2.72-8.35-5.57l2.69-1.79Z"/><path class="cls-4" d="M126.77,380.65c0,1.5,.03,2.3,.16,3.26h-3.87c.16-.96,.19-1.82,.19-3.33v-8.03c-1.25,1.15-1.92,1.66-3.55,2.72-.38-1.22-.96-2.37-1.63-3.33,2.24-1.28,3.78-2.5,5.5-4.32,1.5-1.57,2.43-2.88,3.49-4.93h-5.22c-1.15,0-1.82,.03-2.69,.13v-3.55c.8,.1,1.47,.13,2.53,.13h1.6v-2.69c0-.83-.06-1.7-.19-2.43h3.87c-.13,.74-.19,1.44-.19,2.5v2.62h1.31c.99,0,1.44-.03,1.86-.1l1.54,1.66c-.29,.48-.48,.8-.7,1.34-1.06,2.3-1.66,3.36-3.2,5.47,1.5,1.7,2.98,2.85,5.09,4.06-.77,1.02-1.25,1.92-1.76,3.14-1.66-1.09-2.75-2.02-4.13-3.62v9.28Zm13.57-1.5h3.84c1.6,0,2.66-.06,3.65-.19v3.87c-1.12-.16-2.37-.22-3.65-.22h-10.94c-1.28,0-2.5,.06-3.62,.22v-3.87c1.02,.13,2.14,.19,3.68,.19h3.49v-12.51h-2.4c-1.09,0-2.11,.06-3.14,.16v-3.62c.93,.13,1.76,.16,3.14,.16h2.4v-5.63c0-1.31-.06-2.08-.22-3.33h4c-.19,1.28-.22,1.95-.22,3.33v5.63h3.39c1.44,0,2.24-.03,3.14-.16v3.62c-1.02-.1-2.02-.16-3.14-.16h-3.39v12.51Z"/><path class="cls-4" d="M156.62,360.81v-2.24h-1.41c-.86,0-1.47,.03-2.18,.13v-3.26c.77,.1,1.57,.16,2.66,.16h7.46c1.28,0,1.86-.03,2.59-.1-.1,.61-.13,1.02-.13,1.95v3.36c.61-.03,.9-.06,1.25-.1v3.17c-.45-.06-.61-.1-1.25-.13v3.39c0,.9,.03,1.41,.13,1.92-.8-.03-1.54-.06-2.43-.06h-4.67c-.29,.93-.42,1.31-.74,2.14h6.02c1.06,0,1.5-.03,2.02-.1-.06,.54-.1,.99-.1,2.21v6.88c0,1.15,.03,1.98,.16,2.88h-3.46v-1.12h-3.81v1.82h-3.46c.1-.99,.16-1.73,.16-2.46v-3.36c0-.93,0-1.15,.03-1.92-.9,1.44-1.34,2.05-2.59,3.39-.51-1.79-.86-2.56-1.54-3.49,2.02-2.24,3.17-4.16,4.1-6.88h-.22c-1.15,0-1.54,.03-2.24,.1v-3.1c.64,.06,1.09,.1,2.11,.1h1.06c.13-.77,.16-1.15,.29-2.34h-1.6c-1.63,0-2.02,.03-2.98,.16v-3.23c.9,.1,1.44,.13,2.98,.13h1.79Zm2.11,18.05h3.81v-4.7h-3.81v4.7Zm.86-15.1c-.06,.9-.16,1.57-.29,2.34h3.33v-2.34h-3.04Zm3.04-2.94v-2.24h-2.82c-.03,1.31-.03,2.05-.06,2.24h2.88Zm11.65-.38c1.15-2.14,1.92-4,2.59-6.3l3.39,1.09c-.99,2.3-1.82,4-2.59,5.22h.86c1.38,0,2.08-.03,2.85-.16v3.52c-.74-.13-1.47-.16-2.62-.16h-3.04v3.26h2.24c1.5,0,2.18-.03,2.72-.16v3.42c-.7-.13-1.57-.16-2.72-.16h-2.24v3.62h3.17c1.18,0,1.98-.03,2.91-.16v3.58c-.83-.13-1.7-.19-2.78-.19h-3.3v3.62c0,1.5,.06,2.43,.19,3.49h-3.84c.13-1.02,.19-1.98,.19-3.49v-3.62h-3.46c-1.15,0-1.6,.03-2.34,.16v-3.52c.64,.1,1.31,.13,2.4,.13h3.39v-3.62h-2.3c-1.22,0-1.63,.03-2.4,.16v-3.42c.77,.13,1.22,.16,2.34,.16h2.37v-3.26h-2.18c-1.15,0-1.79,.03-2.59,.16v-3.49c.74,.1,1.18,.13,2.66,.13h4.13Zm-4.32-.06c-.61-1.86-1.22-3.2-2.34-5.09l3.2-1.12c1.06,2.02,1.54,3.07,2.3,5.09l-3.17,1.12Z"/><path class="cls-4" d="M196.72,380.36c0,1.92,.03,2.62,.16,3.49h-3.58c.13-.86,.19-1.79,.19-3.49v-2.82c-1.44,.54-2.66,.93-5.86,1.82-.51,.13-.64,.16-1.02,.29l-.8-3.42c.61-.06,.7-.06,1.86-.26v-17.6c-.86,.03-1.12,.03-1.7,.13v-3.46c.83,.13,1.73,.16,2.88,.16h6.5c1.34,0,2.11-.03,2.94-.16v3.39c-.45-.03-1.02-.06-1.57-.06v5.31c1.57-1.12,2.53-1.95,3.58-3.14,1.7-1.89,2.75-3.58,3.68-5.89h3.33c1.92,3.84,4.8,6.91,8.67,9.15-.9,.93-1.44,1.76-2.11,3.07-1.09-.8-1.5-1.15-2.78-2.34v1.92c-.77-.1-1.7-.13-2.85-.13h-4.7c-1.06,0-2.08,.03-2.85,.13v-1.76c-1.02,.99-1.28,1.25-2.14,1.95-.67-1.25-.99-1.7-1.82-2.53v16.22Zm-5.98-18.53h2.75v-3.46h-2.75v3.46Zm0,6.34h2.75v-3.42h-2.75v3.42Zm0,7.17c1.31-.35,1.82-.51,2.75-.86v-3.39h-2.75v4.26Zm10.18-3.36c-1.38,0-2.34,.03-3.17,.16v-3.49c.93,.13,1.79,.19,3.49,.19h9.34c1.22,0,2.08-.03,2.72-.13-.1,.74-.13,1.73-.13,3.14v6.43c0,2.4-.93,3.07-4.26,3.07-.38,0-.77-.03-1.6-.06-.16-1.57-.32-2.18-.86-3.23,1.02,.13,1.86,.19,2.43,.19,.9,0,1.06-.13,1.06-.74v-5.54h-4.42v8.19c0,1.63,.03,2.53,.19,3.68h-3.74c.16-1.18,.22-2.05,.22-3.65v-8.22h-1.28Zm7.62-8.54c.54,0,.86,0,1.31-.03-1.7-1.76-2.75-3.14-4.13-5.41-1.22,2.4-2.05,3.58-3.71,5.41,.58,.03,.83,.03,1.25,.03h5.28Z"/><path class="cls-4" d="M221.59,374.28h-.51c-.45,0-1.06,.03-1.6,.1v-2.88c.58,.1,1.02,.13,1.98,.13h2.85c.9,0,1.28-.03,1.89-.1v2.85c-.58-.06-.99-.1-1.95-.1v1.25c.83,0,1.06,0,1.54-.1v2.78c-.48-.03-.77-.06-1.54-.06v1.34c.67-.06,.99-.13,1.98-.29v2.59q-1.22,.19-3.9,.58c-1.79,.26-2.11,.32-2.88,.51l-.45-3.1c.32,.03,.48,.03,.67,.03,.42,0,.8-.03,1.92-.1v-1.57c-.83,0-1.06,0-1.63,.1v-2.82c.54,.06,.86,.1,1.63,.1v-1.25Zm-.74-16.29c-.74,.03-1.15,.06-1.7,.13v-3.1c.7,.13,1.41,.16,2.72,.16h6.24c1.38,0,2.02-.03,2.72-.16v3.07c-.35-.03-.48-.06-1.06-.06v22.46c0,1.66,.03,2.56,.16,3.39h-3.23c.13-.9,.16-1.86,.16-3.42v-10.82q-1.79,.32-6.05,.8c-.86,.1-1.06,.13-1.47,.19l-.32-3.01c.38,.03,.74,.03,1.09,.03h.74v-9.66Zm3.01,1.34h3.01v-1.34h-3.01v1.34Zm0,3.87h3.01v-1.41h-3.01v1.41Zm0,4.22c1.5-.13,1.92-.16,3.01-.35v-1.41h-3.01v1.76Zm10.88,8.03c-.51,3.39-.93,4.83-2.18,7.26l-2.59-1.66c1.25-2.08,1.73-3.68,2.08-6.62l2.69,1.02Zm-.58-3.17c-1.79,0-2.43,.03-3.26,.16v-3.26c1.02,.16,1.92,.19,3.42,.19h11.36c1.44,0,2.21-.03,3.17-.19v3.26c-.9-.13-1.7-.16-3.2-.16h-5.66c1.41,1.02,1.76,1.31,3.39,2.91l-2.05,2.21c-1.02-1.28-1.86-2.14-3.07-3.07-.1,.58-.13,1.02-.13,2.24v3.23c0,.51,.22,.64,1.09,.64,.74,0,1.82-.1,2.08-.16,.54-.16,.64-.48,.74-2.66,1.09,.61,1.63,.8,2.78,.96-.22,2.34-.42,3.14-.93,3.81-.58,.77-1.82,1.06-4.51,1.06-3.65,0-4.32-.35-4.32-2.24v-4.58c0-1.02-.03-1.6-.16-2.4h3.23c-.38-.29-.61-.45-1.25-.86l1.28-1.09h-4Zm3.71-15.9c-.03-.99-.06-1.38-.16-2.11h3.58c-.1,.64-.13,1.12-.16,2.11h4.54c1.44,0,2.24-.03,3.17-.19v3.33c-.9-.13-1.66-.16-3.2-.16h-4.51v1.25h3.74c1.6,0,2.24-.03,3.01-.1-.06,.58-.1,1.15-.1,1.95v3.9c0,.86,.03,1.34,.1,1.92-.86-.1-1.79-.13-3.17-.13h-10.18c-1.22,0-2.18,.03-2.98,.1,.06-.54,.1-1.09,.1-1.86v-3.97c0-.8-.03-1.34-.1-1.92,.83,.06,1.63,.1,3.14,.1h3.17v-1.25h-3.07c-1.73,0-2.43,.03-3.26,.16v-3.33c1.02,.16,1.92,.19,3.42,.19h2.91Zm-3.26,9.12h1.57v-2.24h-1.57v2.24Zm4.22,0h1.63v-2.24h-1.63v2.24Zm4.29,0h1.63v-2.24h-1.63v2.24Zm3.14,8.83c1.41,2.53,2.11,4.13,2.91,6.66l-2.91,1.66c-.86-3.46-1.44-4.99-2.66-6.98l2.66-1.34Z"/></g><g><path class="cls-4" d="M532.22,227.53c-1.98-1.15-2.75-1.57-4.13-2.27-2.14,1.34-4.42,2.05-8.29,2.59-.32-1.22-.58-1.82-1.15-2.94,2.72-.1,4.58-.45,6.21-1.12-2.02-.83-2.3-.93-4.45-1.66,1.06-1.15,1.41-1.63,2.02-2.46h-1.63c-1.12,0-1.82,.03-2.53,.13v-2.69c.7,.1,1.34,.13,2.53,.13h3.17c.22-.38,.42-.77,.7-1.34h-2.5c-1.44,0-1.98,.03-2.53,.1,.06-.58,.1-1.06,.1-1.86v-1.98c0-.77-.03-1.22-.1-1.86,.48,.1,.93,.1,2.5,.1h3.46v-1.28h-2.62c-1.44,0-2.21,.03-3.1,.1,.1-.8,.13-1.57,.13-2.72v-.61c-.64,0-1.15,.03-1.63,.13v-2.72c.54,.1,.8,.13,1.63,.13v-.51c0-1.18-.03-1.82-.13-2.88,.83,.1,1.57,.13,2.98,.13h2.75c-.03-.93-.06-1.38-.16-1.92h3.26c-.1,.61-.16,1.18-.16,1.92h2.82c1.44,0,2.14-.03,2.94-.13-.1,.83-.13,1.5-.13,2.72v.67c1.22,0,1.25,0,1.79-.1v2.66c-.51-.06-.86-.1-1.79-.13v.7c0,1.25,.03,1.82,.13,2.66-.77-.06-1.6-.1-2.91-.1h-2.85v1.28h3.33c1.6,0,1.98,0,2.62-.1-.03,.22-.03,.29-.06,.48,1.98-2.94,3.55-8.54,3.58-12.64l3.58,.54q-.13,.38-.74,3.65c-.06,.32-.13,.58-.19,.96h4.32c1.34,0,2.27-.06,3.01-.19v3.55c-.54-.1-.8-.1-1.7-.16-.26,3.14-.38,4.1-.8,6.02-.58,2.5-1.28,4.48-2.46,6.75,1.54,2.18,2.91,3.39,5.73,5.18-.99,1.02-1.57,1.86-2.21,3.26-3.3-2.69-3.87-3.26-5.47-5.38-1.63,2.14-3.33,3.71-5.95,5.57-.45-.86-.64-1.12-1.44-2.14l-1.47,1.79Zm-9.63-15.1v1.28h3.01v-1.28h-3.01Zm3.01-8.83v-1.15h-2.85v1.15h2.85Zm-2.85,3.23h2.85v-1.18h-2.85v1.18Zm2.94,12.83c-.35,.51-.51,.7-1.06,1.41,1.5,.45,1.66,.48,3.07,1.02,.86-.74,1.34-1.38,1.86-2.43h-3.87Zm7.14,0c-.83,1.82-1.28,2.5-2.27,3.58,.77,.35,1.06,.48,2.94,1.41q.1-.03,.32-.19c1.95-1.18,3.97-3.14,5.41-5.22-1.02-2.05-1.76-4.1-2.27-6.43-.35,.58-.54,.83-1.15,1.63-.51-.86-.8-1.25-1.41-1.95v1.63c0,.86,.03,1.31,.1,1.86-.64-.1-1.02-.1-2.69-.1h-3.9q-.32,.64-.7,1.34h6.56c1.28,0,1.82-.03,2.53-.13v2.69c-.74-.1-1.28-.13-2.53-.13h-.93Zm-1.31-17.21h-2.98v1.15h2.98v-1.15Zm-2.98,3.2v1.18h2.98v-1.18h-2.98Zm3.1,8.06v-1.28h-3.1v1.28h3.1Zm8.13-7.23c-.22,.7-.32,1.02-.64,1.89,.35,2.66,1.02,5.22,1.95,7.42,1.22-2.98,1.7-5.25,1.95-9.31h-3.26Z"/><path class="cls-4" d="M559.33,204.14c.8,0,1.44-.03,1.98-.13v3.49c-.45-.06-1.28-.1-1.95-.1h-.61v4.96c.83-.32,1.25-.45,2.43-.93v3.14c-1.18,.51-1.47,.64-2.43,.99v8.9c0,1.02-.26,1.86-.7,2.34-.58,.61-1.41,.8-3.33,.8-.67,0-1.12-.03-1.98-.1-.13-1.38-.22-1.92-.77-3.42,1.18,.13,2.05,.19,2.56,.19,.8,0,.96-.13,.96-.86v-6.72c-1.41,.45-2.53,.83-2.88,.99l-.9-3.55c.9-.1,1.95-.32,3.78-.77v-5.95h-1.12c-.7,0-1.34,.03-2.24,.16v-3.58c.8,.13,1.34,.16,2.27,.16h1.09v-2.5c0-1.6-.03-2.37-.19-3.3h3.62c-.13,.93-.16,1.66-.16,3.26v2.53h.58Zm5.89,1.63v2.02c0,4.9-.22,8.9-.64,11.71-.48,3.3-1.28,5.66-2.69,8.1-.9-1.34-1.5-2.02-2.5-2.72,.86-1.34,1.22-2.27,1.79-4.42,.8-3.2,.96-5.22,.96-13.15,0-1.98-.03-3.1-.16-4.29,.96,.13,1.79,.16,3.2,.16h3.49v-2.78c0-.93-.06-1.5-.19-2.18h3.58c-.1,.48-.13,.77-.16,1.54h4.26c1.34,0,1.98-.03,2.59-.19v2.69c-.74-.1-1.38-.13-2.62-.13h-4.22v1.06h4.16c1.7,0,2.5-.03,3.23-.16l1.63,1.79c-.16,.22-.26,.38-.74,1.25-.58,1.09-.96,1.7-1.34,2.27-.67-.54-1.5-.96-2.46-1.25,.42-.45,.61-.74,.9-1.31h-5.66v1.09l2.21-.16c.58-.03,1.28-.13,1.79-.26l.16,2.21c-.45,0-1.02,.03-1.89,.13l-2.27,.19v.16c0,.7,.16,.74,2.59,.74,1.86,0,2.46-.1,2.72-.38,.26-.29,.29-.42,.38-1.38q1.18,.61,2.82,.9c-.19,1.22-.48,1.82-1.06,2.24-.67,.45-1.57,.54-5.02,.54-4.67,0-5.28-.26-5.28-2.08v-.51l-1.06,.1q-1.41,.13-1.82,.22l-.16-2.34c.29,0,.77,.03,.93,.03s.35,0,1.06-.06l1.06-.06v-1.31h-3.55Zm3.39,9.18c-1.22,0-1.98,.03-2.72,.13v-2.72c.9,.13,1.63,.16,2.85,.16h8.77c1.28,0,2.02-.03,2.91-.16v2.72c-.64-.1-1.25-.13-2.85-.13h-1.28c.32,1.22,.54,1.92,1.06,3.04,.86-.8,1.25-1.28,1.86-2.24l2.14,1.79c-.8,.96-1.82,1.95-2.78,2.72,1.15,1.73,1.92,2.56,3.42,3.62-.93,.96-1.28,1.47-1.95,2.82-2.34-2.37-3.62-4.32-4.99-7.62-.58-1.41-.99-2.62-1.38-4.13h-.42c-.58,.51-.86,.74-1.5,1.22,2.14,2.14,3.42,5.12,3.42,7.87,0,1.25-.32,2.3-.86,2.88-.54,.61-1.57,.93-2.98,.93-.13,0-.83-.03-2.02-.06-.16-1.06-.29-1.6-.67-2.43-1.38,.7-2.14,1.06-3.52,1.63-.45-.99-.77-1.47-1.5-2.27,3.71-1.12,5.7-2.05,8.29-3.94-.16-.35-.19-.48-.38-.86-1.92,1.28-3.14,1.89-5.6,2.88-.29-.8-.64-1.38-1.25-2.11,2.21-.61,3.84-1.28,5.76-2.46-.26-.35-.35-.45-.61-.77-1.22,.7-2.05,1.09-3.42,1.6-.35-.8-.74-1.38-1.31-2.02,2.43-.64,3.46-1.09,5.02-2.08h-1.5Zm.35,10.24c.9,.1,1.41,.13,1.95,.13,1.25,0,1.57-.35,1.57-1.7,0-.29,0-.38-.03-.7-1.18,.9-2.18,1.57-3.49,2.27Z"/><path class="cls-4" d="M590.01,204.65c-1.54,0-2.69,.06-3.87,.19v-3.55c1.18,.16,2.27,.22,3.84,.22h8.29v-.61c0-1.02-.06-1.79-.19-2.59h3.97c-.13,.77-.19,1.41-.19,2.59v.61h8.83c1.92,0,3.1-.06,3.94-.22v3.55c-1.09-.13-2.27-.19-3.9-.19h-8.86v8.8c1.76,2.66,3.36,4.35,5.79,6.18,2.3,1.73,4.8,3.07,7.62,4.1-1.06,1.25-1.5,1.98-1.98,3.39-2.46-1.15-4.35-2.3-6.43-3.97-2.18-1.73-3.58-3.14-5.09-5.18,.1,1.79,.1,2.14,.1,2.78v4.16c0,1.34,.06,2.14,.22,3.04h-4.03c.16-.96,.22-1.73,.22-3.04v-4.06c0-.74,.03-1.6,.1-2.75-1.5,2.05-2.78,3.36-5.02,5.18-1.92,1.5-3.52,2.56-5.76,3.74-.54-1.41-.96-2.05-1.98-3.2,2.59-1.09,4.42-2.18,6.75-3.97,2.72-2.11,4.19-3.71,5.92-6.56v-8.64h-8.26Zm4.35,1.44c-.13,.32-.19,.45-.32,.9-.38,1.18-.42,1.31-.7,2.08,.93,1.54,2.18,2.78,4.06,4.13-1.22,1.5-1.31,1.66-1.92,2.75-1.44-1.18-2.59-2.5-3.42-3.87-1.18,2.27-2.3,3.84-3.84,5.34-.83-1.02-1.41-1.57-2.59-2.37,2.18-1.73,3.81-4.16,4.8-7.1,.35-1.06,.51-1.76,.58-2.62l3.36,.77Zm15.74-.13c-.06,.13-.38,1.06-.96,2.82,1.44,2.3,3.01,3.78,5.73,5.41-.93,1.09-1.31,1.73-1.89,2.98-2.34-1.76-3.71-3.17-5.06-5.34-.86,1.76-1.5,2.82-2.59,4.22-.8-.93-1.38-1.41-2.5-2.08,1.57-1.79,2.5-3.49,3.3-5.92,.35-1.12,.54-1.92,.61-2.78l3.36,.7Z"/><path class="cls-4" d="M621.09,206.63c2.11,1.28,3.39,2.27,5.09,3.9l-2.11,2.75c-2.18-2.14-2.78-2.66-5.22-4.16l2.24-2.5Zm4.32,10.27c-.77,3.49-1.41,5.54-2.56,8.42-.16,.45-.48,1.18-.93,2.21l-2.91-2.59c1.28-1.73,2.53-4.99,3.65-9.7l2.75,1.66Zm-3.07-18.21c2.21,1.5,3.17,2.3,4.83,4.06l-2.4,2.62c-1.86-2.18-2.69-2.91-4.9-4.38l2.46-2.3Zm21.73,6.24c1.38,0,1.98-.03,2.85-.1-.1,.7-.13,1.47-.13,2.5v7.01c0,1.12,.03,2.02,.13,2.69-.83-.1-1.44-.13-2.56-.13h-2.91v7.97c0,2.11-.83,2.72-3.68,2.72-.58,0-1.79-.03-2.56-.1-.1-1.31-.26-2.05-.77-3.23,.99,.13,2.18,.26,2.59,.26,.99,0,1.12-.06,1.12-.74v-6.88h-2.69c-1.12,0-1.76,.03-2.69,.13,.1-.58,.13-1.41,.13-2.5v-7.1c0-.99-.03-2.05-.1-2.62,.9,.1,1.79,.13,2.94,.13h1.47c.45-.99,.58-1.38,.83-2.24h-6.82v3.74c0,3.3-.29,7.9-.64,10.4-.67,4.48-1.73,7.81-3.49,10.75-1.15-1.7-1.5-2.11-2.66-2.98,.99-1.6,1.63-3.1,2.18-4.93,.8-2.91,1.31-7.71,1.31-12.54v-3.58c0-1.73-.03-2.82-.16-4.16,.93,.13,1.89,.16,3.39,.16h13.38c1.63,0,2.69-.06,3.74-.16v3.46c-.83-.1-2.24-.16-3.68-.16h-3.04c-.38,1.06-.51,1.41-.9,2.24h3.39Zm-7.68,13.6c-.99,3.81-1.98,5.79-4.06,8.26-.96-1.25-1.31-1.54-2.46-2.24,1.95-2.08,2.72-3.55,3.62-6.98l2.91,.96Zm-.32-8.99h7.52v-1.82h-7.52v1.82Zm0,4.48h7.52v-1.89h-7.52v1.89Zm9.47,3.58c1.18,3.3,1.89,4.58,3.71,6.5-1.02,.67-1.66,1.34-2.5,2.56-1.82-2.43-2.72-4.22-3.97-7.94l2.75-1.12Z"/><path class="cls-4" d="M527.45,276.49c1.12-.35,3.52-1.44,5.12-2.34-.54-.74-1.09-1.34-1.76-1.98-.9,.58-1.47,.9-2.43,1.34-.7,.9-1.22,1.86-1.73,3.07-1.31-1.54-1.82-2.21-2.66-3.49-.83,2.59-1.98,4.58-3.87,6.82-.77-1.41-1.18-1.98-2.21-3.01,1.57-1.7,2.43-3.2,3.3-5.79,.96-2.94,1.25-6.18,1.25-14.14,0-4.42-.03-5.02-.26-6.37h3.52c-.13,.86-.16,1.57-.16,3.17q0,1.89-.03,4.83c.8-1.06,1.12-1.63,1.57-2.78l1.95,1.41v-3.2c0-1.38-.03-1.89-.1-2.69,.83,.1,1.76,.13,3.36,.13h10.11c1.7,0,2.56-.03,3.46-.13-.1,.74-.13,1.38-.13,2.66v3.9c0,1.25,.03,1.86,.13,2.59-.7-.06-1.18-.1-2.91-.1h-.74v1.28h1.98c1.31,0,1.89-.03,2.66-.16v2.72c-.8-.1-1.38-.13-2.66-.13h-1.98v1.47h2.72c1.44,0,2.08-.03,2.98-.16v2.91c-.96-.1-1.76-.16-2.94-.16h-1.95c1.5,1.28,3.17,2.14,5.44,2.75-.67,1.12-.9,1.63-1.31,2.82-1.41-.61-2.08-.93-3.04-1.5-.74,.86-1.31,1.47-1.92,2.02,1.5,1.15,2.78,1.79,5.28,2.56-.7,.86-1.12,1.47-1.7,2.59-2.82-1.18-4.54-2.3-6.59-4.29l1.66-1.6-.99-.83c.96-.9,1.34-1.28,1.92-2.11-1.06-.93-1.63-1.5-2.34-2.4h-4.19c-.93,1.12-1.41,1.63-2.21,2.34,.67,.64,1.25,1.25,1.98,2.21l-.64,.51,.96,2.08c-1.02,.7-1.28,.9-2.37,1.57,.83,.13,1.38,.16,1.92,.16,.86,0,.96-.06,.96-.74v-5.47c0-.93-.03-1.41-.13-1.95h3.42c-.1,.45-.13,1.02-.13,1.98v6.43c0,2.02-.7,2.62-3.07,2.62-1.02,0-1.98-.03-2.94-.13-.06-.99-.22-1.73-.58-2.56-.83,.48-2.27,1.28-2.85,1.57-.1,.06-.38,.22-.74,.45l-1.41-2.75Zm-9.31-11.33c.61-1.95,.8-4.1,.8-8.58l2.69,.35c-.16,5.34-.32,6.91-.93,9.31l-2.56-1.09Zm13.76-4.77c-1.5,0-2.27,.03-2.94,.1,.06-.86,.1-1.22,.1-2.34-.93,1.31-2.3,2.98-3.55,4.26-.13,3.26-.29,5.06-.64,7.1,.83,1.31,1.76,2.4,3.23,3.68-.42-.93-.83-1.63-1.28-2.21,2.05-.7,3.33-1.44,4.83-2.82h-2.11c-1.34,0-1.89,.03-2.66,.13v-2.88c.83,.13,1.38,.16,2.82,.16h2.59v-1.47h-1.86c-1.25,0-1.76,.03-2.53,.13v-2.69c.67,.1,1.25,.13,2.53,.13h1.86v-1.28h-.38Zm.29-5.41h10.4v-1.25h-10.4v1.25Zm0,3.2h10.4v-1.22h-10.4v1.22Zm6.98,3.49v-1.28h-3.81v1.28h3.81Zm0,3.9v-1.47h-3.81v1.47h3.81Z"/><path class="cls-4" d="M552.99,268.2c0-1.15-.03-2.14-.13-3.07,.96,.1,1.79,.13,3.1,.13h7.01c.93,0,1.63-.03,2.4-.1-.1,.67-.1,1.15-.1,2.78v8.54c0,1.31,.03,2.18,.13,2.88h-3.46v-1.15h-5.57v1.66h-3.55c.13-.93,.16-1.79,.16-3.46v-8.22Zm3.36,6.91h5.6v-6.75h-5.6v6.75Zm.9-21.02c0-1.15-.03-2.02-.13-2.85,.96,.13,1.89,.16,3.62,.16h12.06c1.79,0,2.82-.03,3.65-.16-.1,.8-.13,1.6-.13,2.82v5.92c0,1.31,.03,2.11,.13,2.98-.99-.1-1.63-.13-3.33-.13h-12.67c-1.66,0-2.37,.03-3.33,.13,.1-.9,.13-1.76,.13-2.94v-5.92Zm3.42,5.63h12.19v-5.12h-12.19v5.12Zm17.15,5.54c1.31,0,2.05-.03,2.85-.13-.1,.9-.13,1.76-.13,3.07v8.26c0,1.73,.03,2.56,.16,3.42h-3.58v-1.66h-6.08v1.66h-3.42c.06-.9,.1-1.54,.1-2.85v-9.25c0-1.44,0-1.95-.06-2.62,.74,.06,1.41,.1,2.37,.1h7.81Zm-6.78,9.85h6.11v-6.75h-6.11v6.75Z"/><path class="cls-4" d="M605.12,272.65c-.58,1.57-1.6,2.66-3.17,3.42,1.22,.03,1.7,.03,2.69,.03,4.8,0,8.1-.16,11.17-.51-.61,1.54-.8,2.24-.96,3.55-1.82,.1-5.98,.19-8.19,.19-6.18,0-9.12-.26-11.3-1.02-2.62-.9-4.54-2.4-6.14-4.7-.32,2.02-1.06,4.48-1.89,6.37-.8-1.12-1.34-1.66-2.46-2.5,1.38-2.66,2.24-6.75,2.24-10.75,0-.54-.03-.83-.1-1.54l2.94,.19c-.1,1.12-.13,1.73-.16,2.69-.03,1.25-.06,1.6-.1,2.02,.54,.9,.93,1.38,1.6,2.11v-8.67h-2.27c-1.47,0-2.18,.03-3.01,.19v-3.3c.8,.16,1.5,.19,3.01,.19h1.73v-3.3h-1.25c-1.25,0-1.98,.03-2.82,.13v-3.23c.8,.13,1.31,.16,2.82,.16h1.25v-.9c0-1.28-.03-2.02-.19-2.85h3.46c-.16,.8-.19,1.44-.19,2.85v.9h.86c1.44,0,1.89-.03,2.53-.16v1.7c1.7-1.6,3.23-4.06,3.62-5.89l3.17,.8q-.22,.42-.48,.93c-.19,.48-.22,.51-.38,.86h8.45c1.18,0,2.18-.03,2.94-.13-.03,.51-.06,.74-.1,1.34-.13,3.3-.42,5.95-.8,7.39-.42,1.57-1.28,2.08-3.55,2.08-.42,0-.9-.03-1.89-.06,0-.93-.1-1.57-.42-2.3h-2.27c-.42,1.12-.77,1.63-1.82,2.62-.48-.35-.7-.48-1.28-.77-.22,.54-.29,.7-.51,1.15h9.73c1.57,0,2.24-.03,2.94-.13-.06,.61-.06,.77-.1,1.44-.19,4.8-.45,7.04-.99,8.32-.58,1.38-1.38,1.73-3.97,1.73-.35,0-.86-.03-1.7-.06-.03-1.22-.19-2.08-.42-2.59h-2.27Zm-3.71-10.24c.83-.64,.99-.77,1.41-1.47h-1.6c-.54,0-1.12,.03-1.76,.06,.03-.38,.03-.9,.03-1.57v-1.6c-.61,.64-.8,.8-1.44,1.34-.67-.99-.96-1.28-1.73-1.82-.58-.03-.86-.03-1.63-.03h-.86v3.3h2.05c.99,0,1.54-.03,2.05-.16v3.23c-.58-.13-1.09-.16-2.05-.16h-1.73v3.71h.64c.42,0,.67,0,1.09-.03,.83-.64,1.06-.86,1.63-1.57,1.15-1.38,1.63-2.27,2.08-3.81l1.82,.58Zm-.67,10.24c-.99,.03-1.57,.06-1.79,.06,.06-.64,.06-.96,.06-1.57v-1.82c0-.38,0-.61-.03-.96-.29,.32-.51,.54-.99,1.02-.51-.58-.64-.7-1.02-1.06v1.76c-.8-.1-1.38-.13-2.18-.13h-.64v4.54c1.92,1.02,3.81,1.44,7.26,1.57-.77-.7-.86-.77-1.98-1.44,1.6-.64,2.3-1.09,2.91-1.98h-1.6Zm2.27-2.3c.13-1.09,.13-1.44,.13-3.2v-.64h-2.72c-.35,.54-.54,.77-.86,1.22h1.95c-.06,.48-.1,.83-.1,1.6v1.02h1.6Zm.42-11.62c.06-.83,.1-1.73,.1-2.72,0-.1,0-.13-.03-.7h-1.98c-.32,.48-.45,.67-.74,1.06h1.18c-.06,.51-.1,.9-.1,1.6v.77h1.57Zm3.71,11.62v-1.15q-.03-1.15-.1-1.6h2.59c-.06,.54-.1,.99-.1,1.89v1.66c0,.61,0,.93,.06,1.44h.26c.8,0,1.06-.35,1.28-1.73,.16-1.18,.22-2.11,.29-4.35h-5.73c0,1.38-.06,2.91-.16,3.84h1.6Zm.32-11.62v-.77c0-.58-.03-1.12-.1-1.63h2.53c-.03,.26-.06,.83-.1,1.76v1.34c0,.61,0,.93,.06,1.41h.22c.51,0,.74-.19,.86-.8,.26-1.28,.42-2.75,.45-4.74h-5.38c0,1.57-.03,2.5-.1,3.42h1.54Z"/><path class="cls-4" d="M641.79,267.34c-.99-1.41-1.41-1.95-2.27-2.88-1.02,1.98-1.76,2.98-3.26,4.29-.58-.9-1.25-1.63-2.11-2.34v1.15c-3.52,.51-7.14,.86-11.65,1.12-.64,.03-1.15,.1-1.82,.19l-.38-2.82c.51,.03,.58,.03,1.25,.03s2.85-.1,4.67-.19v-1.41h-1.73c-.7,0-1.41,.03-1.92,.13v-2.14c-.51,.22-.77,.32-1.79,.7-.38-1.06-.58-1.38-1.38-2.3,1.76-.38,2.46-.67,3.23-1.28,.54-.42,.83-.74,1.12-1.28h-1.31c-.86,0-1.76,.03-2.5,.13v-2.56c.74,.1,1.44,.13,2.59,.13h3.49v-1.41h-2.34c-1.02,0-1.63,.03-2.37,.1v-2.56c.77,.1,1.22,.13,2.4,.13h2.3v-.19c0-.61-.06-1.06-.16-1.7h3.42c-.1,.61-.13,1.12-.13,1.7v.19h2.21c1.06,0,1.66-.03,2.4-.13v2.56c-.7-.06-1.28-.1-2.34-.1h-2.27v1.41h3.07c1.12,0,1.82-.03,2.53-.1v2.5c-.74-.06-1.28-.1-2.46-.1h-.8v1.15c0,.35,.1,.42,.86,.42,.58,0,.7-.22,.74-1.18,.58,.29,1.31,.51,2.18,.61-.03,.35-.03,.45-.1,.77l1.57-1.6c.61,.45,.77,.58,1.28,.96,.16-.86,.19-1.44,.29-2.75h-.96c-.8,0-1.38,.03-2.08,.1v-3.04c.61,.1,1.22,.13,2.11,.13h.99c0-2.3,0-2.5-.16-3.46h3.36c-.06,.54-.1,.83-.13,1.44q0,.16-.03,1.31v.7h2.05c1.25,0,1.95-.03,2.72-.13-.13,.67-.16,1.44-.16,2.27,0,3.01,.1,5.12,.35,6.78,.22,1.7,.45,2.43,.74,2.43,.19,0,.42-1.31,.58-3.58,.64,.74,1.31,1.18,2.05,1.5-.51,3.9-1.34,5.6-2.72,5.6-1.25,0-2.27-1.06-2.98-3.14-.7-2.08-1.06-4.86-1.06-8.93h-1.73c-.13,2.02-.32,3.39-.67,4.9,1.15,1.06,1.76,1.73,3.07,3.33l-1.86,2.43Zm.26,2.85c1.73,0,2.66-.03,3.65-.13q-.1,.74-.26,2.72c-.13,1.76-.38,3.42-.74,4.48-.61,1.89-1.73,2.37-5.41,2.37-.83,0-1.66-.03-2.72-.13-.1-1.15-.32-1.79-1.12-3.23,1.63,.22,2.82,.32,4.29,.32,1.25,0,1.54-.16,1.79-.93,.16-.45,.32-1.54,.38-2.75h-7.9c-1.54,3.68-5.66,6.05-12.13,6.98-.38-1.25-.64-1.7-1.76-3.04,2.43-.22,4.13-.54,5.86-1.12,2.18-.74,3.36-1.5,4.32-2.82h-5.25c-1.38,0-2.27,.03-3.14,.16v-3.04c.77,.1,1.92,.16,3.17,.16h6.24c.03-.38,.06-.83,.06-1.09s-.03-.61-.06-.93l3.68,.03c-.1,.35-.1,.51-.19,1.38-.03,.19-.03,.35-.1,.61h7.33Zm-15.52-11.87c-.54,1.82-1.44,2.85-3.52,3.94,.48,.03,.99,.03,1.5,.03h1.66v-.38c0-.99-.03-1.47-.1-2.02h2.85v-1.57h-2.4Zm7.62,7.74c1.34-.99,2.24-2.14,3.04-3.84-1.02-.86-1.22-.99-2.14-1.7-.38,.86-.86,.99-3.65,.99-1.5,0-1.89-.06-2.24-.42,0,.32,.03,.45,.03,.83v.35h1.63c.8,0,1.31-.03,1.95-.13v2.43c-.64-.06-1.25-.1-1.98-.1h-1.6v1.25q.42-.03,1.22-.1c.93-.06,1.86-.16,3.74-.38v.8Z"/><path class="cls-4" d="M527.04,315.02h1.44c1.25,0,1.92-.03,2.46-.16v3.23c-.74-.1-1.34-.13-2.46-.13h-1.44v8.64q1.28-.29,4.26-1.02v3.17c-4.03,1.06-5.25,1.34-9.73,2.24-.99,.19-1.12,.22-2.02,.48l-.54-3.68q.86,0,4.9-.58v-9.25h-1.89c-1.28,0-2.02,.06-2.85,.19v-3.33c.83,.13,1.57,.19,2.85,.19h1.89v-2.4h-.77c-.7,0-1.28,.03-1.79,.13v-1.41c-.51,.48-.77,.74-1.54,1.34-.42-1.41-.7-2.05-1.54-3.2,1.63-1.25,2.34-1.89,3.3-3.07,.99-1.25,1.54-2.14,2.34-3.94h3.49c.77,1.82,1.89,3.2,3.87,4.83-.8,1.06-1.18,1.66-1.66,2.66v2.75c-.7-.06-1.15-.1-1.95-.1h-.61v2.4Zm-6.4,11.36c-.38-2.66-.74-4.06-1.57-6.5l2.72-.74c.9,2.66,1.18,3.78,1.63,6.43l-2.78,.8Zm2.43-16.57h4.7c.61,0,.8,0,1.28-.03-1.31-1.28-2.4-2.69-3.36-4.51-.93,1.86-1.63,2.91-2.98,4.54h.35Zm4.38,14.59c.67-1.95,1.02-3.23,1.38-5.28l2.56,.74c-.48,2.34-.74,3.17-1.57,5.28l-2.37-.74Zm10.11-19.52c0-1.06-.06-1.76-.16-2.62h3.55c-.13,.9-.16,1.54-.16,2.66v6.27h2.88c.54,0,.7,0,1.25-.03-1.28-1.92-1.98-3.3-3.1-6.24l2.75-1.18c1.22,2.88,2.34,4.77,4.32,7.14-.93,.45-1.66,.93-2.53,1.66v16.06c0,1.12-.26,1.76-.8,2.21-.64,.51-1.44,.67-3.42,.67-.7,0-1.28,0-2.53-.06-.13-1.28-.29-2.05-.7-3.39,1.31,.22,2.21,.32,3.07,.32,.96,0,1.15-.13,1.15-.67v-2.98h-7.58v3.42c0,1.38,.06,2.66,.16,3.71h-3.58c.13-1.02,.19-2.14,.19-3.71v-14.69c0-.35,0-.54-.03-.93-.7-.64-1.41-1.02-2.43-1.47,1.12-1.31,1.57-1.92,2.27-3.2,.83-1.47,1.15-2.27,1.66-4.06l2.88,1.18c-.93,2.75-1.63,4.29-2.88,6.24h3.78v-6.3Zm5.57,9.41h-7.58v2.24h7.58v-2.24Zm-7.58,7.49h7.58v-2.37h-7.58v2.37Z"/><path class="cls-4" d="M569.37,317.77h6.85c1.54,0,2.4-.03,3.33-.13v2.94c-.99-.13-1.79-.16-3.3-.16h-17.02c-1.18,0-1.98,.03-3.17,.06,.06-.77,.1-1.63,.1-2.91v-3.81c0-.83,0-1.28,.06-2.82-.67,.93-1.57,1.86-2.62,2.72-.58-1.44-.96-2.08-1.76-3.07,2.14-1.54,3.81-3.3,5.38-5.7,.7-1.06,1.22-2.14,1.44-2.91l3.26,1.15c-.13,.16-.13,.19-.22,.35-.32,.54-.64,1.06-1.28,2.02h5.6c.74-1.15,1.22-2.11,1.66-3.39l3.26,.83c-.58,1.12-.9,1.7-1.44,2.56h6.4c1.44,0,2.21-.03,3.26-.16v3.1c-.8-.1-1.47-.13-2.78-.13h-7.01v1.44h5.5c1.66,0,2.05-.03,3.07-.16v2.82c-.83-.1-1.38-.13-3.07-.13h-5.5v1.44h5.5c1.6,0,2.14-.03,3.07-.16v2.82c-.96-.13-1.34-.13-3.07-.13h-5.5v1.5Zm6.4,4.06c1.34,0,2.05-.03,2.78-.13-.1,.74-.13,1.57-.13,2.94v4.22c0,1.38,.03,2.14,.16,3.04h-3.55v-1.44h-16.45v1.44h-3.52c.1-.93,.16-2.08,.16-3.1v-4.19c0-1.22-.03-2.08-.16-2.91,.77,.1,1.47,.13,2.78,.13h17.92Zm-.74,5.54v-2.56h-16.45v2.56h16.45Zm-8.83-19.04h-6.72v1.44h6.72v-1.44Zm0,3.97h-6.72v1.44h6.72v-1.44Zm-6.72,3.97v1.5h6.72v-1.5h-6.72Z"/><path class="cls-4" d="M598.53,307.24c-.9,.96-1.76,1.73-3.04,2.69-.74-.99-1.28-1.54-2.14-2.11,2.46-1.66,4.42-3.84,5.09-5.76l3.36,.61q-.19,.35-.54,.9c-.19,.35-.32,.54-.67,1.06h9.38c1.31,0,2.08-.03,2.66-.13l1.89,1.47c-.26,.35-.32,.48-.74,1.09-.99,1.41-1.54,2.08-2.82,3.3-.96-.51-1.79-.86-2.94-1.22,1.02-.7,1.41-1.06,2.14-1.89h-4.93c.99,3.17,4.29,4.86,10.11,5.18-.67,1.12-.96,1.82-1.34,3.14-1.28-.22-1.76-.32-2.91-.64-.03,.86-.03,1.79-.03,2.78v5.92c0,1.47,.03,2.82,.13,3.39-.74-.06-2.05-.1-3.39-.1h-1.5c2.43,1.18,4.77,1.73,8.86,2.11-.8,.96-1.12,1.41-1.98,2.94-4.77-.77-7.01-1.57-10.43-3.65l1.86-1.41h-8.74l1.95,1.41c-3.33,2.02-5.47,2.78-10.14,3.68-.74-1.34-.99-1.73-1.95-2.85,4.22-.51,6.34-1.09,8.51-2.24h-1.28c-1.47,0-2.59,.03-3.39,.1,.06-.58,.13-1.86,.13-3.2v-6.3c0-1.5-.03-2.43-.13-3.33,.67,.06,1.79,.1,3.26,.1h1.66c-.38-.8-.77-1.38-1.34-2.05-1.86,.86-2.24,1.02-4.61,1.98-.48,.19-.8,.35-1.41,.64l-1.25-3.3c2.11-.42,4.99-1.44,7.84-2.88l.96,2.82-1.15,.54c2.34-.29,3.65-.61,4.86-1.15,1.98-.9,2.91-1.92,3.36-3.65h-3.2Zm-6.78,1.02c-1.86-1.47-3.01-2.18-5.09-3.14l2.08-2.43c2.3,1.09,3.33,1.66,5.18,2.94l-2.18,2.62Zm1.25,9.57h14.72v-1.22h-14.72v1.22Zm0,3.36h14.72v-1.31h-14.72v1.31Zm0,3.23h14.72v-1.18h-14.72v1.18Zm14.91-10.14h1.09c-2.66-.99-4.19-2.18-5.44-4.22-.83,1.38-1.57,2.08-2.98,2.91-.99,.58-2.02,.96-3.58,1.31h10.91Z"/><path class="cls-4" d="M631.68,323.18c-.16,.42-.19,.58-.35,1.09-1.34-1.5-2.24-2.75-3.23-4.51,.16,2.18,.19,2.62,.19,3.65v5.28c0,1.54,.03,2.37,.19,3.33h-3.71c.16-1.02,.22-1.98,.22-3.39v-4.13c0-1.28,.06-2.78,.13-3.84-1.44,3.52-2.46,5.31-4.16,7.2-.35-1.25-.93-2.4-1.63-3.3,1.34-1.38,2.37-2.78,3.46-4.74,.67-1.18,.8-1.5,1.7-3.62h-1.66c-1.41,0-2.11,.03-2.88,.16v-3.39c.74,.13,1.41,.16,2.88,.16h2.14v-7.58c0-1.44-.03-2.37-.16-3.14h3.65c-.13,.83-.16,1.57-.16,3.1v7.62h1.5c1.22,0,1.76-.03,2.46-.13v3.33c-.77-.1-1.41-.13-2.53-.13h-1.15c1.18,2.02,2.37,3.46,4.13,4.9-.45,.8-.58,1.09-.9,1.79,.74-.03,1.86-.22,2.94-.45l7.49-1.66v-14.62c0-1.86-.03-2.72-.19-3.71h3.87c-.16,1.06-.19,1.92-.19,3.68v13.89c1.31-.32,1.89-.48,2.72-.8l.67,3.65c-.86,.1-1.76,.26-3.07,.58l-.32,.06v4.67c0,1.79,.03,2.75,.19,3.78h-3.87c.16-1.09,.19-1.86,.19-3.81v-3.87l-6.78,1.54c-1.41,.32-2.34,.58-3.04,.8l-.74-3.42Zm-9.25-19.01c1.02,2.85,1.5,4.48,1.95,6.91l-2.69,1.15c-.51-2.94-1.09-4.93-1.98-6.85l2.72-1.22Zm10.98,1.12c-.83,2.94-1.25,4.06-2.56,6.94l-2.34-1.22c1.02-2.14,1.57-3.81,2.21-6.91l2.69,1.18Zm1.6,7.26c2.53,1.73,3.9,2.91,5.57,4.7l-2.18,2.59c-2.24-2.4-3.33-3.36-5.63-4.93l2.24-2.37Zm.99-8c2.75,1.92,3.78,2.82,5.6,4.7l-2.18,2.69c-2.37-2.53-2.53-2.66-5.66-4.93l2.24-2.46Z"/><path class="cls-4" d="M520.5,382.76c.16-1.12,.22-2.3,.22-4.06v-18.37c0-1.41-.06-2.4-.16-3.52,1.09,.13,2.05,.16,3.55,.16h18.08c1.5,0,2.46-.03,3.58-.16-.13,1.09-.16,2.02-.16,3.52v18.37c0,1.63,.06,2.94,.19,4.06h-4v-2.34h-17.28v2.34h-4.03Zm4.03-5.98h17.28v-16.19h-17.28v16.19Z"/><path class="cls-4" d="M554.74,358.76c-1.12,0-1.5,.03-2.82,.16v-3.49c1.02,.13,1.89,.16,3.2,.16h4.64c1.28,0,2.24-.03,3.23-.16v3.46c-.86-.1-1.6-.13-2.91-.13h-1.22c-.67,3.71-.93,4.83-1.66,6.85h3.2c.99,0,1.31-.03,1.95-.1-.1,.83-.1,1.25-.1,2.34v10.94c0,1.28,.06,2.4,.16,3.1h-3.1v-1.57h-2.43v3.04h-3.26c.16-1.06,.19-1.86,.19-3.23v-6.08c0-.58,.03-2.18,.06-2.66-.64,1.18-.96,1.66-1.7,2.53-.32-1.86-.58-2.75-1.12-4,2.59-3.14,3.9-6.3,4.54-11.17h-.86Zm2.14,18.75h2.46v-8.83h-2.46v8.83Zm12-20.61c.45-1.09,.67-1.89,.9-3.01l3.78,.58q-.13,.32-.38,1.06c-.19,.51-.38,.9-.61,1.38h4.61c1.31,0,2.02-.03,2.88-.1-.1,.77-.13,1.57-.13,2.85v8.03c0,1.25,.03,1.98,.13,2.75-.93-.06-1.57-.1-2.78-.1h-1.41v3.71h1.98c1.47,0,2.4-.06,3.23-.19v3.46c-1.06-.13-1.7-.16-3.2-.16h-2.02v3.17c0,1.6,.03,2.18,.19,3.62h-3.74c.16-1.18,.19-2.05,.19-3.62v-3.17h-6.08c-1.44,0-2.4,.03-3.36,.16v-3.42q1.02,.13,2.18,.16c.8-1.47,1.18-2.4,1.5-3.71h-.35c-1.12,0-1.89,.03-2.72,.1,.1-.86,.13-1.6,.13-2.75v-8.16c0-1.25-.03-1.86-.13-2.72,.86,.06,1.47,.1,2.75,.1h2.46Zm-1.98,5.38h3.3v-2.5h-3.3v2.5Zm0,5.25h3.3v-2.66h-3.3v2.66Zm.06,2.82l2.85,.83c-.51,1.34-.86,2.05-1.28,2.88h3.97v-3.71h-5.54Zm6.3-8.06h3.52v-2.5h-3.52v2.5Zm0,5.25h3.52v-2.66h-3.52v2.66Z"/><path class="cls-4" d="M608.62,370.41c1.6,0,2.69-.06,3.49-.16-2.14-.38-4.03-.93-5.98-1.79-1.86,.9-3.58,1.41-6.11,1.89-.32-1.06-.67-1.76-1.34-2.56,1.92-.16,3.1-.35,4.67-.86-.93-.61-1.34-.93-2.27-1.76l1.86-1.06h-.58c-1.12,0-1.44,0-2.05,.1v-2.5c.58,.06,.83,.06,1.89,.06h7.39c1.06,0,1.44-.03,1.95-.1l1.38,1.28c-.19,.22-.42,.48-.86,.99-.86,1.02-1.92,1.98-3.1,2.85,1.76,.48,3.39,.7,5.82,.77-.61,1.02-.86,1.66-1.18,2.91-.64-.1-.8-.13-1.34-.22v2.78c-.8-.1-1.57-.16-3.01-.16v6.27q2.62-.16,5.18-.38l-.03,2.62c-1.31,.1-3.04,.19-5.15,.29,0,.9,.06,1.54,.16,2.3h-3.65c.13-.7,.16-1.12,.19-2.14-2.66,.13-4.03,.19-6.4,.29-3.04,.1-4.03,.13-9.25,.22q-1.76,.03-2.62,.06c-1.02,.03-1.31,.03-2.02,.13l-.42-2.94c.64,.06,1.57,.13,2.37,.13h2.75v-6.85c-1.47,.03-2.18,.06-2.98,.19v-.96c-.8-.93-1.28-1.31-2.46-1.98,1.44-1.86,1.92-3.42,1.92-6.46,0-.83-.03-1.12-.1-1.63,.74,.06,1.31,.1,2.66,.1h7.49c1.54,0,1.92,0,2.59-.06-.1,.51-.1,.9-.1,1.66v2.02c0,.96,0,1.44,.06,1.82-.77-.1-1.28-.1-2.66-.1h-7.3c-.26,1.18-.42,1.66-.96,2.88,.64,.03,1.41,.06,2.34,.06h17.76Zm-20.32-12.38c-1.34,0-1.89,.03-2.75,.13v-2.46c.86,.1,1.54,.13,2.75,.13h3.33c-.03-.77-.03-1.02-.13-1.54h3.46c-.1,.48-.13,.8-.16,1.54h2.98c1.06,0,1.73-.03,2.56-.13v2.43c-.7-.1-1.09-.1-2.5-.1h-3.04v1.06h2.24c1.28,0,1.82-.03,2.46-.1v2.24c-.67-.1-1.06-.1-2.5-.1h-7.84c-1.28,0-1.73,.03-2.43,.13v-2.3c.7,.1,1.31,.13,2.46,.13h2.46v-1.06h-3.36Zm1.44,5.98c-.03,.86-.03,1.15-.06,1.41h2.27v-1.41h-2.21Zm16.19,9.76v-.9h-12.26v.9h12.26Zm0,2.85v-.93h-12.26v.93h12.26Zm-12.26,3.07c8.03-.16,8.74-.19,12.26-.38v-.77h-12.26v1.15Zm2.98-14.27v-1.41h-2.27v1.41h2.27Zm7.87-8.1c-.29,2.08-1.06,3.07-3.2,4.32-.45-.96-.8-1.44-1.7-2.24,1.06-.45,1.44-.74,1.79-1.31,.35-.61,.54-1.31,.54-2.27,0-.32-.03-.64-.1-1.12,.74,.1,1.12,.13,2.24,.13h3.81c1.28,0,1.76-.03,2.34-.13-.06,.54-.1,1.02-.1,1.76v1.6c0,.38,.13,.45,.93,.45q1.09,0,1.15-1.92c.9,.38,1.41,.54,2.37,.7-.1,2.98-.7,3.49-4.06,3.49-2.46,0-3.17-.32-3.17-1.44v-2.02h-2.85Zm-.83,6.78c.7,.67,1.41,1.12,2.46,1.63,.93-.51,1.54-.93,2.34-1.63h-4.8Z"/><path class="cls-4" d="M618.96,364.3c.99,.13,1.76,.16,3.36,.16h22.33c1.6,0,2.46-.03,3.33-.16v2.82c-.9-.13-1.6-.16-3.2-.16h-22.49c-1.6,0-2.4,.03-3.33,.16v-2.82Zm6.46,11.68c-1.28,0-2.08,.03-2.94,.1,.06-.74,.1-1.25,.1-2.56v-3.17c0-1.02-.03-1.6-.1-2.37,.7,.1,1.54,.13,3.04,.13h15.97c1.38,0,2.11-.03,2.98-.13-.06,.74-.1,1.25-.1,2.3v3.26c0,1.18,.03,1.95,.1,2.53-.9-.06-1.82-.1-2.94-.1h-6.5v1.15h8.03c1.34,0,2.02-.03,2.66-.13v2.53c-.74-.1-1.6-.13-2.85-.13h-7.84v1.15h9.31c1.76,0,2.53-.03,3.65-.16v2.85c-1.09-.13-2.11-.19-3.65-.19h-21.73c-1.54,0-2.5,.03-3.65,.19v-2.85c1.09,.13,1.89,.16,3.65,.16h9.06v-1.15h-7.46c-1.31,0-2.08,.03-2.85,.13v-2.53c.64,.1,1.31,.13,2.66,.13h7.65v-1.15h-6.24Zm-.38-12.7c-1.7,0-2.43,.03-3.23,.1,.1-.74,.13-1.41,.13-2.62v-3.07c0-1.12-.03-1.79-.13-2.56,.99,.1,1.82,.13,3.39,.13h16.54c1.6,0,2.37-.03,3.36-.13-.1,.77-.13,1.31-.13,2.56v3.07c0,1.15,.03,1.89,.13,2.62-.83-.06-1.5-.1-3.23-.1h-16.83Zm.16-2.02h16.41v-1.06h-16.41v1.06Zm.03-2.88h16.41v-1.06h-16.41v1.06Zm.58,11.74v1.12h5.86v-1.12h-5.86Zm0,2.88v1.06h5.86v-1.06h-5.86Zm9.22-1.76h6.11v-1.12h-6.11v1.12Zm0,2.82h6.11v-1.06h-6.11v1.06Z"/></g><g><path class="cls-4" d="M957.37,216.2c0-1.15-.03-2.14-.13-3.07,.96,.1,1.79,.13,3.1,.13h7.01c.93,0,1.63-.03,2.4-.1-.1,.67-.1,1.15-.1,2.78v8.54c0,1.31,.03,2.18,.13,2.88h-3.46v-1.15h-5.57v1.66h-3.55c.13-.93,.16-1.79,.16-3.46v-8.22Zm3.36,6.91h5.6v-6.75h-5.6v6.75Zm.9-21.02c0-1.15-.03-2.02-.13-2.85,.96,.13,1.89,.16,3.62,.16h12.06c1.79,0,2.82-.03,3.65-.16-.1,.8-.13,1.6-.13,2.82v5.92c0,1.31,.03,2.11,.13,2.98-.99-.1-1.63-.13-3.33-.13h-12.67c-1.66,0-2.37,.03-3.33,.13,.1-.9,.13-1.76,.13-2.94v-5.92Zm3.42,5.63h12.19v-5.12h-12.19v5.12Zm17.15,5.54c1.31,0,2.05-.03,2.85-.13-.1,.9-.13,1.76-.13,3.07v8.26c0,1.73,.03,2.56,.16,3.42h-3.58v-1.66h-6.08v1.66h-3.42c.06-.9,.1-1.54,.1-2.85v-9.25c0-1.44,0-1.95-.06-2.62,.74,.06,1.41,.1,2.37,.1h7.81Zm-6.78,9.85h6.11v-6.75h-6.11v6.75Z"/><path class="cls-4" d="M994.69,216.65c-.32,5.47-.86,8.13-2.37,11.42-1.25-1.5-1.73-1.98-2.75-2.78,1.63-3.33,2.05-6.72,2.05-16v-7.07c0-1.25-.06-2.21-.19-3.1h3.58q-.1,.58-.16,3.04v4.54h2.14v-5.7c0-1.06-.03-1.76-.16-2.56h3.3c-.13,.74-.16,1.47-.16,2.56v5.7c.7-.03,1.02-.06,1.5-.13v3.49c-.67-.1-1.18-.13-2.4-.13h-4.26l-.03,3.49h2.88c1.18,0,1.86-.03,2.66-.13-.06,.77-.1,1.47-.1,2.46v8.54c0,1.34,.06,2.4,.19,3.55h-3.46c.13-.96,.16-1.86,.16-3.58v-7.62h-2.43Zm6.3,1.66c.83,.1,1.6,.16,2.69,.16-.38-1.02-.8-1.57-1.79-2.43,2.78-.54,3.94-1.02,5.22-2.02h-2.3c-1.12,0-1.86,.03-2.66,.1,.06-.86,.1-1.57,.1-2.75v-7.87c0-1.15-.03-1.92-.1-2.75,.83,.06,1.41,.1,2.69,.1h2.4c.51-.96,.83-1.82,1.06-2.85l3.74,.42c-.32,.7-.83,1.66-1.25,2.43h4.96c1.31,0,1.98-.03,2.85-.1-.1,.83-.13,1.44-.13,2.75v7.87c0,1.31,.03,1.92,.13,2.75-.93-.06-1.5-.1-2.72-.1h-5.28c-.64,1.18-1.34,1.92-2.62,2.82-1.12,.77-2.18,1.28-3.39,1.63h6.3v-.93c0-1.34-.03-1.98-.16-2.72h3.58c-.13,.7-.16,1.38-.16,2.72v.93h1.95c1.6,0,2.59-.06,3.58-.19v3.42c-1.02-.1-2.08-.16-3.52-.16h-2.02v2.78c0,1.38,.06,2.4,.19,3.42h-3.65c.16-.99,.19-1.82,.19-3.42v-2.78h-6.27c-1.44,0-2.69,.06-3.62,.16v-3.39Zm7.78-14.53h-3.55v2.3h3.55v-2.3Zm-.19,7.36c.1-.74,.13-.99,.16-2.43h-3.52v2.43h3.36Zm6.78,0v-2.43h-3.71c-.06,1.25-.1,1.6-.19,2.43h3.9Zm0-5.06v-2.3h-3.65v2.3h3.65Z"/><path class="cls-4" d="M1024.19,223.47c.96,.16,1.79,.19,3.42,.19h21.53c1.6,0,2.4-.03,3.36-.19v3.49c-.96-.13-1.82-.16-3.39-.16h-21.5c-1.57,0-2.4,.03-3.42,.16v-3.49Zm12.13-23.13c0-.8-.03-1.31-.16-2.05h3.94c-.13,.64-.19,1.22-.19,2.02v.61h8.83c1.63,0,2.46-.03,3.52-.13-.1,.8-.13,1.54-.13,2.43v2.21c0,.86,.03,1.6,.13,2.46h-3.46v-3.9h-20.83v3.9h-3.49c.1-.77,.13-1.54,.13-2.43v-2.24c0-.86-.03-1.7-.13-2.43,1.06,.1,1.92,.13,3.52,.13h8.32v-.58Zm-7.87,12.8c0-1.22-.03-2.14-.13-3.07,.96,.1,1.86,.13,3.2,.13h13.73c1.34,0,2.24-.03,3.2-.13-.1,.99-.13,1.7-.13,3.07v5.86c0,1.38,.03,2.11,.13,3.07-1.06-.06-1.89-.1-3.23-.1h-13.66c-1.34,0-2.21,.03-3.23,.1,.1-.9,.13-1.86,.13-3.07v-5.86Zm19.65-4.54c-.8-.1-1.41-.13-3.04-.13h-13.38c-1.6,0-2.21,.03-3.04,.13v-3.04c.86,.1,1.34,.13,3.04,.13h13.38c1.7,0,2.18-.03,3.04-.13v3.04Zm-16.29,4.22v1.92h13.15v-1.92h-13.15Zm0,4.48v2.05h13.15v-2.05h-13.15Z"/><path class="cls-4" d="M1065.24,200.88c-.61,1.89-.96,2.85-1.7,4.74v18.14c0,1.82,.03,3.1,.16,4.16h-3.74c.13-1.15,.19-2.4,.19-4.13v-8.29c0-1.25,0-2.59,.06-4.06-.96,1.66-1.34,2.21-2.37,3.36-.38-1.79-.8-2.88-1.5-4.13,2.14-2.4,3.74-5.25,4.96-9.02,.54-1.63,.9-2.98,.99-3.74l3.62,.77q-.16,.48-.54,1.76c.83,.1,1.89,.16,3.36,.16h5.12c0-.93-.06-1.44-.16-2.14h3.55c-.13,.74-.19,1.22-.19,2.14h5.95c1.34,0,2.3-.06,3.14-.19v3.1c-.8-.1-1.98-.16-3.46-.16h-5.63v1.06h5.47c1.31,0,1.92-.03,2.56-.13-.06,.7-.1,1.47-.1,2.69v3.74c0,1.25,.03,1.98,.1,2.69-.45-.03-.58-.03-1.02-.06,1.18,1.34,1.54,1.76,2.59,3.23l-2.56,1.5c-.48-.74-.67-1.02-1.02-1.54-3.36,.38-6.91,.64-12.1,.86-4.54,.22-4.7,.22-5.5,.38l-.38-3.14c.83,.1,1.73,.13,3.74,.13q1.09,0,5.06-.16v-1.31h-5.22c-1.31,0-1.79,0-2.59,.06,.1-.8,.13-1.41,.13-2.46v-4.13c0-1.06-.03-1.66-.13-2.5,.8,.1,1.54,.13,2.78,.13h5.02v-1.06h-5.18c-1.5,0-2.62,.06-3.46,.16v-2.62Zm13.5,17.89c0-.35-.03-.42-.03-.58v-.35c0-.19,0-.22-.06-.38h3.42c-.03,.42-.03,.8-.03,1.31h1.41c1.47,0,2.34-.06,3.23-.19v3.23c-.93-.13-1.86-.19-3.3-.19h-1.34v3.26c0,2.27-.96,2.85-4.64,2.85-.42,0-.54,0-2.24-.06-.22-1.18-.45-1.86-1.09-3.14,1.25,.16,2.27,.22,3.46,.22,.99,0,1.22-.13,1.22-.7v-2.43h-8.35c1.22,.99,2.18,1.92,3.49,3.42l-2.62,2.08c-1.5-1.95-2.34-2.78-3.94-4.1l2.08-1.41h-1.31c-1.47,0-2.46,.06-3.33,.19v-3.2c.67,.1,1.73,.16,3.33,.16h10.66Zm-9.28-12v.99h4.51v-.99h-4.51Zm0,3.14v1.02h4.51v-1.02h-4.51Zm12.22-2.14v-.99h-4.8v.99h4.8Zm0,3.17v-1.02h-4.8v1.02h4.8Zm-4.8,3.55c.86-.06,1.54-.1,1.98-.13,1.38-.06,1.76-.1,2.37-.16-.29-.35-.32-.38-.83-.9h-3.52v1.18Z"/><path class="cls-4" d="M963.52,261c-.38-.67-.74-1.09-1.6-1.89,2.3-.22,4.58-.58,6.46-.99-1.98-.61-2.27-.67-4.99-1.28l1.86-1.44h-3.62c-1.7,0-2.37,.03-3.26,.13v-3.36c.86,.13,1.86,.19,3.49,.19h7.84v-.22c0-.51-.06-1.18-.16-1.86h3.94c-.13,.61-.16,1.28-.16,1.86v.22h7.81c1.7,0,2.72-.06,3.65-.19v3.36c-.93-.1-1.73-.13-3.42-.13h-3.04l1.92,1.06q-.22,.1-1.44,.64c-.93,.42-1.82,.77-2.85,1.22,1.73,.64,2.18,.83,3.39,1.41l-1.25,1.28h3.65c1.73,0,2.69-.03,3.58-.16v3.17c-1.02-.13-1.92-.16-3.58-.16h-19.74c-.03,3.1-.06,3.97-.32,6.21,1.06-.9,1.57-1.5,2.24-2.53,.64-1.02,1.18-2.27,1.44-3.3l3.17,.67c-.16,.35-.38,.86-.67,1.54h3.87c-.03-1.02-.06-1.41-.16-1.92h3.65c-.1,.64-.13,1.06-.13,1.92h5.76c1.57,0,2.27-.03,3.07-.16v3.26c-.93-.1-1.6-.13-3.1-.13h-5.73v1.92h4.8q1.22,0,2.18-.06c.38,0,.42-.03,.7-.19v3.14c-.9-.1-1.47-.13-2.88-.13h-4.8v1.86h7.23c1.31,0,2.24-.06,3.04-.16v3.33c-.96-.13-1.92-.19-3.1-.19h-17.79c-1.09,0-1.92,.03-3.07,.16v-3.3c.8,.13,1.63,.16,3.01,.16h7.33v-1.86h-3.68c-1.18,0-2.05,.03-2.98,.13v-2.85c-.48,.58-.77,.93-1.6,1.76-.77-1.22-1.06-1.57-1.89-2.34-.35,2.53-.48,3.1-.93,4.58-.61,1.98-1.09,2.98-2.14,4.48-.86-1.31-1.41-1.98-2.56-3.17,.86-1.09,1.44-2.21,1.92-3.71,.51-1.7,.8-4.86,.8-8.86,0-1.18-.03-2.21-.13-3.26,1.22,.13,2.21,.16,3.62,.16h1.38Zm2.85,8.42c-.45,.74-.77,1.22-1.22,1.82,.74,.06,1.34,.1,2.85,.1h3.71v-1.92h-5.34Zm9.6-8.42c-.38-.16-1.6-.67-3.62-1.47-2.88,.83-3.01,.86-6.85,1.47h10.46Zm-8.83-5.6c1.15,.29,3.58,.99,5.25,1.57,1.28-.42,2.88-1.12,3.71-1.57h-8.96Z"/><path class="cls-4" d="M990.97,268.2c0-1.15-.03-2.14-.13-3.07,.96,.1,1.79,.13,3.1,.13h7.01c.93,0,1.63-.03,2.4-.1-.1,.67-.1,1.15-.1,2.78v8.54c0,1.31,.03,2.18,.13,2.88h-3.46v-1.15h-5.57v1.66h-3.55c.13-.93,.16-1.79,.16-3.46v-8.22Zm3.36,6.91h5.6v-6.75h-5.6v6.75Zm.9-21.02c0-1.15-.03-2.02-.13-2.85,.96,.13,1.89,.16,3.62,.16h12.06c1.79,0,2.82-.03,3.65-.16-.1,.8-.13,1.6-.13,2.82v5.92c0,1.31,.03,2.11,.13,2.98-.99-.1-1.63-.13-3.33-.13h-12.67c-1.66,0-2.37,.03-3.33,.13,.1-.9,.13-1.76,.13-2.94v-5.92Zm3.42,5.63h12.19v-5.12h-12.19v5.12Zm17.15,5.54c1.31,0,2.05-.03,2.85-.13-.1,.9-.13,1.76-.13,3.07v8.26c0,1.73,.03,2.56,.16,3.42h-3.58v-1.66h-6.08v1.66h-3.42c.06-.9,.1-1.54,.1-2.85v-9.25c0-1.44,0-1.95-.06-2.62,.74,.06,1.41,.1,2.37,.1h7.81Zm-6.78,9.85h6.11v-6.75h-6.11v6.75Z"/><path class="cls-4" d="M1028.29,275.85c0,1.89,.06,2.98,.19,3.9h-3.74c.13-.93,.19-1.98,.19-3.97v-21.12c0-1.66-.03-2.56-.13-3.58,.9,.1,1.73,.13,3.3,.13h5.82c1.66,0,2.4-.03,3.26-.13-.06,.93-.1,1.86-.1,2.98v4.93c0,1.44,.03,2.05,.1,2.88-.83-.06-1.82-.1-2.94-.1h-5.95v14.08Zm0-20.54h5.66v-1.7h-5.66v1.7Zm0,4h5.66v-1.73h-5.66v1.73Zm5.34,9.5c.06-1.12,.06-1.47,.06-2.94-1.47,0-2.34,.03-3.2,.13v-2.88c.86,.13,1.73,.16,3.23,.16h9.28c1.57,0,2.43-.03,3.33-.16v2.88c-.86-.1-1.73-.13-3.33-.13v2.94h.48c1.6,0,2.4-.03,3.3-.13v2.94c-.96-.13-1.76-.16-3.3-.16h-.48v4.74c0,1.47,.03,2.02,.16,2.72h-3.36c.13-.77,.16-1.34,.16-2.75v-4.7h-3.58c-.35,3.39-1.41,5.5-3.87,7.9-.83-.9-1.47-1.44-2.56-2.21,2.14-1.66,3.04-3.1,3.42-5.7-1.66,0-2.56,.03-3.39,.16v-2.94c.9,.1,1.7,.13,3.33,.13h.32Zm3.04-2.94q0,1.44-.06,2.94h3.36v-2.94h-3.3Zm15.17,9.95c0,2.85-.96,3.58-4.54,3.58-.58,0-1.02,0-2.08-.06-.19-1.44-.35-2.14-.86-3.39,1.15,.16,2.18,.26,2.94,.26,1.02,0,1.22-.13,1.22-.83v-13.6h-6.27c-1.12,0-2.14,.03-2.91,.1,.06-.93,.06-1.44,.06-2.88v-4.93c0-1.22-.03-2.05-.1-2.98,.9,.1,1.63,.13,3.26,.13h6.11c1.6,0,2.4-.03,3.3-.13-.1,1.18-.13,1.95-.13,3.55v21.18Zm-9.28-20.51h5.95v-1.7h-5.95v1.7Zm0,4h5.95v-1.73h-5.95v1.73Z"/><path class="cls-4" d="M1069.76,268.46c.45,.06,.54,.06,.93,.1-.8-1.06-1.18-1.44-2.18-2.21,.03,.74,.06,1.02,.1,1.44-.7-.06-1.09-.06-2.53-.06h-4.32c-.19,1.25-.22,1.47-.42,2.21h4.86c1.28,0,1.95-.03,2.72-.1-.06,.58-.06,.67-.1,1.28-.19,3.58-.45,5.54-.93,6.78-.29,.7-.8,1.28-1.47,1.5-.64,.26-1.38,.32-3.01,.32-1.34,0-1.89-.03-2.98-.1-.16-1.34-.32-2.14-.7-3.36,1.5,.29,2.75,.45,3.9,.45,.99,0,1.31-.16,1.54-.77,.19-.64,.32-1.5,.42-3.26h-5.92q-1.02,0-2.18,.06c.77-2.34,1.15-4.32,1.34-6.46,0-.16,0-.61,.03-1.31,.83,.06,1.5,.1,2.59,.1h4v-2.18h-2.11c-1.06,0-1.7,.03-2.37,.13v-.86c-.99,.42-1.44,.58-2.82,1.02-.51-1.41-.77-1.86-1.57-2.98,2.5-.67,3.97-1.18,5.92-2.18-.99-.9-2.69-2.3-3.97-3.23l2.18-2.02c.58,.42,.8,.61,1.18,.9v-2.72c.83,.13,1.41,.16,2.85,.16h5.86c1.38,0,2.02-.03,2.75-.13,.38,1.22,.83,1.89,2.27,3.2,1.38-1.31,2.11-2.14,2.66-3.07l2.69,1.7q-.13,.16-.35,.35l-.1,.13-1.6,1.7c-.19,.22-.38,.38-1.06,.99,.77,.51,1.09,.74,1.86,1.18,1.54-1.38,2.37-2.3,3.04-3.36l2.62,1.73q-.1,.1-.32,.32s-.06,.06-.16,.16c-.38,.45-1.82,1.82-2.59,2.5,1.47,.64,2.4,.93,4.42,1.41-.77,1.06-1.12,1.73-1.6,3.01-2.05-.7-3.07-1.12-4.51-1.82-.03,.38-.03,.67-.03,1.09v2.21c0,.38,.29,.51,1.25,.51,.64,0,.96-.1,1.12-.35q.19-.32,.19-1.73c1.25,.7,1.86,.96,2.82,1.22-.26,2.91-.83,3.36-4.29,3.36s-4.1-.26-4.1-1.57v-3.23h-3.23c-.29,1.95-.64,2.91-1.47,4.06-.51,.7-.9,1.09-2.02,1.89,.45,.03,.9,.03,1.54,.03h8.16c1.15,0,1.63-.03,2.11-.13l1.7,1.66c-.22,.29-.29,.35-.7,.9-1.44,1.92-2.53,3.07-3.87,4.16,2.11,.83,3.94,1.25,6.85,1.54-.77,1.28-1.12,2.05-1.47,3.2-3.46-.67-5.86-1.47-8.22-2.75-2.34,1.34-4,1.98-7.1,2.82-.42-1.28-.67-1.89-1.38-2.98,2.37-.38,3.68-.8,5.7-1.7-1.22-.96-1.76-1.47-2.98-2.82l1.76-1.22h-.8c-1.28,0-1.73,.03-2.4,.1v-2.91Zm-5.7-14.62c-.74,0-1.34,.03-1.86,.06,1.25,1.02,2.05,1.73,2.98,2.59,1.28-.86,1.95-1.47,3.17-2.66h-4.29Zm4.45,11.58v.93c2.18-1.31,3.01-2.91,3.01-5.73,0-.19-.03-.48-.06-.77,.7,.1,1.25,.13,2.24,.13h4.86c-2.85-1.73-4.67-3.33-6.78-5.92-2.27,2.75-4.19,4.45-7.07,6.21h1.31c1.12,0,1.92-.03,2.62-.1-.1,.67-.13,1.28-.13,2.37v2.88Zm5.34,5.86c1.12,1.15,1.82,1.73,3.07,2.5,1.06-.7,1.73-1.31,2.91-2.5h-5.98Z"/><path class="cls-4" d="M956.35,314.44c.8,.13,1.34,.16,2.43,.16h2.24c.96,0,1.7-.03,2.43-.16-.1,.99-.13,1.76-.13,3.49v6.85c.54,.93,.9,1.31,1.57,1.79,.61,.42,1.15,.7,1.6,.83,1.47,.38,3.46,.58,6.37,.58,5.22,0,6.98-.1,13.38-.83-.42,1.15-.7,2.43-.93,3.81-4.19,.19-7.42,.26-12.8,.26-3.26,0-5.79-.29-7.2-.8-1.57-.58-2.4-1.18-3.71-2.72-.22,.22-.38,.38-.51,.48q-1.12,1.15-3.55,3.1l-1.73-3.52c1.18-.54,2.69-1.66,4.22-3.07v-6.82h-1.63c-.8,0-1.31,.03-2.05,.16v-3.58Zm2.46-11.71c2.3,2.02,4,3.74,5.54,5.79l-2.66,2.59c-1.86-2.56-3.2-4.06-5.44-5.98l2.56-2.4Zm12.86,6.5c-1.73-1.18-1.79-1.22-2.66-1.66l2.46-1.44h-3.04c-1.57,0-2.3,.03-3.33,.16v-3.26c1.02,.13,2.02,.19,3.81,.19h10.37c2.02,0,3.04-.06,3.62-.22l1.63,1.98c-.51,.32-.67,.45-1.6,1.22-1.28,1.09-2.85,2.21-4.13,3.04h2.56c1.6,0,2.5-.03,3.26-.16-.1,.86-.13,1.92-.13,3.71v9.86c0,1.82-.13,2.46-.58,2.94-.58,.54-1.38,.74-3.36,.74-.29,0-.83,0-1.44-.03-.1-1.28-.29-2.08-.74-3.04,.86,.13,1.6,.19,2.11,.19,.7,0,.74-.06,.74-.9v-1.25h-4.8v1.34c0,1.76,.03,2.56,.19,3.55h-3.55c.13-.93,.19-1.89,.19-3.55v-1.34h-4.32v1.63c0,1.89,.03,2.72,.19,3.49h-3.62c.13-.86,.16-1.86,.16-3.49v-10.11c0-1.86-.03-2.66-.13-3.74,.99,.13,1.92,.16,3.58,.16h2.53Zm-2.72,2.72v2.08h4.32v-2.08h-4.32Zm0,6.78h4.32v-2.14h-4.32v2.14Zm2.78-12.61c1.15,.8,1.44,.99,3.33,2.4,2.27-1.6,2.3-1.63,3.2-2.4h-6.53Zm4.7,7.9h4.8v-2.08h-4.8v2.08Zm4.8,2.56h-4.8v2.14h4.8v-2.14Z"/><path class="cls-4" d="M996.09,313.9h-1.7c-1.15,0-1.95,.03-2.88,.13,.1-.99,.13-1.86,.13-3.14v-4.45c0-1.28-.03-2.27-.13-3.23,.99,.13,1.86,.16,3.17,.16h4.58c1.41,0,2.27-.03,3.2-.16-.1,.96-.13,1.73-.13,3.23v3.36c2.82-2.24,5.15-5.44,5.7-7.84l3.55,.74-1.09,2.11h3.74c1.38,0,2.08-.03,2.78-.16l1.7,2.08c-2.56,4.29-3.36,5.41-5.06,7.17,2.18,1.47,3.55,2.14,6.75,3.26-.67,1.22-1.06,2.08-1.41,3.46l-1.41-.67c-.06,.51-.06,.93-.06,1.82v6.75c0,1.57,.03,2.5,.16,3.49h-3.52v-1.5h-6.3v1.54h-3.49c.13-.86,.16-1.7,.16-3.2v-7.04c0-.74,0-.96-.03-1.47l-1.09,.48c-.45-1.28-.61-1.6-1.22-2.46v2.43c-.67-.06-1.31-.1-2.3-.1h-.7v4.96c1.28-.32,1.89-.51,3.71-1.12v3.1c-3.23,1.09-6.56,1.98-10.88,2.98-.7,.16-.93,.22-1.41,.42l-.8-3.58c.7-.06,1.06-.1,1.86-.19v-7.78c0-1.63-.03-2.37-.19-3.26h3.33c-.13,.83-.16,1.44-.16,3.14v7.36q.48-.1,1.44-.32v-12.48Zm-1.22-2.94h4.29v-4.58h-4.29v4.58Zm7.33,6.69c2.5-.96,4.58-2.11,6.62-3.71-1.12-1.15-1.66-1.86-2.56-3.2-.96,1.02-1.44,1.44-2.56,2.27-.35-.67-.58-1.02-1.38-1.98,0,1.6,.03,2.24,.1,2.98q-.7-.06-2.62-.1h-.61v3.71h.7c1.22,0,1.73-.03,2.3-.16v.19Zm12.93,2.02c.83,0,1.15,0,1.79-.03-2.21-1.09-4-2.18-5.63-3.46-1.7,1.38-3.42,2.5-5.38,3.49h9.22Zm-7.26,7.78h6.3v-4.74h-6.3v4.74Zm.93-19.71c-.26,.35-.32,.48-.54,.74,.9,1.44,1.63,2.34,2.85,3.46,1.38-1.38,2.02-2.21,3.2-4.19h-5.5Z"/><path class="cls-4" d="M1026.78,306.7c-1.15,0-1.82,.03-2.75,.16v-3.46c.83,.13,1.89,.19,3.1,.19h5.6c1.38,0,2.11-.03,3.07-.19v3.42c-.86-.1-1.63-.13-2.75-.13h-1.63c-.42,2.59-.96,4.48-2.02,6.91h3.87c.96,0,1.28-.03,1.92-.1-.1,.83-.1,1.25-.1,2.34v11.01c0,1.31,.03,1.73,.1,2.5h-3.17v-1.47h-2.75v3.2h-3.46c.13-.93,.19-1.95,.19-3.26v-5.86c0-1.25,0-1.38,.06-3.1-.54,1.12-.99,1.76-2.02,2.98-.38-2.05-.58-2.66-1.25-3.97,1.76-1.76,2.94-3.71,4.06-6.85,.58-1.54,.8-2.43,1.09-4.32h-1.18Zm2.5,18.37h2.78v-8.38h-2.78v8.38Zm10.14-18.46c-.99,0-1.79,.03-2.62,.16v-3.49c.67,.13,1.86,.19,3.52,.19h9.25c1.41,0,2.46-.06,3.42-.19v3.49c-.99-.13-1.47-.16-3.14-.16v7.58h.26c1.66,0,2.3-.03,3.2-.16v3.58c-.93-.13-1.6-.16-3.2-.16h-.26v10.43c0,1.41,.06,2.62,.22,3.97h-3.81c.13-1.41,.19-2.37,.19-3.94v-10.46h-3.71c-.13,2.85-.32,4.54-.77,6.4-.8,3.49-1.79,5.6-3.94,8.29-.86-1.02-1.7-1.63-3.01-2.27,1.92-2.21,2.98-4.29,3.71-7.36,.35-1.41,.51-2.91,.61-5.06-1.57,0-2.08,.03-3.14,.16v-3.58c.96,.13,1.5,.16,3.2,.16v-7.58Zm7.04,7.58v-7.58h-3.65v7.58h3.65Z"/><path class="cls-4" d="M1075.74,318.12c1.66,0,2.37-.03,3.36-.13-.06,.83-.1,1.38-.13,2.88l-.1,6.3c-.03,.83,.26,1.02,1.41,1.02,2.37,0,2.72-.1,2.94-.74,.22-.74,.38-2.43,.42-4.99,1.25,.58,1.73,.74,3.36,1.09-.51,7.58-.7,7.81-6.69,7.81-3.9,0-4.86-.61-4.86-2.94v-.22l.1-6.91h-4.74c-.74,2.78-1.79,4.61-3.68,6.4-1.92,1.79-4.35,3.17-7.68,4.35-.64-1.34-.99-1.89-2.11-3.17,3.9-1.28,5.79-2.18,7.36-3.55,1.22-1.06,2.02-2.3,2.59-4.03h-4.42c-1.73,0-2.66,.03-3.58,.16v-3.52c.96,.13,1.92,.19,3.52,.19h5.12c.1-.83,.13-1.38,.13-1.95,0-.67-.03-1.15-.13-1.82h3.81c-.16,.61-.16,.8-.29,2.59-.03,.48-.03,.7-.1,1.18h4.38Zm-5.82-13.5c0-.9-.06-1.41-.19-2.08h3.9c-.13,.61-.16,1.18-.16,2.08v.74h8.99c1.47,0,2.27-.03,3.52-.16-.1,.7-.13,1.31-.13,2.37v2.27c0,.99,.03,1.63,.13,2.37h-2.08c-.26,1.79-.64,2.53-1.57,2.94-.74,.32-2.18,.45-5.25,.45-3.33,0-4.26-.51-4.26-2.37v-4.77h-2.66c-.51,2.11-.83,2.94-1.7,4.13-1.47,2.05-3.23,2.98-7.9,4.19-.58-1.09-.96-1.73-1.92-2.94,3.84-.7,5.18-1.18,6.37-2.21,.93-.8,1.41-1.73,1.66-3.17h-5.31v3.71h-3.49c.1-.7,.16-1.41,.16-2.4v-2.21c0-1.02-.03-1.63-.13-2.37,1.22,.13,2.05,.16,3.52,.16h8.48v-.74Zm12.58,3.84h-6.4v3.39c0,.7,.26,.8,2.02,.8,1.57,0,2.21-.16,2.43-.58,.13-.29,.19-.9,.22-1.82,.74,.29,1.02,.35,1.73,.51v-2.3Z"/><path class="cls-4" d="M964.73,380.65c0,1.5,.03,2.3,.16,3.26h-3.87c.16-.96,.19-1.82,.19-3.33v-8.03c-1.25,1.15-1.92,1.66-3.55,2.72-.38-1.22-.96-2.37-1.63-3.33,2.24-1.28,3.78-2.5,5.5-4.32,1.5-1.57,2.43-2.88,3.49-4.93h-5.22c-1.15,0-1.82,.03-2.69,.13v-3.55c.8,.1,1.47,.13,2.53,.13h1.6v-2.69c0-.83-.06-1.7-.19-2.43h3.87c-.13,.74-.19,1.44-.19,2.5v2.62h1.31c.99,0,1.44-.03,1.86-.1l1.54,1.66c-.29,.48-.48,.8-.7,1.34-1.06,2.3-1.66,3.36-3.2,5.47,1.5,1.7,2.98,2.85,5.09,4.06-.77,1.02-1.25,1.92-1.76,3.14-1.66-1.09-2.75-2.02-4.13-3.62v9.28Zm13.57-1.5h3.84c1.6,0,2.66-.06,3.65-.19v3.87c-1.12-.16-2.37-.22-3.65-.22h-10.94c-1.28,0-2.5,.06-3.62,.22v-3.87c1.02,.13,2.14,.19,3.68,.19h3.49v-12.51h-2.4c-1.09,0-2.11,.06-3.14,.16v-3.62c.93,.13,1.76,.16,3.14,.16h2.4v-5.63c0-1.31-.06-2.08-.22-3.33h4c-.19,1.28-.22,1.95-.22,3.33v5.63h3.39c1.44,0,2.24-.03,3.14-.16v3.62c-1.02-.1-2.02-.16-3.14-.16h-3.39v12.51Z"/><path class="cls-4" d="M994.59,360.81v-2.24h-1.41c-.86,0-1.47,.03-2.18,.13v-3.26c.77,.1,1.57,.16,2.66,.16h7.46c1.28,0,1.86-.03,2.59-.1-.1,.61-.13,1.02-.13,1.95v3.36c.61-.03,.9-.06,1.25-.1v3.17c-.45-.06-.61-.1-1.25-.13v3.39c0,.9,.03,1.41,.13,1.92-.8-.03-1.54-.06-2.43-.06h-4.67c-.29,.93-.42,1.31-.74,2.14h6.02c1.06,0,1.5-.03,2.02-.1-.06,.54-.1,.99-.1,2.21v6.88c0,1.15,.03,1.98,.16,2.88h-3.46v-1.12h-3.81v1.82h-3.46c.1-.99,.16-1.73,.16-2.46v-3.36c0-.93,0-1.15,.03-1.92-.9,1.44-1.34,2.05-2.59,3.39-.51-1.79-.86-2.56-1.54-3.49,2.02-2.24,3.17-4.16,4.1-6.88h-.22c-1.15,0-1.54,.03-2.24,.1v-3.1c.64,.06,1.09,.1,2.11,.1h1.06c.13-.77,.16-1.15,.29-2.34h-1.6c-1.63,0-2.02,.03-2.98,.16v-3.23c.9,.1,1.44,.13,2.98,.13h1.79Zm2.11,18.05h3.81v-4.7h-3.81v4.7Zm.86-15.1c-.06,.9-.16,1.57-.29,2.34h3.33v-2.34h-3.04Zm3.04-2.94v-2.24h-2.82c-.03,1.31-.03,2.05-.06,2.24h2.88Zm11.65-.38c1.15-2.14,1.92-4,2.59-6.3l3.39,1.09c-.99,2.3-1.82,4-2.59,5.22h.86c1.38,0,2.08-.03,2.85-.16v3.52c-.74-.13-1.47-.16-2.62-.16h-3.04v3.26h2.24c1.5,0,2.18-.03,2.72-.16v3.42c-.7-.13-1.57-.16-2.72-.16h-2.24v3.62h3.17c1.18,0,1.98-.03,2.91-.16v3.58c-.83-.13-1.7-.19-2.78-.19h-3.3v3.62c0,1.5,.06,2.43,.19,3.49h-3.84c.13-1.02,.19-1.98,.19-3.49v-3.62h-3.46c-1.15,0-1.6,.03-2.34,.16v-3.52c.64,.1,1.31,.13,2.4,.13h3.39v-3.62h-2.3c-1.22,0-1.63,.03-2.4,.16v-3.42c.77,.13,1.22,.16,2.34,.16h2.37v-3.26h-2.18c-1.15,0-1.79,.03-2.59,.16v-3.49c.74,.1,1.18,.13,2.66,.13h4.13Zm-4.32-.06c-.61-1.86-1.22-3.2-2.34-5.09l3.2-1.12c1.06,2.02,1.54,3.07,2.3,5.09l-3.17,1.12Z"/><path class="cls-4" d="M1026.14,367.69c.83-1.15,1.06-1.44,1.5-2.11-1.54-2.3-2.46-3.42-4.16-4.99l1.63-2.62c.54,.58,.61,.61,1.06,1.12,1.09-1.79,2.05-3.78,2.43-5.09l3.2,1.18c-.22,.35-.29,.42-.58,.96-1.12,2.14-2.11,3.81-3.07,5.18,.64,.83,.83,1.06,1.22,1.6,1.63-2.66,2.53-4.35,2.91-5.47l2.88,1.5q-.22,.32-.67,1.02c-2.37,3.9-3.42,5.5-5.06,7.58,1.57-.06,2.24-.1,3.23-.19-.29-.77-.45-1.18-.93-2.4l2.08-.83c1.31,2.91,1.57,3.68,2.37,6.69l-2.43,.74c-.13-.7-.19-.9-.32-1.47-1.12,.16-1.22,.16-1.89,.26v10.14c0,1.6,.03,2.43,.19,3.42h-3.42c.13-.99,.19-1.82,.19-3.42v-9.89c-1.86,.16-3.3,.26-3.55,.29-.48,.03-.58,.03-1.02,.13l-.38-3.42c.48,.06,.93,.1,1.7,.1h.9Zm1.54,4.9c-.22,4.86-.45,6.43-1.31,9.38l-2.85-1.18c.9-2.5,1.18-4.22,1.38-8.54l2.78,.35Zm6.94-.51c.77,2.82,.99,4.06,1.28,6.98l-2.62,.67c-.19-3.39-.29-4.06-.99-7.2l2.34-.45Zm4.58,2.69c-1.6,0-2.27,.03-3.1,.16v-3.39c.93,.13,1.82,.19,2.94,.19h10.14c1.18,0,1.95-.03,2.91-.16v3.36c-.74-.13-1.54-.16-2.91-.16h-3.68v5.15h4.64c1.22,0,2.02-.03,2.91-.16v3.49c-.96-.13-1.63-.16-2.91-.16h-12.32c-1.6,0-2.27,.03-3.1,.16v-3.49c.93,.1,1.76,.16,2.94,.16h4.42v-5.15h-2.88Zm1.92-14.59l-.83,1.63c-.8,1.6-.99,1.95-1.82,3.23,1.31,1.92,1.89,2.91,2.85,4.8l-2.85,1.54c-1.22-2.94-1.95-4.29-3.46-6.37,1.47-1.95,2.43-3.87,3.01-6.05l3.1,1.22Zm11.46-1.44c-.96-.13-1.7-.16-3.07-.16h-10.82c-1.25,0-2.05,.03-2.98,.16v-3.36c.9,.13,1.63,.16,2.98,.16h10.82c1.28,0,2.08-.03,3.07-.16v3.36Zm-6.05,1.44q-.13,.26-.32,.64c-.03,.06-.06,.19-.16,.35-.96,1.95-1.22,2.43-2.14,3.9,1.25,1.79,1.86,2.82,2.88,4.83l-2.94,1.47c-.99-2.75-1.79-4.32-3.26-6.34,1.34-2.02,2.34-4.16,2.82-6.05l3.14,1.18Zm5.57,.06c-.19,.32-.26,.48-.42,.83-.86,1.73-1.47,2.75-2.3,3.94,1.15,1.44,2.05,2.75,3.1,4.61l-2.85,1.66c-1.15-2.72-1.95-4.1-3.68-6.27,1.41-1.95,2.4-3.97,3.01-5.98l3.14,1.22Z"/><path class="cls-4" d="M1080.12,354.25q-.03,.22-.13,.96c-.16,1.79-.19,1.95-.48,2.94,2.05,2.05,3.71,2.94,6.59,3.49-.58,.7-.93,1.18-1.5,2.14,.61,0,.86-.03,1.34-.06-.1,.64-.13,1.31-.13,2.4v1.28c0,.99,.03,1.66,.16,2.24h-3.52v-3.23h-21.15v3.23h-3.46c.1-.7,.13-1.28,.13-2.24v-1.28c0-1.06-.03-1.73-.13-2.4,.54,.06,.9,.06,1.7,.1-.54-.9-.74-1.12-1.38-1.73,2.56-.7,3.62-1.31,4.61-2.66,.8-1.12,1.25-2.56,1.25-4.13,0-.42-.03-.64-.1-1.06h3.23q-.06,.29-.22,2.24c-.06,.8-.19,1.38-.45,2.14,1.28,1.41,2.53,2.18,4.77,2.98-.83,.9-1.09,1.28-1.54,2.21h2.85c-.35-.67-.64-.99-1.44-1.82,2.59-.83,3.84-1.57,4.64-2.69,.7-.99,1.15-2.53,1.15-4.03,0-.42,0-.51-.13-1.02h3.33Zm-17.28,1.63c-.54,1.73-1.12,2.82-2.24,4.26l-2.56-1.09c1.22-1.34,1.73-2.3,2.21-4.03l2.59,.86Zm2.46,18.11c-1.22,0-2.05,.03-2.98,.13,.06-.77,.1-1.31,.1-2.43v-2.27c0-.83-.03-1.44-.1-2.02,.64,.06,.99,.1,2.21,.1h14.81c1.09,0,1.7-.03,2.34-.1-.06,.51-.1,.93-.1,2.08v2.21c0,1.34,.03,1.76,.1,2.43-.86-.1-1.73-.13-2.98-.13h-5.31c-.32,.64-.42,.83-.83,1.47h8.35c1.57,0,2.3-.03,3.04-.13-.1,.61-.13,1.31-.13,2.66v2.91c0,1.47,.03,2.08,.16,2.78h-3.55v-.99h-16.93v.96h-3.49c.13-.8,.16-1.66,.16-2.78v-2.91c0-1.25-.03-1.79-.13-2.62,.8,.1,1.54,.13,2.98,.13h5.57c.42-.58,.61-.9,.9-1.47h-4.19Zm3.78-10.18c-1.63-.83-2.75-1.7-3.78-2.88-.96,1.31-1.86,2.08-3.3,2.88h7.07Zm-5.57,16.22h16.96v-2.02h-16.96v2.02Zm2.18-8.38h12.61v-1.76h-12.61v1.76Zm6.34-15.36c-.9,1.5-1.25,1.98-2.4,3.17l-2.34-1.34c1.15-1.09,1.66-1.79,2.3-3.17l2.43,1.34Zm3.84-.48c-.64,1.76-1.12,2.75-2.08,4.22l-2.5-1.06c.99-1.31,1.44-2.21,1.92-3.9l2.66,.74Zm6.78,8c-1.79-.83-3.23-1.89-4.32-3.1-.99,1.47-1.95,2.3-3.62,3.1h7.94Zm2.82-7.3c-.99,1.47-1.54,2.11-2.88,3.26l-2.14-1.7c1.41-1.15,1.92-1.76,2.59-3.07l2.43,1.5Z"/></g><g class="cls-3"><g><path class="cls-2" d="M317.16,102.29c3.87-5.19,7.22-12.76,9.06-20.15l11.62,4.22c-2.11,7.66-5.1,16.46-9.15,22.35l-11.53-6.42Zm49.81-1.32c3.34,0,3.96-1.14,4.49-9.33,2.55,1.94,8.1,3.87,11.53,4.66-1.41,12.94-4.93,16.19-14.96,16.19h-12.94c-12.85,0-15.93-3.61-15.93-14.34v-12.76h12.94c-1.32-.79-2.64-1.58-3.87-2.29l6.25-5.9h-28.34V34.09h64.33v43.12h-29.92c5.1,2.82,10.47,6.51,13.38,9.68l-9.15,8.71c-2.55-3.08-7.66-7.04-12.67-10.21v12.58c0,2.73,.7,2.99,4.66,2.99h10.21Zm-28.78-50.51h13.82v-5.37h-13.82v5.37Zm0,15.75h13.82v-5.54h-13.82v5.54Zm39.6-21.12h-13.38v5.37h13.38v-5.37Zm0,15.58h-13.38v5.54h13.38v-5.54Zm11.79,21.12c4.66,6.51,9.5,14.96,11.09,21.21l-12.5,5.28c-1.23-5.9-5.54-14.87-10.03-21.74l11.44-4.75Z"/><path class="cls-2" d="M328.86,180.94c-.44,7.92-1.67,16.28-3.43,21.65-2.2-1.14-6.69-2.55-9.06-3.17,1.94-5.02,2.73-12.85,3.08-19.98l9.42,1.5Zm17.25-26.58c2.9,5.72,5.63,13.02,6.34,17.86l-8.8,3.61c-.09-.97-.35-2.02-.53-3.17-16.9,2.73-20.15,3.61-22.18,4.66-.53-2.11-2.29-7.3-3.52-10.12,2.38-.62,4.22-2.64,7.04-5.98,1.06-1.14,2.82-3.43,4.93-6.51-5.9,.7-7.83,1.23-9.15,1.85-.53-2.11-2.29-7.13-3.52-9.94,1.76-.53,3.26-2.11,4.93-4.66,1.76-2.46,6.95-12.06,9.68-21.21l10.47,4.22c-2.9,6.86-6.86,14.17-11,20.24l4.75-.26c2.2-3.96,4.49-8.27,6.25-12.5l9.42,5.98c-3.17,6.16-7.13,12.5-11.44,18.39l6.34-2.46Zm-8.01,24.38c1.14,5.81,2.02,13.2,2.38,18.22l-9.06,2.38c-.09-5.1-.97-12.67-1.85-18.48l8.54-2.11Zm2.46-14.7c-.62-1.85-1.41-3.7-2.11-5.37-1.67,2.11-3.34,4.22-5.02,6.25l7.13-.88Zm6.6,11.88c2.02,5.28,4.05,11.97,5.02,16.37l-8.45,3.17c-.79-4.58-2.82-11.53-4.58-16.81l8.01-2.73Zm53.33,22.79h-33.7v5.54h-11.53v-42.85c-.97,1.23-1.94,2.46-2.9,3.61-1.14-3.43-3.61-9.42-5.28-12.58,6.6-7.83,12.32-21.56,14.96-31.77l12.06,3.7-.26,.88,10.21-4.49c2.2,3.96,4.66,9.06,5.98,12.41l-6.25,2.99h15.58v11.44h-12.76v5.63h10.91v11.35h-10.91v5.28h11v11.35h-11v5.72h13.9v11.79Zm-25.26-51.13h-8.45v5.63h8.45v-5.63Zm0,16.98h-8.45v5.28h8.45v-5.28Zm-8.45,22.35h8.45v-5.72h-8.45v5.72Zm11.26-50.77c-1.14-3.17-2.9-7.22-4.49-10.3-1.14,3.34-2.55,6.86-4.05,10.3h8.54Z"/></g></g><g class="cls-8"><g><path class="cls-2" d="M809.77,31.8c3.87,12.32,12.58,24.64,25.61,30.98-2.73,2.73-7.04,8.36-9.06,11.97-1.85-1.14-3.7-2.46-5.37-3.78-.79,23.94-1.76,33.88-4.66,37.49-2.55,3.34-5.19,4.31-8.8,4.93-3.08,.53-8.01,.53-13.02,.44-.18-3.78-1.94-9.33-4.22-12.94,4.4,.35,8.54,.44,10.74,.44,1.5,0,2.46-.26,3.52-1.32,1.58-1.76,2.38-9.06,2.99-25.34h-14.43c-2.11,16.63-7.92,31.33-31.15,40.13-1.58-3.61-5.28-9.06-8.36-11.88,19.27-6.34,23.85-16.63,25.52-28.25h-13.2v-5.54c-1.94,2.11-3.96,4.14-5.98,5.9-2.29-2.55-7.74-7.39-10.74-9.59,9.68-6.95,17.42-18.92,21.38-31.85l13.55,3.26c-3.08,9.24-7.57,18.04-12.85,25.43h40.74c-4.93-5.81-8.89-12.23-11.7-18.66h-13.02v-11.79h22.53Z"/><path class="cls-2" d="M779.59,178.3c-1.06-2.46-2.55-5.63-4.22-8.8v34.58h-12.23v-29.83c-2.2,5.98-4.84,11.35-7.74,15.31-1.14-3.61-3.96-8.8-5.9-12.06,5.28-6.69,9.86-17.51,12.23-27.19h-9.68v-12.06h11.09v-17.78h12.23v17.78h11.62v12.06h-11.62v2.55c3.34,4.14,9.86,13.11,11.35,15.4l-7.13,10.03Zm54.65-16.28h-10.47v41.98h-12.67v-41.98h-9.15c-.44,13.64-2.64,30.71-10.12,41.8-2.29-1.94-7.66-5.19-10.65-6.34,8.18-11.79,8.8-29.13,8.8-41.71v-25.52c10.65-2.02,21.82-5.28,29.04-8.89l10.74,10.12c-8.27,3.52-18.22,6.07-27.72,7.92v10.56h32.21v12.06Z"/></g></g></g></g></svg>