<?xml version="1.0" encoding="utf-8"?>
<!-- Generator: Adobe Illustrator 26.2.1, SVG Export Plug-In . SVG Version: 6.00 Build 0)  -->
<svg version="1.1" id="Capa_1" xmlns="http://www.w3.org/2000/svg" xmlns:xlink="http://www.w3.org/1999/xlink" x="0px" y="0px"
	 viewBox="0 0 100 100" style="enable-background:new 0 0 100 100;" xml:space="preserve">
<style type="text/css">
	.st0{fill:#C0C1C5;}
	.st1{fill:#FFBC00;}
</style>
<path class="st0" d="M36.9,95.3c-3-0.9-5.3-3.4-5.7-6.6l-2.8-13.1L10,70.7c-6.1-1.5-9.5-7.5-8-13.6l0,0l12.1-44.5
	c1.7-5.9,7.8-9.5,13.6-7.8l0,0L90,21.5c5.9,1.5,9.5,7.6,7.9,13.6l-12,44.5c-1.7,5.9-7.8,9.5-13.6,7.8l-18.4-4.9l-8.9,10
	C43.1,94.9,39.9,96.1,36.9,95.3z M26.4,9.4c-3.4-0.9-7,0.9-7.9,4.4L6.6,58.4c-0.9,3.4,1.1,6.8,4.5,7.8l21.2,5.7l3.4,15.9
	c0.2,1.3,0.9,2.5,2.3,3c1.3,0.2,2.6-0.4,3.4-1.5l11-12.1l21.2,5.7c3.4,0.9,7-0.9,7.9-4.4l0,0l11.9-44.7c0.9-3.4-1.1-6.8-4.5-7.8
	L26.4,9.4z"/>
<path class="st1" d="M18.9,60.1c3,0,5.4-2.4,5.4-5.4c0-1.2-0.4-2.4-1.1-3.3l11.5-17.7l9.9,20.5c-0.5,0.8-0.7,1.7-0.7,2.7
	c0,3,2.4,5.4,5.4,5.4s5.4-2.4,5.4-5.4c0-0.7-0.2-1.5-0.4-2.1l3.7-4.8c0.3,0,0.6,0.1,0.9,0.1c0.3,0,0.5,0,0.8-0.1l3.5,4.7
	c-0.3,0.7-0.5,1.4-0.5,2.2c0,3,2.4,5.4,5.4,5.4s5.4-2.4,5.4-5.4c0-1.1-0.3-2.2-0.9-3l7.3-14.6c2.8-0.2,5-2.5,5-5.3
	c0-3-2.4-5.4-5.4-5.4s-5.4,2.4-5.4,5.4c0,1.1,0.3,2.2,0.9,3l-7.3,14.6c-0.1,0-0.1,0-0.2,0l-3.6-4.9c0.2-0.6,0.4-1.3,0.4-1.9
	c0-3-2.4-5.4-5.4-5.4s-5.4,2.4-5.4,5.4c0,0.7,0.1,1.3,0.3,1.9l-3.9,5c-0.2,0-0.4,0-0.6,0L39,30.4c0.6-0.9,1-2,1-3.1
	c0-3-2.4-5.4-5.4-5.4s-5.4,2.4-5.4,5.4c0,1.2,0.4,2.2,1,3.1l-12.1,19c-2.6,0.3-4.7,2.6-4.7,5.3C13.5,57.7,15.9,60.1,18.9,60.1z"/>
</svg>
